<svg width="327" height="48" viewBox="0 0 327 48" fill="none" xmlns="http://www.w3.org/2000/svg">
<rect width="327" height="48" rx="24" fill="white" fill-opacity="0.6"/>
<path d="M0 24C0 10.7452 10.7452 0 24 0H303C316.255 0 327 10.7452 327 24V24C327 37.2548 316.255 48 303 48H24C10.7452 48 0 37.2548 0 24V24Z" fill="#0088FF"/>
<path d="M82.4468 30.0913C82.242 30.0913 82.0677 30.0775 81.9238 30.0498C81.7799 30.0221 81.6886 30 81.6499 29.9834V28.3896C81.7052 28.4007 81.7882 28.4146 81.8989 28.4312C82.0151 28.4478 82.1618 28.4561 82.3389 28.4561C82.6156 28.4561 82.8646 28.4173 83.0859 28.3398C83.3128 28.2624 83.5176 28.1434 83.7002 27.9829C83.8828 27.8169 84.0488 27.6011 84.1982 27.3354L80.1475 18.022H82.1313L85.1113 25.3765H85.2524L88.1494 18.022H90.1001L86.4312 26.5718C86.1102 27.3188 85.7754 27.9552 85.4268 28.481C85.0837 29.0067 84.6769 29.4079 84.2065 29.6846C83.7417 29.9557 83.1551 30.0913 82.4468 30.0913ZM94.5842 30.1743C93.7098 30.1743 92.9544 29.9862 92.318 29.6099C91.6872 29.228 91.2002 28.6857 90.8571 27.9829C90.514 27.2801 90.3425 26.4417 90.3425 25.4678V25.4512C90.3425 24.4938 90.5112 23.6693 90.8488 22.9775C91.1919 22.2858 91.6789 21.7518 92.3097 21.3755C92.9461 20.9992 93.7015 20.811 94.5759 20.811C95.334 20.811 95.9842 20.9438 96.5265 21.2095C97.0744 21.4696 97.5088 21.8293 97.8298 22.2886C98.1563 22.7424 98.361 23.2598 98.444 23.8408L98.4523 23.8823H96.7175L96.7092 23.8657C96.6096 23.423 96.3799 23.055 96.0202 22.7617C95.6605 22.4629 95.1818 22.3135 94.5842 22.3135C94.0861 22.3135 93.6572 22.4408 93.2975 22.6953C92.9378 22.9443 92.6611 23.304 92.4675 23.7744C92.2793 24.2448 92.1852 24.8037 92.1852 25.4512V25.4678C92.1852 26.1318 92.2821 26.7018 92.4758 27.1777C92.6694 27.6536 92.9461 28.0216 93.3058 28.2817C93.6655 28.5363 94.0916 28.6636 94.5842 28.6636C95.1486 28.6636 95.6052 28.5391 95.9538 28.29C96.308 28.041 96.557 27.673 96.7009 27.186L96.7175 27.1445L98.444 27.1362L98.4274 27.2109C98.3223 27.7975 98.1092 28.3122 97.7883 28.7549C97.4673 29.1976 97.0384 29.5462 96.5016 29.8008C95.9704 30.0498 95.3312 30.1743 94.5842 30.1743ZM106.572 20.9854V22.4131H103.733V30H101.932V22.4131H99.0931V20.9854H106.572ZM110.5 30.1494C109.93 30.1494 109.418 30.0415 108.964 29.8257C108.516 29.6043 108.162 29.2917 107.902 28.8877C107.642 28.4837 107.512 28.0106 107.512 27.4683V27.4517C107.512 26.9093 107.642 26.4473 107.902 26.0654C108.168 25.6836 108.549 25.3848 109.047 25.1689C109.551 24.9476 110.16 24.8148 110.874 24.7705L114.202 24.5713V25.8413L111.123 26.0405C110.503 26.0793 110.046 26.2121 109.753 26.439C109.46 26.6603 109.313 26.973 109.313 27.377V27.3936C109.313 27.8031 109.471 28.1268 109.786 28.3647C110.102 28.5972 110.5 28.7134 110.981 28.7134C111.43 28.7134 111.828 28.6248 112.177 28.4478C112.531 28.2651 112.808 28.0216 113.007 27.7173C113.206 27.4074 113.306 27.0588 113.306 26.6714V23.8325C113.306 23.3345 113.151 22.9554 112.841 22.6953C112.536 22.4297 112.083 22.2969 111.48 22.2969C110.976 22.2969 110.564 22.3854 110.243 22.5625C109.927 22.7396 109.717 22.9886 109.612 23.3096L109.595 23.3345H107.86L107.869 23.2764C107.941 22.7783 108.137 22.3467 108.458 21.9814C108.785 21.6107 109.211 21.3229 109.736 21.1182C110.268 20.9134 110.874 20.811 111.554 20.811C112.312 20.811 112.954 20.9328 113.48 21.1763C114.011 21.4142 114.412 21.7601 114.684 22.2139C114.96 22.6621 115.099 23.2017 115.099 23.8325V30H113.306V28.7217H113.173C112.996 29.026 112.774 29.2861 112.509 29.502C112.243 29.7122 111.942 29.8727 111.604 29.9834C111.266 30.0941 110.898 30.1494 110.5 30.1494ZM123.252 30V26.0488H119.176V30H117.366V20.9854H119.176V24.6211H123.252V20.9854H125.061V30H123.252ZM131.205 30.1743C130.326 30.1743 129.565 29.9862 128.923 29.6099C128.286 29.2336 127.797 28.6968 127.454 27.9995C127.11 27.2967 126.939 26.4639 126.939 25.501V25.4844C126.939 24.516 127.11 23.6831 127.454 22.9858C127.802 22.2886 128.295 21.7518 128.931 21.3755C129.573 20.9992 130.331 20.811 131.205 20.811C132.085 20.811 132.843 20.9992 133.48 21.3755C134.116 21.7463 134.606 22.283 134.949 22.9858C135.298 23.6831 135.472 24.516 135.472 25.4844V25.501C135.472 26.4639 135.298 27.2967 134.949 27.9995C134.606 28.6968 134.116 29.2336 133.48 29.6099C132.849 29.9862 132.091 30.1743 131.205 30.1743ZM131.205 28.6636C131.72 28.6636 132.157 28.5391 132.517 28.29C132.877 28.0355 133.151 27.673 133.339 27.2026C133.527 26.7323 133.621 26.165 133.621 25.501V25.4844C133.621 24.8148 133.527 24.2448 133.339 23.7744C133.151 23.304 132.877 22.9443 132.517 22.6953C132.157 22.4408 131.72 22.3135 131.205 22.3135C130.691 22.3135 130.254 22.4408 129.894 22.6953C129.534 22.9443 129.258 23.304 129.064 23.7744C128.876 24.2448 128.782 24.8148 128.782 25.4844V25.501C128.782 26.165 128.876 26.7323 129.064 27.2026C129.258 27.673 129.534 28.0355 129.894 28.29C130.254 28.5391 130.691 28.6636 131.205 28.6636ZM137.341 30V20.9854H141.425C142.311 20.9854 143 21.1956 143.492 21.6162C143.985 22.0368 144.231 22.5985 144.231 23.3013V23.3179C144.231 23.7772 144.087 24.1922 143.799 24.563C143.512 24.9282 143.146 25.1551 142.704 25.2437V25.3765C143.097 25.4263 143.437 25.5452 143.725 25.7334C144.012 25.916 144.234 26.1512 144.389 26.439C144.549 26.7267 144.629 27.0505 144.629 27.4102V27.4268C144.629 27.9414 144.502 28.3924 144.248 28.7798C143.999 29.1616 143.636 29.4604 143.16 29.6763C142.69 29.8921 142.125 30 141.467 30H137.341ZM139.134 28.6719H141.226C141.746 28.6719 142.136 28.5584 142.397 28.3315C142.657 28.0991 142.787 27.7754 142.787 27.3604V27.3438C142.787 26.9066 142.637 26.5828 142.338 26.3726C142.045 26.1623 141.6 26.0571 141.002 26.0571H139.134V28.6719ZM139.134 24.7539H140.861C141.398 24.7539 141.796 24.6488 142.056 24.4385C142.316 24.2282 142.446 23.9266 142.446 23.5337V23.5171C142.446 23.1574 142.333 22.8669 142.106 22.6455C141.885 22.4242 141.533 22.3135 141.052 22.3135H139.134V24.7539ZM146.557 30V20.9854H148.35V27.3105H149.288L148.068 27.9912L152.575 20.9854H154.368V30H152.575V23.6499H151.637L152.857 22.9609L148.35 30H146.557ZM163.426 20.9854V22.4131H160.587V30H158.786V22.4131H155.947V20.9854H163.426ZM165.005 30V20.9854H166.814V23.7744H168.582C169.628 23.7744 170.461 24.0566 171.081 24.6211C171.7 25.18 172.01 25.9326 172.01 26.8789V26.8955C172.01 27.8418 171.7 28.5972 171.081 29.1616C170.461 29.7205 169.628 30 168.582 30H165.005ZM168.433 25.2021H166.814V28.5723H168.433C168.975 28.5723 169.404 28.4201 169.719 28.1157C170.035 27.8058 170.192 27.3991 170.192 26.8955V26.8789C170.192 26.3698 170.032 25.9631 169.711 25.6587C169.396 25.3543 168.97 25.2021 168.433 25.2021ZM180.223 26.0156H179.767V30H177.957V20.9854H179.767V24.6709H180.215L183.402 20.9854H185.511L181.56 25.3267V25.0278L185.677 30H183.444L180.223 26.0156ZM190.551 30.1743C189.671 30.1743 188.91 29.9862 188.268 29.6099C187.632 29.2336 187.142 28.6968 186.799 27.9995C186.456 27.2967 186.284 26.4639 186.284 25.501V25.4844C186.284 24.516 186.456 23.6831 186.799 22.9858C187.148 22.2886 187.64 21.7518 188.277 21.3755C188.918 20.9992 189.677 20.811 190.551 20.811C191.431 20.811 192.189 20.9992 192.825 21.3755C193.462 21.7463 193.951 22.283 194.295 22.9858C194.643 23.6831 194.818 24.516 194.818 25.4844V25.501C194.818 26.4639 194.643 27.2967 194.295 27.9995C193.951 28.6968 193.462 29.2336 192.825 29.6099C192.194 29.9862 191.436 30.1743 190.551 30.1743ZM190.551 28.6636C191.066 28.6636 191.503 28.5391 191.862 28.29C192.222 28.0355 192.496 27.673 192.684 27.2026C192.872 26.7323 192.966 26.165 192.966 25.501V25.4844C192.966 24.8148 192.872 24.2448 192.684 23.7744C192.496 23.304 192.222 22.9443 191.862 22.6953C191.503 22.4408 191.066 22.3135 190.551 22.3135C190.036 22.3135 189.599 22.4408 189.239 22.6953C188.88 22.9443 188.603 23.304 188.409 23.7744C188.221 24.2448 188.127 24.8148 188.127 25.4844V25.501C188.127 26.165 188.221 26.7323 188.409 27.2026C188.603 27.673 188.88 28.0355 189.239 28.29C189.599 28.5391 190.036 28.6636 190.551 28.6636ZM198.438 30H196.687V20.9854H198.953L201.842 27.5596H201.983L204.896 20.9854H207.088V30H205.336V23.7329H205.187L202.547 29.6597H201.227L198.596 23.7329H198.438V30ZM211.887 30.1494C211.317 30.1494 210.805 30.0415 210.352 29.8257C209.903 29.6043 209.549 29.2917 209.289 28.8877C209.029 28.4837 208.899 28.0106 208.899 27.4683V27.4517C208.899 26.9093 209.029 26.4473 209.289 26.0654C209.555 25.6836 209.937 25.3848 210.435 25.1689C210.938 24.9476 211.547 24.8148 212.261 24.7705L215.589 24.5713V25.8413L212.51 26.0405C211.89 26.0793 211.433 26.2121 211.14 26.439C210.847 26.6603 210.7 26.973 210.7 27.377V27.3936C210.7 27.8031 210.858 28.1268 211.173 28.3647C211.489 28.5972 211.887 28.7134 212.369 28.7134C212.817 28.7134 213.215 28.6248 213.564 28.4478C213.918 28.2651 214.195 28.0216 214.394 27.7173C214.593 27.4074 214.693 27.0588 214.693 26.6714V23.8325C214.693 23.3345 214.538 22.9554 214.228 22.6953C213.924 22.4297 213.47 22.2969 212.867 22.2969C212.363 22.2969 211.951 22.3854 211.63 22.5625C211.314 22.7396 211.104 22.9886 210.999 23.3096L210.982 23.3345H209.248L209.256 23.2764C209.328 22.7783 209.524 22.3467 209.845 21.9814C210.172 21.6107 210.598 21.3229 211.124 21.1182C211.655 20.9134 212.261 20.811 212.941 20.811C213.7 20.811 214.341 20.9328 214.867 21.1763C215.398 21.4142 215.8 21.7601 216.071 22.2139C216.348 22.6621 216.486 23.2017 216.486 23.8325V30H214.693V28.7217H214.56C214.383 29.026 214.162 29.2861 213.896 29.502C213.63 29.7122 213.329 29.8727 212.991 29.9834C212.654 30.0941 212.286 30.1494 211.887 30.1494ZM224.639 30V26.0488H220.563V30H218.754V20.9854H220.563V24.6211H224.639V20.9854H226.448V30H224.639ZM229.347 32.3657H227.687V28.564H228.417C228.749 28.3537 228.996 27.9995 229.156 27.5015C229.322 27.0034 229.425 26.45 229.463 25.8413L229.795 20.9854H236.311V28.564H237.723V32.3657H236.062V30H229.347V32.3657ZM234.51 28.564V22.4214H231.356L231.099 25.916C231.065 26.4307 230.991 26.9066 230.874 27.3438C230.758 27.7809 230.598 28.1406 230.393 28.4229V28.564H234.51ZM239.916 33.1709C239.805 33.1709 239.686 33.1654 239.559 33.1543C239.431 33.1488 239.31 33.1405 239.193 33.1294V31.71C239.282 31.721 239.379 31.7293 239.484 31.7349C239.595 31.7404 239.7 31.7432 239.799 31.7432C240.22 31.7432 240.56 31.6436 240.82 31.4443C241.08 31.2507 241.277 30.9269 241.41 30.4731L241.543 30.0083L238.272 20.9854H240.223L242.771 29.1118L242.207 28.1821H242.896L242.339 29.1118L244.879 20.9854H246.78L243.427 30.3403C243.172 31.0597 242.89 31.6242 242.58 32.0337C242.27 32.4487 241.902 32.742 241.476 32.9136C241.05 33.0851 240.53 33.1709 239.916 33.1709Z" fill="white"/>
</svg>
