<svg width="327" height="48" viewBox="0 0 327 48" fill="none" xmlns="http://www.w3.org/2000/svg">
<rect width="327" height="48" rx="24" fill="white" fill-opacity="0.6"/>
<path d="M0 24C0 10.7452 10.7452 0 24 0H303C316.255 0 327 10.7452 327 24V24C327 37.2548 316.255 48 303 48H24C10.7452 48 0 37.2548 0 24V24Z" fill="#0088FF"/>
<path d="M77.5151 30V28.481H81.1343C81.9754 28.481 82.6118 28.3122 83.0435 27.9746C83.4751 27.637 83.6909 27.1473 83.6909 26.5054V26.4888C83.6909 26.0571 83.5913 25.6974 83.3921 25.4097C83.1929 25.1219 82.894 24.9061 82.4956 24.7622C82.1027 24.6128 81.613 24.5381 81.0264 24.5381H77.5151V23.1187H80.6528C81.4774 23.1187 82.0999 22.9692 82.5205 22.6704C82.9411 22.366 83.1514 21.9233 83.1514 21.3423V21.3257C83.1514 20.7612 82.9604 20.3241 82.5786 20.0142C82.1968 19.6987 81.66 19.541 80.9683 19.541H77.5151V18.022H81.4082C82.1553 18.022 82.7972 18.1437 83.334 18.3872C83.8763 18.6307 84.2913 18.9766 84.5791 19.4248C84.8669 19.8675 85.0107 20.3932 85.0107 21.002V21.0186C85.0107 21.4391 84.9167 21.832 84.7285 22.1973C84.5404 22.557 84.2886 22.8613 83.9731 23.1104C83.6577 23.3594 83.3008 23.5171 82.9023 23.5835V23.7246C83.4447 23.7799 83.9178 23.9377 84.3218 24.1978C84.7257 24.4578 85.0412 24.7954 85.2681 25.2104C85.495 25.62 85.6084 26.0848 85.6084 26.605V26.6216C85.6084 27.3188 85.4424 27.922 85.1104 28.4312C84.7839 28.9347 84.3162 29.3221 83.7075 29.5933C83.0988 29.8644 82.3683 30 81.5161 30H77.5151ZM76.5854 30V18.022H78.4448V30H76.5854ZM87.5109 30V20.9854H89.3205V23.7744H91.0886C92.1345 23.7744 92.9673 24.0566 93.5871 24.6211C94.2069 25.18 94.5168 25.9326 94.5168 26.8789V26.8955C94.5168 27.8418 94.2069 28.5972 93.5871 29.1616C92.9673 29.7205 92.1345 30 91.0886 30H87.5109ZM90.9391 25.2021H89.3205V28.5723H90.9391C91.4815 28.5723 91.9103 28.4201 92.2258 28.1157C92.5412 27.8058 92.6989 27.3991 92.6989 26.8955V26.8789C92.6989 26.3698 92.5384 25.9631 92.2175 25.6587C91.902 25.3543 91.4759 25.2021 90.9391 25.2021ZM96.0358 30V20.9854H97.8371V30H96.0358ZM100.146 30V20.9854H104.23C105.116 20.9854 105.805 21.1956 106.297 21.6162C106.79 22.0368 107.036 22.5985 107.036 23.3013V23.3179C107.036 23.7772 106.892 24.1922 106.604 24.563C106.317 24.9282 105.951 25.1551 105.509 25.2437V25.3765C105.902 25.4263 106.242 25.5452 106.53 25.7334C106.817 25.916 107.039 26.1512 107.194 26.439C107.354 26.7267 107.434 27.0505 107.434 27.4102V27.4268C107.434 27.9414 107.307 28.3924 107.053 28.7798C106.804 29.1616 106.441 29.4604 105.965 29.6763C105.495 29.8921 104.93 30 104.272 30H100.146ZM101.939 28.6719H104.031C104.551 28.6719 104.941 28.5584 105.202 28.3315C105.462 28.0991 105.592 27.7754 105.592 27.3604V27.3438C105.592 26.9066 105.442 26.5828 105.143 26.3726C104.85 26.1623 104.405 26.0571 103.807 26.0571H101.939V28.6719ZM101.939 24.7539H103.666C104.203 24.7539 104.601 24.6488 104.861 24.4385C105.121 24.2282 105.251 23.9266 105.251 23.5337V23.5171C105.251 23.1574 105.138 22.8669 104.911 22.6455C104.69 22.4242 104.338 22.3135 103.857 22.3135H101.939V24.7539ZM113.056 30.1743C112.176 30.1743 111.42 29.9862 110.79 29.6099C110.159 29.228 109.672 28.6885 109.329 27.9912C108.991 27.2939 108.822 26.4694 108.822 25.5176V25.5093C108.822 24.5685 108.991 23.7467 109.329 23.0439C109.672 22.3411 110.153 21.7933 110.773 21.4004C111.398 21.0075 112.129 20.811 112.964 20.811C113.806 20.811 114.528 20.9992 115.131 21.3755C115.74 21.7518 116.207 22.2803 116.534 22.9609C116.86 23.6361 117.023 24.4274 117.023 25.335V25.9658H109.735V24.6792H116.127L115.264 25.8745V25.1523C115.264 24.5104 115.164 23.9792 114.965 23.5586C114.771 23.1325 114.503 22.8143 114.16 22.604C113.817 22.3937 113.421 22.2886 112.973 22.2886C112.524 22.2886 112.123 22.3993 111.769 22.6206C111.42 22.8364 111.144 23.1574 110.939 23.5835C110.74 24.0096 110.64 24.5326 110.64 25.1523V25.8745C110.64 26.4666 110.74 26.973 110.939 27.3936C111.138 27.8141 111.42 28.1351 111.786 28.3564C112.156 28.5778 112.594 28.6885 113.097 28.6885C113.485 28.6885 113.817 28.6359 114.093 28.5308C114.376 28.4201 114.605 28.2845 114.782 28.124C114.965 27.9635 115.089 27.8058 115.156 27.6509L115.189 27.5845H116.932L116.916 27.6592C116.838 27.958 116.703 28.2568 116.509 28.5557C116.315 28.849 116.058 29.1174 115.737 29.3608C115.421 29.6043 115.04 29.8008 114.591 29.9502C114.149 30.0996 113.637 30.1743 113.056 30.1743ZM122.695 30.1743C121.82 30.1743 121.065 29.9862 120.428 29.6099C119.798 29.228 119.311 28.6857 118.967 27.9829C118.624 27.2801 118.453 26.4417 118.453 25.4678V25.4512C118.453 24.4938 118.622 23.6693 118.959 22.9775C119.302 22.2858 119.789 21.7518 120.42 21.3755C121.057 20.9992 121.812 20.811 122.686 20.811C123.444 20.811 124.095 20.9438 124.637 21.2095C125.185 21.4696 125.619 21.8293 125.94 22.2886C126.267 22.7424 126.471 23.2598 126.554 23.8408L126.563 23.8823H124.828L124.82 23.8657C124.72 23.423 124.49 23.055 124.131 22.7617C123.771 22.4629 123.292 22.3135 122.695 22.3135C122.197 22.3135 121.768 22.4408 121.408 22.6953C121.048 22.9443 120.772 23.304 120.578 23.7744C120.39 24.2448 120.296 24.8037 120.296 25.4512V25.4678C120.296 26.1318 120.392 26.7018 120.586 27.1777C120.78 27.6536 121.057 28.0216 121.416 28.2817C121.776 28.5363 122.202 28.6636 122.695 28.6636C123.259 28.6636 123.716 28.5391 124.064 28.29C124.418 28.041 124.667 27.673 124.811 27.186L124.828 27.1445L126.554 27.1362L126.538 27.2109C126.433 27.7975 126.22 28.3122 125.899 28.7549C125.578 29.1976 125.149 29.5462 124.612 29.8008C124.081 30.0498 123.442 30.1743 122.695 30.1743ZM134.683 20.9854V22.4131H131.844V30H130.042V22.4131H127.204V20.9854H134.683ZM136.261 30V20.9854H138.054V27.3105H138.992L137.772 27.9912L142.279 20.9854H144.072V30H142.279V23.6499H141.341L142.562 22.9609L138.054 30H136.261ZM150.592 30V20.9854H152.385V27.3105H153.323L152.102 27.9912L156.61 20.9854H158.403V30H156.61V23.6499H155.672L156.892 22.9609L152.385 30H150.592ZM162.986 26.0156H162.53V30H160.72V20.9854H162.53V24.6709H162.978L166.166 20.9854H168.274L164.323 25.3267V25.0278L168.44 30H166.207L162.986 26.0156ZM173.314 30.1743C172.434 30.1743 171.673 29.9862 171.032 29.6099C170.395 29.2336 169.905 28.6968 169.562 27.9995C169.219 27.2967 169.048 26.4639 169.048 25.501V25.4844C169.048 24.516 169.219 23.6831 169.562 22.9858C169.911 22.2886 170.403 21.7518 171.04 21.3755C171.682 20.9992 172.44 20.811 173.314 20.811C174.194 20.811 174.952 20.9992 175.589 21.3755C176.225 21.7463 176.715 22.283 177.058 22.9858C177.407 23.6831 177.581 24.516 177.581 25.4844V25.501C177.581 26.4639 177.407 27.2967 177.058 27.9995C176.715 28.6968 176.225 29.2336 175.589 29.6099C174.958 29.9862 174.2 30.1743 173.314 30.1743ZM173.314 28.6636C173.829 28.6636 174.266 28.5391 174.626 28.29C174.985 28.0355 175.259 27.673 175.448 27.2026C175.636 26.7323 175.73 26.165 175.73 25.501V25.4844C175.73 24.8148 175.636 24.2448 175.448 23.7744C175.259 23.304 174.985 22.9443 174.626 22.6953C174.266 22.4408 173.829 22.3135 173.314 22.3135C172.8 22.3135 172.362 22.4408 172.003 22.6953C171.643 22.9443 171.366 23.304 171.173 23.7744C170.985 24.2448 170.89 24.8148 170.89 25.4844V25.501C170.89 26.165 170.985 26.7323 171.173 27.2026C171.366 27.673 171.643 28.0355 172.003 28.29C172.362 28.5391 172.8 28.6636 173.314 28.6636ZM185.335 30V26.0488H181.26V30H179.45V20.9854H181.26V24.6211H185.335V20.9854H187.145V30H185.335ZM191.729 26.0156H191.272V30H189.463V20.9854H191.272V24.6709H191.72L194.908 20.9854H197.016L193.065 25.3267V25.0278L197.182 30H194.949L191.729 26.0156ZM199.201 33.1709C199.09 33.1709 198.971 33.1654 198.844 33.1543C198.717 33.1488 198.595 33.1405 198.479 33.1294V31.71C198.567 31.721 198.664 31.7293 198.769 31.7349C198.88 31.7404 198.985 31.7432 199.085 31.7432C199.505 31.7432 199.846 31.6436 200.106 31.4443C200.366 31.2507 200.562 30.9269 200.695 30.4731L200.828 30.0083L197.557 20.9854H199.508L202.056 29.1118L201.492 28.1821H202.181L201.625 29.1118L204.165 20.9854H206.066L202.712 30.3403C202.458 31.0597 202.175 31.6242 201.866 32.0337C201.556 32.4487 201.188 32.742 200.762 32.9136C200.335 33.0851 199.815 33.1709 199.201 33.1709ZM211.83 30V20.9854H213.623V27.3105H214.561L213.341 27.9912L217.848 20.9854H219.641V30H217.848V23.6499H216.91L218.13 22.9609L213.623 30H211.83ZM227.91 22.4048H223.768V30H221.958V20.9854H227.91V22.4048ZM229.605 33.0049V20.9854H231.406V22.4048H231.547C231.719 22.0728 231.94 21.7905 232.211 21.5581C232.488 21.3257 232.804 21.1458 233.158 21.0186C233.512 20.8913 233.899 20.8276 234.32 20.8276C235.078 20.8276 235.737 21.0213 236.295 21.4087C236.854 21.7905 237.286 22.3301 237.59 23.0273C237.9 23.7191 238.055 24.5381 238.055 25.4844V25.501C238.055 26.4528 237.903 27.2773 237.599 27.9746C237.294 28.6663 236.863 29.2031 236.304 29.585C235.745 29.9613 235.084 30.1494 234.32 30.1494C233.905 30.1494 233.517 30.0858 233.158 29.9585C232.798 29.8257 232.48 29.6431 232.203 29.4106C231.926 29.1782 231.708 28.8988 231.547 28.5723H231.406V33.0049H229.605ZM233.805 28.6055C234.309 28.6055 234.74 28.481 235.1 28.2319C235.46 27.9829 235.734 27.626 235.922 27.1611C236.116 26.6963 236.212 26.1429 236.212 25.501V25.4844C236.212 24.8369 236.116 24.2808 235.922 23.8159C235.734 23.3511 235.46 22.9941 235.1 22.7451C234.74 22.4961 234.309 22.3716 233.805 22.3716C233.307 22.3716 232.876 22.4989 232.51 22.7534C232.145 23.0024 231.866 23.3594 231.672 23.8242C231.478 24.2835 231.381 24.8369 231.381 25.4844V25.501C231.381 26.1374 231.478 26.688 231.672 27.1528C231.866 27.6177 232.145 27.9774 232.51 28.2319C232.876 28.481 233.307 28.6055 233.805 28.6055ZM239.941 30V20.9854H241.751V23.7744H243.519C244.565 23.7744 245.398 24.0566 246.017 24.6211C246.637 25.18 246.947 25.9326 246.947 26.8789V26.8955C246.947 27.8418 246.637 28.5972 246.017 29.1616C245.398 29.7205 244.565 30 243.519 30H239.941ZM243.369 25.2021H241.751V28.5723H243.369C243.912 28.5723 244.341 28.4201 244.656 28.1157C244.971 27.8058 245.129 27.3991 245.129 26.8955V26.8789C245.129 26.3698 244.969 25.9631 244.648 25.6587C244.332 25.3543 243.906 25.2021 243.369 25.2021ZM248.466 30V20.9854H250.267V30H248.466Z" fill="white"/>
</svg>
