<svg width="435" height="318" viewBox="0 0 435 318" fill="none" xmlns="http://www.w3.org/2000/svg">
<g filter="url(#filter0_d_1925_2232)">
<path d="M40 86.4C40 67.3582 40 57.8373 43.7058 50.5643C46.9655 44.1668 52.1668 38.9655 58.5643 35.7058C65.8373 32 75.3582 32 94.4 32H340.6C359.642 32 369.163 32 376.436 35.7058C382.833 38.9655 388.035 44.1668 391.294 50.5643C395 57.8373 395 67.3582 395 86.4V215.6C395 234.642 395 244.163 391.294 251.436C388.035 257.833 382.833 263.035 376.436 266.294C369.163 270 359.642 270 340.6 270H94.4C75.3582 270 65.8373 270 58.5643 266.294C52.1668 263.035 46.9655 257.833 43.7058 251.436C40 244.163 40 234.642 40 215.6V86.4Z" fill="white" style="mix-blend-mode:color-dodge" shape-rendering="crispEdges"/>
<path d="M40 86.4C40 67.3582 40 57.8373 43.7058 50.5643C46.9655 44.1668 52.1668 38.9655 58.5643 35.7058C65.8373 32 75.3582 32 94.4 32H340.6C359.642 32 369.163 32 376.436 35.7058C382.833 38.9655 388.035 44.1668 391.294 50.5643C395 57.8373 395 67.3582 395 86.4V215.6C395 234.642 395 244.163 391.294 251.436C388.035 257.833 382.833 263.035 376.436 266.294C369.163 270 359.642 270 340.6 270H94.4C75.3582 270 65.8373 270 58.5643 266.294C52.1668 263.035 46.9655 257.833 43.7058 251.436C40 244.163 40 234.642 40 215.6V86.4Z" fill="#F5F5F5" fill-opacity="0.6" shape-rendering="crispEdges"/>
</g>
<path d="M40 86.4C40 67.3582 40 57.8373 43.7058 50.5643C46.9655 44.1668 52.1668 38.9655 58.5643 35.7058C65.8373 32 75.3582 32 94.4 32H340.6C359.642 32 369.163 32 376.436 35.7058C382.833 38.9655 388.035 44.1668 391.294 50.5643C395 57.8373 395 67.3582 395 86.4V215.6C395 234.642 395 244.163 391.294 251.436C388.035 257.833 382.833 263.035 376.436 266.294C369.163 270 359.642 270 340.6 270H94.4C75.3582 270 65.8373 270 58.5643 266.294C52.1668 263.035 46.9655 257.833 43.7058 251.436C40 244.163 40 234.642 40 215.6V86.4Z" fill="black" fill-opacity="0.01"/>
<path d="M68.5576 71.2988C67.4232 71.2988 66.4437 71.0443 65.6191 70.5352C64.8001 70.026 64.1665 69.3039 63.7183 68.3687C63.2756 67.4279 63.0542 66.3128 63.0542 65.0234V65.0068C63.0542 63.7119 63.2756 62.5968 63.7183 61.6616C64.1665 60.7209 64.8001 59.9959 65.6191 59.4868C66.4382 58.9777 67.4149 58.7231 68.5493 58.7231C69.4569 58.7231 70.2759 58.903 71.0063 59.2627C71.7368 59.6169 72.3317 60.1094 72.791 60.7402C73.2503 61.3656 73.527 62.085 73.6211 62.8984L73.6128 62.9648H71.521L71.5127 62.9233C71.4131 62.453 71.2249 62.0435 70.9482 61.6948C70.6715 61.3407 70.3285 61.0667 69.9189 60.873C69.5094 60.6738 69.0529 60.5742 68.5493 60.5742C67.8742 60.5742 67.2876 60.7541 66.7896 61.1138C66.2915 61.4735 65.9069 61.9854 65.6357 62.6494C65.3701 63.3079 65.2373 64.091 65.2373 64.9985V65.0151C65.2373 65.9227 65.3701 66.7085 65.6357 67.3726C65.9069 68.0366 66.2915 68.5485 66.7896 68.9082C67.2876 69.2679 67.877 69.4478 68.5576 69.4478C69.0667 69.4478 69.5233 69.3592 69.9272 69.1821C70.3368 69.005 70.6771 68.756 70.9482 68.4351C71.2249 68.1086 71.4131 67.7267 71.5127 67.2896L71.5293 67.2397H73.6211V67.3062C73.516 68.103 73.2365 68.8003 72.7827 69.3979C72.3289 69.9956 71.7424 70.4632 71.0229 70.8008C70.3035 71.1328 69.4818 71.2988 68.5576 71.2988ZM79.4499 71.1826C78.5479 71.1826 77.7704 70.9945 77.1174 70.6182C76.4644 70.2363 75.9608 69.694 75.6066 68.9912C75.258 68.2884 75.0837 67.4473 75.0837 66.4678V66.4512C75.0837 65.4827 75.2608 64.6471 75.6149 63.9443C75.9691 63.236 76.4699 62.6937 77.1174 62.3174C77.7704 61.9411 78.5479 61.7529 79.4499 61.7529C80.3519 61.7529 81.1266 61.9411 81.7741 62.3174C82.4271 62.6937 82.9307 63.2332 83.2848 63.936C83.639 64.6388 83.8161 65.4772 83.8161 66.4512V66.4678C83.8161 67.4473 83.639 68.2884 83.2848 68.9912C82.9362 69.694 82.4354 70.2363 81.7824 70.6182C81.1349 70.9945 80.3574 71.1826 79.4499 71.1826ZM79.4499 69.5059C79.9258 69.5059 80.3298 69.3869 80.6618 69.1489C80.9994 68.9054 81.2567 68.5596 81.4338 68.1113C81.6109 67.6576 81.6994 67.1125 81.6994 66.4761V66.4595C81.6994 65.8175 81.6109 65.2725 81.4338 64.8242C81.2567 64.3704 80.9994 64.0246 80.6618 63.7866C80.3298 63.5431 79.9258 63.4214 79.4499 63.4214C78.974 63.4214 78.5672 63.5431 78.2297 63.7866C77.8921 64.0246 77.6348 64.3704 77.4577 64.8242C77.2806 65.2725 77.1921 65.8175 77.1921 66.4595V66.4761C77.1921 67.1125 77.2806 67.6576 77.4577 68.1113C77.6348 68.5651 77.8893 68.911 78.2214 69.1489C78.5589 69.3869 78.9684 69.5059 79.4499 69.5059ZM88.8895 71.1909C88.2033 71.1909 87.578 71.0885 87.0135 70.8838C86.4491 70.679 85.987 70.3774 85.6273 69.979C85.2731 69.5806 85.0629 69.0881 84.9964 68.5015L84.9881 68.4268H86.9969L87.0135 68.4849C87.1076 68.8335 87.3179 69.1047 87.6444 69.2983C87.9709 69.492 88.3776 69.5889 88.8646 69.5889C89.4291 69.5889 89.869 69.4699 90.1844 69.2319C90.4999 68.994 90.6576 68.6896 90.6576 68.3188V68.3022C90.6576 67.8983 90.5026 67.5967 90.1927 67.3975C89.8884 67.1927 89.4429 67.0903 88.8563 67.0903H87.5531V65.6958H88.848C89.3737 65.6958 89.7639 65.5934 90.0184 65.3887C90.273 65.1784 90.4003 64.8879 90.4003 64.5171V64.5005C90.4003 64.1685 90.273 63.8945 90.0184 63.6787C89.7694 63.4574 89.3876 63.3467 88.8729 63.3467C88.4081 63.3467 88.0262 63.4435 87.7274 63.6372C87.4341 63.8309 87.257 64.0938 87.1962 64.4258L87.1879 64.4673H85.2289L85.2372 64.4009C85.3091 63.8696 85.4945 63.4048 85.7933 63.0063C86.0977 62.6079 86.5127 62.298 87.0384 62.0767C87.5642 61.8553 88.1978 61.7446 88.9393 61.7446C89.6587 61.7446 90.2757 61.847 90.7904 62.0518C91.3106 62.2565 91.709 62.547 91.9857 62.9233C92.2679 63.2996 92.409 63.7424 92.409 64.2515V64.2681C92.409 64.744 92.2679 65.1562 91.9857 65.5049C91.7035 65.848 91.3189 66.0749 90.8319 66.1855V66.3267C91.2525 66.4097 91.6011 66.5425 91.8778 66.7251C92.16 66.9077 92.3675 67.1346 92.5004 67.4058C92.6387 67.6769 92.7079 67.9813 92.7079 68.3188V68.3354C92.7079 68.8944 92.5502 69.3896 92.2347 69.8213C91.9248 70.2474 91.4849 70.5822 90.9149 70.8257C90.3449 71.0692 89.6698 71.1909 88.8895 71.1909ZM95.3409 73.3657H93.4483V69.3813H94.1621C94.4942 69.1877 94.7404 68.8446 94.9009 68.3521C95.0614 67.854 95.161 67.3006 95.1997 66.6919L95.5152 61.9272H102.338V69.3813H103.733V73.3657H101.849V71H95.3409V73.3657ZM100.272 69.3813V63.5459H97.2832L97.0425 66.7998C97.0093 67.2979 96.9374 67.7599 96.8267 68.186C96.716 68.6066 96.5638 68.958 96.3702 69.2402V69.3813H100.272ZM107.545 71.1494C106.975 71.1494 106.463 71.0387 106.009 70.8174C105.561 70.596 105.207 70.2834 104.947 69.8794C104.692 69.4699 104.565 68.9884 104.565 68.4351V68.4185C104.565 67.8817 104.697 67.4196 104.963 67.0322C105.229 66.6393 105.619 66.3322 106.134 66.1108C106.648 65.8895 107.273 65.7594 108.009 65.7207L111.363 65.5132V66.8745L108.3 67.0737C107.719 67.1069 107.29 67.2287 107.013 67.439C106.737 67.6493 106.598 67.9425 106.598 68.3188V68.3354C106.598 68.7228 106.745 69.0244 107.038 69.2402C107.337 69.4561 107.716 69.564 108.176 69.564C108.591 69.564 108.961 69.481 109.288 69.3149C109.614 69.1489 109.872 68.9248 110.06 68.6426C110.248 68.3548 110.342 68.0311 110.342 67.6714V64.7993C110.342 64.3455 110.198 63.9997 109.91 63.7617C109.623 63.5182 109.197 63.3965 108.632 63.3965C108.162 63.3965 107.777 63.4795 107.478 63.6455C107.179 63.806 106.977 64.0356 106.872 64.3345L106.864 64.3677H104.913L104.922 64.293C104.988 63.7839 105.187 63.3384 105.519 62.9565C105.851 62.5747 106.291 62.2786 106.839 62.0684C107.387 61.8581 108.018 61.7529 108.732 61.7529C109.517 61.7529 110.182 61.8747 110.724 62.1182C111.266 62.3561 111.678 62.7048 111.961 63.1641C112.243 63.6178 112.384 64.1629 112.384 64.7993V71H110.342V69.7549H110.201C110.035 70.0426 109.819 70.2917 109.553 70.502C109.293 70.7122 108.995 70.8727 108.657 70.9834C108.319 71.0941 107.949 71.1494 107.545 71.1494ZM114.594 71V61.9272H116.636V68.0034H117.706L116.295 68.8003L120.628 61.9272H122.662V71H120.628V64.8906H119.558L120.952 64.0854L116.636 71H114.594ZM118.636 60.6904C118.027 60.6904 117.493 60.5687 117.034 60.3252C116.58 60.0817 116.226 59.7469 115.972 59.3208C115.717 58.8947 115.59 58.4077 115.59 57.8599H117.217C117.222 58.3081 117.352 58.6927 117.607 59.0137C117.861 59.3291 118.204 59.4868 118.636 59.4868C119.079 59.4868 119.425 59.3291 119.674 59.0137C119.923 58.6927 120.05 58.3081 120.056 57.8599H121.683C121.683 58.4077 121.555 58.8947 121.301 59.3208C121.046 59.7469 120.689 60.0817 120.23 60.3252C119.776 60.5687 119.245 60.6904 118.636 60.6904ZM133.971 71V67.9453H132.792L130.667 71H128.31L130.742 67.605C130.122 67.4224 129.635 67.1014 129.281 66.6421C128.927 66.1828 128.75 65.6432 128.75 65.0234V65.0068C128.75 64.376 128.896 63.8309 129.19 63.3716C129.483 62.9123 129.893 62.5581 130.418 62.3091C130.944 62.0545 131.558 61.9272 132.261 61.9272H136.005V71H133.971ZM132.419 66.4263H133.971V63.5127H132.419C131.921 63.5127 131.528 63.6483 131.24 63.9194C130.952 64.1851 130.808 64.5448 130.808 64.9985V65.0151C130.808 65.4246 130.952 65.7622 131.24 66.0278C131.528 66.2935 131.921 66.4263 132.419 66.4263ZM138.264 74.0132V61.9272H140.331V63.3467H140.472C140.638 63.0202 140.854 62.7407 141.12 62.5083C141.391 62.2759 141.703 62.096 142.058 61.9688C142.412 61.8415 142.802 61.7778 143.228 61.7778C143.986 61.7778 144.642 61.9688 145.195 62.3506C145.754 62.7324 146.186 63.2747 146.49 63.9775C146.8 64.6748 146.955 65.5021 146.955 66.4595V66.4761C146.955 67.439 146.803 68.269 146.498 68.9663C146.194 69.6636 145.762 70.2031 145.204 70.585C144.65 70.9613 143.992 71.1494 143.228 71.1494C142.813 71.1494 142.426 71.0858 142.066 70.9585C141.706 70.8257 141.391 70.6403 141.12 70.4023C140.848 70.1644 140.633 69.8822 140.472 69.5557H140.331V74.0132H138.264ZM142.581 69.4062C143.051 69.4062 143.455 69.29 143.792 69.0576C144.13 68.8197 144.39 68.4821 144.573 68.0449C144.755 67.6022 144.847 67.0793 144.847 66.4761V66.4595C144.847 65.8452 144.755 65.3195 144.573 64.8823C144.39 64.4451 144.13 64.1104 143.792 63.8779C143.455 63.64 143.051 63.521 142.581 63.521C142.11 63.521 141.703 63.64 141.36 63.8779C141.023 64.1104 140.76 64.4451 140.572 64.8823C140.389 65.3195 140.298 65.8424 140.298 66.4512V66.4678C140.298 67.0765 140.389 67.6022 140.572 68.0449C140.76 68.4821 141.025 68.8197 141.369 69.0576C141.712 69.29 142.116 69.4062 142.581 69.4062ZM151.348 67.0737C151.292 67.9425 151.16 68.6758 150.949 69.2734C150.745 69.8711 150.443 70.3221 150.045 70.6265C149.652 70.9308 149.145 71.083 148.526 71.083C148.343 71.083 148.185 71.0719 148.052 71.0498C147.92 71.0277 147.82 71.0055 147.754 70.9834V69.207C147.803 69.2181 147.878 69.2319 147.978 69.2485C148.077 69.2596 148.185 69.2651 148.301 69.2651C148.578 69.2651 148.799 69.16 148.965 68.9497C149.131 68.7339 149.256 68.4489 149.339 68.0947C149.422 67.7406 149.477 67.3449 149.505 66.9077L149.82 61.9272H156.328V71H154.261V63.5293H151.613L151.348 67.0737ZM158.579 71V61.9272H160.646V64.6665H162.431C163.493 64.6665 164.337 64.9543 164.963 65.5298C165.594 66.0998 165.909 66.8662 165.909 67.8291V67.8457C165.909 68.8086 165.594 69.575 164.963 70.145C164.337 70.715 163.493 71 162.431 71H158.579ZM162.165 66.2603H160.646V69.4062H162.165C162.674 69.4062 163.078 69.2624 163.377 68.9746C163.676 68.6813 163.825 68.3022 163.825 67.8374V67.8208C163.825 67.3504 163.676 66.9741 163.377 66.6919C163.078 66.4041 162.674 66.2603 162.165 66.2603ZM167.395 71V61.9272H169.462V71H167.395ZM174.245 67.082H173.78V71H171.713V61.9272H173.78V65.5713H174.22L177.216 61.9272H179.59L175.78 66.2852V65.9531L179.765 71H177.266L174.245 67.082ZM191.173 71V67.1235H187.347V71H185.28V61.9272H187.347V65.5215H191.173V61.9272H193.24V71H191.173ZM197.973 71.1494C197.403 71.1494 196.891 71.0387 196.438 70.8174C195.989 70.596 195.635 70.2834 195.375 69.8794C195.12 69.4699 194.993 68.9884 194.993 68.4351V68.4185C194.993 67.8817 195.126 67.4196 195.392 67.0322C195.657 66.6393 196.047 66.3322 196.562 66.1108C197.077 65.8895 197.702 65.7594 198.438 65.7207L201.792 65.5132V66.8745L198.729 67.0737C198.147 67.1069 197.719 67.2287 197.442 67.439C197.165 67.6493 197.027 67.9425 197.027 68.3188V68.3354C197.027 68.7228 197.174 69.0244 197.467 69.2402C197.766 69.4561 198.145 69.564 198.604 69.564C199.019 69.564 199.39 69.481 199.716 69.3149C200.043 69.1489 200.3 68.9248 200.488 68.6426C200.676 68.3548 200.771 68.0311 200.771 67.6714V64.7993C200.771 64.3455 200.627 63.9997 200.339 63.7617C200.051 63.5182 199.625 63.3965 199.061 63.3965C198.59 63.3965 198.206 63.4795 197.907 63.6455C197.608 63.806 197.406 64.0356 197.301 64.3345L197.292 64.3677H195.342L195.35 64.293C195.417 63.7839 195.616 63.3384 195.948 62.9565C196.28 62.5747 196.72 62.2786 197.268 62.0684C197.815 61.8581 198.446 61.7529 199.16 61.7529C199.946 61.7529 200.61 61.8747 201.152 62.1182C201.695 62.3561 202.107 62.7048 202.389 63.1641C202.671 63.6178 202.813 64.1629 202.813 64.7993V71H200.771V69.7549H200.629C200.463 70.0426 200.248 70.2917 199.982 70.502C199.722 70.7122 199.423 70.8727 199.085 70.9834C198.748 71.0941 198.377 71.1494 197.973 71.1494ZM212.528 71.1909C211.764 71.1909 211.094 71.0609 210.519 70.8008C209.949 70.5352 209.492 70.1727 209.149 69.7134C208.812 69.2485 208.61 68.7145 208.543 68.1113V68.0532H210.502L210.519 68.1113C210.635 68.5596 210.87 68.9054 211.224 69.1489C211.579 69.3924 212.016 69.5142 212.536 69.5142C212.984 69.5142 213.377 69.4035 213.715 69.1821C214.052 68.9608 214.315 68.6509 214.503 68.2524C214.697 67.8485 214.799 67.3809 214.81 66.8496L214.786 65.8286C214.763 65.3306 214.653 64.9017 214.453 64.542C214.26 64.1823 213.997 63.9056 213.665 63.7119C213.333 63.5127 212.957 63.4131 212.536 63.4131C212.182 63.4131 211.866 63.474 211.59 63.5957C211.313 63.7174 211.086 63.8835 210.909 64.0938C210.732 64.2985 210.607 64.5337 210.536 64.7993L210.511 64.8989H208.543L208.56 64.7827C208.632 64.2017 208.837 63.6842 209.174 63.2305C209.517 62.7712 209.974 62.4087 210.544 62.1431C211.119 61.8774 211.786 61.7446 212.544 61.7446C213.43 61.7446 214.196 61.9355 214.844 62.3174C215.497 62.6992 216.003 63.2415 216.363 63.9443C216.722 64.6471 216.902 65.4772 216.902 66.4346V66.4512C216.902 67.4196 216.722 68.2607 216.363 68.9746C216.003 69.6829 215.497 70.2308 214.844 70.6182C214.191 71 213.419 71.1909 212.528 71.1909ZM215.807 67.0654H211.141V65.6211H215.798L215.807 67.0654ZM221.237 67.082H220.772V71H218.705V61.9272H220.772V65.5713H221.212L224.209 61.9272H226.583L222.773 66.2852V65.9531L226.757 71H224.258L221.237 67.082ZM228.178 74.0132V61.9272H230.245V63.3467H230.386C230.552 63.0202 230.768 62.7407 231.033 62.5083C231.305 62.2759 231.617 62.096 231.971 61.9688C232.326 61.8415 232.716 61.7778 233.142 61.7778C233.9 61.7778 234.556 61.9688 235.109 62.3506C235.668 62.7324 236.1 63.2747 236.404 63.9775C236.714 64.6748 236.869 65.5021 236.869 66.4595V66.4761C236.869 67.439 236.717 68.269 236.412 68.9663C236.108 69.6636 235.676 70.2031 235.117 70.585C234.564 70.9613 233.906 71.1494 233.142 71.1494C232.727 71.1494 232.339 71.0858 231.98 70.9585C231.62 70.8257 231.305 70.6403 231.033 70.4023C230.762 70.1644 230.546 69.8822 230.386 69.5557H230.245V74.0132H228.178ZM232.494 69.4062C232.965 69.4062 233.369 69.29 233.706 69.0576C234.044 68.8197 234.304 68.4821 234.487 68.0449C234.669 67.6022 234.76 67.0793 234.76 66.4761V66.4595C234.76 65.8452 234.669 65.3195 234.487 64.8823C234.304 64.4451 234.044 64.1104 233.706 63.8779C233.369 63.64 232.965 63.521 232.494 63.521C232.024 63.521 231.617 63.64 231.274 63.8779C230.937 64.1104 230.674 64.4451 230.486 64.8823C230.303 65.3195 230.212 65.8424 230.212 66.4512V66.4678C230.212 67.0765 230.303 67.6022 230.486 68.0449C230.674 68.4821 230.939 68.8197 231.282 69.0576C231.626 69.29 232.03 69.4062 232.494 69.4062ZM241.162 71.1494C240.592 71.1494 240.08 71.0387 239.626 70.8174C239.178 70.596 238.824 70.2834 238.564 69.8794C238.309 69.4699 238.182 68.9884 238.182 68.4351V68.4185C238.182 67.8817 238.315 67.4196 238.58 67.0322C238.846 66.6393 239.236 66.3322 239.751 66.1108C240.266 65.8895 240.891 65.7594 241.627 65.7207L244.98 65.5132V66.8745L241.917 67.0737C241.336 67.1069 240.907 67.2287 240.631 67.439C240.354 67.6493 240.216 67.9425 240.216 68.3188V68.3354C240.216 68.7228 240.362 69.0244 240.656 69.2402C240.955 69.4561 241.334 69.564 241.793 69.564C242.208 69.564 242.579 69.481 242.905 69.3149C243.232 69.1489 243.489 68.9248 243.677 68.6426C243.865 68.3548 243.959 68.0311 243.959 67.6714V64.7993C243.959 64.3455 243.816 63.9997 243.528 63.7617C243.24 63.5182 242.814 63.3965 242.249 63.3965C241.779 63.3965 241.394 63.4795 241.096 63.6455C240.797 63.806 240.595 64.0356 240.49 64.3345L240.481 64.3677H238.531L238.539 64.293C238.605 63.7839 238.805 63.3384 239.137 62.9565C239.469 62.5747 239.909 62.2786 240.456 62.0684C241.004 61.8581 241.635 61.7529 242.349 61.7529C243.135 61.7529 243.799 61.8747 244.341 62.1182C244.884 62.3561 245.296 62.7048 245.578 63.1641C245.86 63.6178 246.001 64.1629 246.001 64.7993V71H243.959V69.7549H243.818C243.652 70.0426 243.436 70.2917 243.171 70.502C242.911 70.7122 242.612 70.8727 242.274 70.9834C241.937 71.0941 241.566 71.1494 241.162 71.1494ZM254.105 71V67.1235H250.278V71H248.211V61.9272H250.278V65.5215H254.105V61.9272H256.171V71H254.105ZM262.316 71.1826C261.414 71.1826 260.639 70.9917 259.991 70.6099C259.35 70.228 258.854 69.6857 258.506 68.9829C258.157 68.2801 257.983 67.4473 257.983 66.4844V66.4761C257.983 65.5243 258.154 64.6942 258.497 63.9858C258.846 63.2775 259.338 62.7297 259.975 62.3423C260.611 61.9494 261.358 61.7529 262.216 61.7529C263.079 61.7529 263.821 61.9438 264.441 62.3257C265.066 62.702 265.547 63.2305 265.885 63.9111C266.223 64.5918 266.391 65.3887 266.391 66.3018V66.9824H259.02V65.5962H265.379L264.399 66.8911V66.0693C264.399 65.4661 264.308 64.9653 264.125 64.5669C263.943 64.1685 263.688 63.8696 263.362 63.6704C263.041 63.4712 262.667 63.3716 262.241 63.3716C261.815 63.3716 261.436 63.4767 261.104 63.687C260.777 63.8918 260.517 64.1961 260.324 64.6001C260.135 64.9985 260.041 65.4883 260.041 66.0693V66.8994C260.041 67.4583 260.135 67.937 260.324 68.3354C260.512 68.7284 260.777 69.0327 261.12 69.2485C261.469 69.4588 261.881 69.564 262.357 69.564C262.728 69.564 263.046 69.5114 263.312 69.4062C263.583 69.2956 263.802 69.1655 263.968 69.0161C264.134 68.8612 264.25 68.7145 264.316 68.5762L264.341 68.5181H266.3L266.283 68.5928C266.212 68.8861 266.079 69.1849 265.885 69.4893C265.697 69.7881 265.44 70.0675 265.113 70.3276C264.792 70.5822 264.399 70.7897 263.934 70.9502C263.47 71.1051 262.93 71.1826 262.316 71.1826Z" fill="black"/>
<path d="M70.6826 103V97.7871H70.5498C70.3285 97.9421 70.0684 98.0776 69.7695 98.1938C69.4762 98.3045 69.1553 98.3931 68.8066 98.4595C68.458 98.5203 68.0845 98.5508 67.686 98.5508C66.6789 98.5508 65.835 98.3543 65.1543 97.9614C64.4792 97.5685 63.9701 97.04 63.627 96.376C63.2839 95.7064 63.1123 94.9648 63.1123 94.1514V91.022H64.6064V94.1597C64.6064 94.7739 64.7227 95.3079 64.9551 95.7617C65.193 96.21 65.5417 96.5586 66.001 96.8076C66.4603 97.0511 67.022 97.1729 67.686 97.1729C68.1177 97.1729 68.5189 97.1341 68.8896 97.0566C69.266 96.9792 69.6035 96.8685 69.9023 96.7246C70.2067 96.5752 70.4668 96.4036 70.6826 96.21V91.022H72.1768V103H70.6826ZM81.2595 94.0518V95.2471H78.3625V103H76.9181V95.2471H74.0212V94.0518H81.2595ZM86.2665 103.158C85.4198 103.158 84.6865 102.972 84.0668 102.602C83.4525 102.225 82.9766 101.691 82.639 101C82.307 100.308 82.141 99.486 82.141 98.5342V98.5176C82.141 97.5602 82.307 96.7357 82.639 96.0439C82.9766 95.3522 83.4525 94.821 84.0668 94.4502C84.6865 94.0794 85.4198 93.894 86.2665 93.894C87.1187 93.894 87.8519 94.0794 88.4662 94.4502C89.0804 94.821 89.5536 95.3522 89.8856 96.0439C90.2232 96.7357 90.392 97.5602 90.392 98.5176V98.5342C90.392 99.486 90.2232 100.308 89.8856 101C89.5536 101.691 89.0804 102.225 88.4662 102.602C87.8519 102.972 87.1187 103.158 86.2665 103.158ZM86.2665 101.879C86.8309 101.879 87.3096 101.747 87.7025 101.481C88.0954 101.215 88.3942 100.833 88.599 100.335C88.8093 99.8374 88.9144 99.237 88.9144 98.5342V98.5176C88.9144 97.8092 88.8093 97.2061 88.599 96.708C88.3942 96.21 88.0954 95.8309 87.7025 95.5708C87.3096 95.3052 86.8309 95.1724 86.2665 95.1724C85.702 95.1724 85.2233 95.3052 84.8304 95.5708C84.4375 95.8309 84.1359 96.21 83.9256 96.708C83.7209 97.2061 83.6185 97.8092 83.6185 98.5176V98.5342C83.6185 99.237 83.7209 99.8374 83.9256 100.335C84.1359 100.833 84.4375 101.215 84.8304 101.481C85.2233 101.747 85.702 101.879 86.2665 101.879ZM96.0879 103.166C95.1748 103.166 94.4084 102.961 93.7886 102.552C93.1688 102.137 92.7012 101.525 92.3858 100.717C92.0759 99.9093 91.9209 98.9077 91.9209 97.7124V97.6958C91.9209 96.506 92.0067 95.485 92.1783 94.6328C92.3498 93.7751 92.6154 93.0695 92.9751 92.5161C93.3404 91.9572 93.808 91.5366 94.378 91.2544C94.9535 90.9722 95.6397 90.8117 96.4366 90.7729L97.333 90.7314C97.6927 90.7148 98.0746 90.6706 98.4786 90.5986C98.8825 90.5212 99.2782 90.4049 99.6656 90.25V91.5283C99.5272 91.6611 99.245 91.7773 98.8189 91.877C98.3928 91.971 97.9196 92.0319 97.3995 92.0596L96.4864 92.1011C95.7946 92.1287 95.2219 92.2643 94.7681 92.5078C94.3199 92.7513 93.9685 93.1248 93.7139 93.6284C93.4593 94.132 93.2767 94.7905 93.1661 95.604L93.1412 95.7866H93.274C93.4787 95.4269 93.7305 95.1253 94.0293 94.8818C94.3282 94.6383 94.6685 94.453 95.0503 94.3257C95.4377 94.1984 95.8555 94.1348 96.3037 94.1348C97.1062 94.1348 97.8034 94.3174 98.3955 94.6826C98.9877 95.0423 99.4442 95.5514 99.7652 96.21C100.092 96.8685 100.255 97.6488 100.255 98.5508V98.5674C100.255 99.5137 100.086 100.333 99.7486 101.024C99.4165 101.711 98.9379 102.239 98.3125 102.61C97.6927 102.981 96.9512 103.166 96.0879 103.166ZM96.0879 101.888C96.6579 101.888 97.1421 101.758 97.5406 101.498C97.9445 101.232 98.2517 100.853 98.462 100.36C98.6722 99.8623 98.7774 99.2646 98.7774 98.5674V98.5508C98.7774 97.8812 98.6722 97.314 98.462 96.8491C98.2517 96.3843 97.9445 96.0301 97.5406 95.7866C97.1421 95.5376 96.6579 95.4131 96.0879 95.4131C95.5179 95.4131 95.031 95.5376 94.627 95.7866C94.2286 96.0301 93.9242 96.3843 93.7139 96.8491C93.5036 97.314 93.3985 97.8812 93.3985 98.5508V98.5674C93.3985 99.2646 93.5036 99.8623 93.7139 100.36C93.9242 100.853 94.2286 101.232 94.627 101.498C95.031 101.758 95.5179 101.888 96.0879 101.888ZM102.224 103V94.0518H103.668V96.9238H105.42C106.443 96.9238 107.26 97.1978 107.868 97.7456C108.477 98.2935 108.781 99.0295 108.781 99.9536V99.9702C108.781 100.894 108.477 101.63 107.868 102.178C107.26 102.726 106.443 103 105.42 103H102.224ZM105.42 98.1191H103.668V101.805H105.42C106.012 101.805 106.479 101.639 106.822 101.307C107.166 100.969 107.337 100.524 107.337 99.9702V99.9536C107.337 99.3947 107.163 98.9492 106.814 98.6172C106.471 98.2852 106.006 98.1191 105.42 98.1191ZM110.342 103V94.0518H111.786V103H110.342ZM121.593 103.166C120.956 103.166 120.381 103.066 119.866 102.867C119.357 102.668 118.942 102.391 118.621 102.037C118.3 101.677 118.109 101.257 118.048 100.775L118.04 100.709H119.509L119.526 100.775C119.62 101.141 119.852 101.431 120.223 101.647C120.594 101.863 121.051 101.971 121.593 101.971C122.251 101.971 122.766 101.827 123.137 101.539C123.508 101.251 123.693 100.886 123.693 100.443V100.427C123.693 99.9398 123.513 99.5828 123.153 99.356C122.799 99.1235 122.279 99.0073 121.593 99.0073H120.198V97.812H121.593C122.168 97.812 122.608 97.6986 122.913 97.4717C123.223 97.2393 123.378 96.8906 123.378 96.4258V96.4092C123.378 96.0273 123.231 95.7119 122.938 95.4629C122.65 95.2083 122.218 95.0811 121.643 95.0811C121.134 95.0811 120.702 95.1862 120.348 95.3965C119.994 95.6068 119.781 95.8918 119.709 96.2515L119.7 96.293H118.289L118.297 96.2349C118.369 95.7534 118.552 95.3384 118.845 94.9897C119.144 94.6356 119.531 94.3644 120.007 94.1763C120.489 93.9826 121.034 93.8857 121.643 93.8857C122.312 93.8857 122.879 93.9881 123.344 94.1929C123.815 94.3976 124.172 94.6826 124.415 95.0479C124.664 95.4076 124.789 95.8254 124.789 96.3013V96.3179C124.789 96.7716 124.653 97.1812 124.382 97.5464C124.111 97.9116 123.754 98.1468 123.311 98.252V98.3848C123.704 98.4678 124.033 98.6006 124.299 98.7832C124.57 98.9658 124.772 99.1899 124.905 99.4556C125.043 99.7212 125.112 100.02 125.112 100.352V100.369C125.112 100.922 124.963 101.409 124.664 101.83C124.371 102.25 123.959 102.579 123.427 102.817C122.902 103.05 122.29 103.166 121.593 103.166ZM129.547 103.158C128.982 103.158 128.473 103.05 128.019 102.834C127.571 102.618 127.214 102.311 126.948 101.913C126.688 101.514 126.558 101.044 126.558 100.501V100.485C126.558 99.9536 126.686 99.4998 126.94 99.1235C127.195 98.7417 127.566 98.4429 128.053 98.2271C128.539 98.0112 129.129 97.884 129.821 97.8452L133.108 97.646V98.7998L129.995 98.999C129.314 99.0378 128.816 99.1789 128.501 99.4224C128.191 99.6659 128.036 100.009 128.036 100.452V100.468C128.036 100.922 128.207 101.276 128.551 101.531C128.894 101.78 129.325 101.904 129.845 101.904C130.338 101.904 130.775 101.807 131.157 101.614C131.539 101.415 131.838 101.146 132.053 100.809C132.275 100.471 132.386 100.089 132.386 99.6631V96.874C132.386 96.3206 132.217 95.9001 131.879 95.6123C131.547 95.319 131.046 95.1724 130.377 95.1724C129.84 95.1724 129.4 95.2692 129.057 95.4629C128.714 95.651 128.484 95.9194 128.368 96.2681L128.36 96.293H126.915L126.924 96.2432C127.001 95.7728 127.195 95.3633 127.505 95.0146C127.82 94.6605 128.227 94.3866 128.725 94.1929C129.223 93.9937 129.79 93.894 130.427 93.894C131.157 93.894 131.774 94.013 132.278 94.251C132.787 94.4889 133.171 94.832 133.431 95.2803C133.697 95.723 133.83 96.2542 133.83 96.874V103H132.386V101.68H132.253C132.065 101.996 131.835 102.264 131.564 102.485C131.298 102.707 130.997 102.875 130.659 102.992C130.321 103.102 129.951 103.158 129.547 103.158ZM136.197 103V94.0518H143.435V103H141.991V95.2471H137.642V103H136.197ZM146.616 106.138C146.522 106.138 146.417 106.132 146.301 106.121C146.185 106.116 146.077 106.104 145.977 106.088V104.901C146.066 104.917 146.163 104.929 146.268 104.934C146.373 104.94 146.475 104.942 146.575 104.942C146.984 104.942 147.319 104.837 147.579 104.627C147.845 104.417 148.058 104.054 148.218 103.54L148.384 103.008L145.072 94.0518H146.616L149.372 102.319L148.799 101.415H149.48L148.907 102.319L151.655 94.0518H153.174L149.679 103.548C149.436 104.217 149.178 104.74 148.907 105.117C148.636 105.493 148.318 105.756 147.953 105.905C147.593 106.06 147.148 106.138 146.616 106.138ZM158.148 103.158C157.312 103.158 156.587 102.967 155.973 102.585C155.359 102.203 154.883 101.664 154.545 100.966C154.208 100.269 154.039 99.4473 154.039 98.501V98.4844C154.039 97.5547 154.205 96.7467 154.537 96.0605C154.874 95.3743 155.35 94.8431 155.965 94.4668C156.579 94.085 157.304 93.894 158.139 93.894C158.864 93.894 159.49 94.0213 160.015 94.2759C160.541 94.5304 160.962 94.8735 161.277 95.3052C161.593 95.7313 161.795 96.21 161.883 96.7412L161.891 96.791H160.455L160.447 96.7661C160.336 96.3234 160.085 95.9471 159.692 95.6372C159.299 95.3273 158.781 95.1724 158.139 95.1724C157.603 95.1724 157.138 95.3079 156.745 95.5791C156.352 95.8503 156.048 96.2349 155.832 96.7329C155.622 97.2254 155.516 97.8092 155.516 98.4844V98.501C155.516 99.1872 155.624 99.7848 155.84 100.294C156.056 100.798 156.36 101.188 156.753 101.464C157.146 101.741 157.608 101.879 158.139 101.879C158.743 101.879 159.235 101.749 159.617 101.489C159.999 101.229 160.273 100.85 160.439 100.352L160.455 100.302L161.883 100.294L161.867 100.385C161.745 100.922 161.529 101.401 161.219 101.821C160.909 102.236 160.5 102.563 159.991 102.801C159.481 103.039 158.867 103.158 158.148 103.158ZM165.628 98.9243H165.172V103H163.728V94.0518H165.172V97.7954H165.628L169.09 94.0518H170.825L166.683 98.3931V98.1357L170.982 103H169.131L165.628 98.9243ZM174.761 103.158C174.196 103.158 173.687 103.05 173.234 102.834C172.785 102.618 172.428 102.311 172.163 101.913C171.903 101.514 171.773 101.044 171.773 100.501V100.485C171.773 99.9536 171.9 99.4998 172.154 99.1235C172.409 98.7417 172.78 98.4429 173.267 98.2271C173.754 98.0112 174.343 97.884 175.035 97.8452L178.322 97.646V98.7998L175.209 98.999C174.528 99.0378 174.03 99.1789 173.715 99.4224C173.405 99.6659 173.25 100.009 173.25 100.452V100.468C173.25 100.922 173.422 101.276 173.765 101.531C174.108 101.78 174.54 101.904 175.06 101.904C175.552 101.904 175.989 101.807 176.371 101.614C176.753 101.415 177.052 101.146 177.268 100.809C177.489 100.471 177.6 100.089 177.6 99.6631V96.874C177.6 96.3206 177.431 95.9001 177.093 95.6123C176.761 95.319 176.261 95.1724 175.591 95.1724C175.054 95.1724 174.614 95.2692 174.271 95.4629C173.928 95.651 173.698 95.9194 173.582 96.2681L173.574 96.293H172.13L172.138 96.2432C172.215 95.7728 172.409 95.3633 172.719 95.0146C173.034 94.6605 173.441 94.3866 173.939 94.1929C174.437 93.9937 175.004 93.894 175.641 93.894C176.371 93.894 176.988 94.013 177.492 94.251C178.001 94.4889 178.386 94.832 178.646 95.2803C178.911 95.723 179.044 96.2542 179.044 96.874V103H177.6V101.68H177.467C177.279 101.996 177.049 102.264 176.778 102.485C176.512 102.707 176.211 102.875 175.873 102.992C175.536 103.102 175.165 103.158 174.761 103.158ZM187.894 94.0518V95.2471H184.997V103H183.553V95.2471H180.656V94.0518H187.894ZM189.548 103V94.0518H190.992V96.9238H192.744C193.767 96.9238 194.584 97.1978 195.192 97.7456C195.801 98.2935 196.105 99.0295 196.105 99.9536V99.9702C196.105 100.894 195.801 101.63 195.192 102.178C194.584 102.726 193.767 103 192.744 103H189.548ZM192.744 98.1191H190.992V101.805H192.744C193.336 101.805 193.803 101.639 194.147 101.307C194.49 100.969 194.661 100.524 194.661 99.9702V99.9536C194.661 99.3947 194.487 98.9492 194.138 98.6172C193.795 98.2852 193.33 98.1191 192.744 98.1191ZM202.251 103V94.0518H203.696V100.726H204.459L203.48 101.257L208.253 94.0518H209.697V103H208.253V96.3262H207.489L208.469 95.7949L203.696 103H202.251ZM217.842 95.2471H213.559V103H212.114V94.0518H217.842V95.2471ZM219.595 105.988V94.0518H221.039V95.4795H221.172C221.355 95.1475 221.584 94.8652 221.861 94.6328C222.138 94.3949 222.453 94.2122 222.807 94.085C223.162 93.9577 223.546 93.894 223.961 93.894C224.719 93.894 225.378 94.0877 225.937 94.4751C226.501 94.8569 226.938 95.3937 227.248 96.0854C227.558 96.7772 227.713 97.5879 227.713 98.5176V98.5342C227.713 99.4694 227.558 100.283 227.248 100.975C226.938 101.666 226.501 102.203 225.937 102.585C225.378 102.967 224.719 103.158 223.961 103.158C223.552 103.158 223.164 103.094 222.799 102.967C222.439 102.834 222.118 102.651 221.836 102.419C221.559 102.187 221.338 101.91 221.172 101.589H221.039V105.988H219.595ZM223.629 101.879C224.177 101.879 224.645 101.747 225.032 101.481C225.419 101.21 225.715 100.825 225.92 100.327C226.13 99.8236 226.236 99.2259 226.236 98.5342V98.5176C226.236 97.8203 226.13 97.2227 225.92 96.7246C225.715 96.2266 225.419 95.8447 225.032 95.5791C224.645 95.3079 224.177 95.1724 223.629 95.1724C223.087 95.1724 222.619 95.3079 222.226 95.5791C221.833 95.8503 221.532 96.2349 221.322 96.7329C221.111 97.231 221.006 97.8258 221.006 98.5176V98.5342C221.006 99.2204 221.111 99.8153 221.322 100.319C221.532 100.817 221.833 101.201 222.226 101.473C222.619 101.744 223.087 101.879 223.629 101.879ZM230.139 106.138C230.045 106.138 229.939 106.132 229.823 106.121C229.707 106.116 229.599 106.104 229.499 106.088V104.901C229.588 104.917 229.685 104.929 229.79 104.934C229.895 104.94 229.997 104.942 230.097 104.942C230.507 104.942 230.841 104.837 231.101 104.627C231.367 104.417 231.58 104.054 231.741 103.54L231.907 103.008L228.595 94.0518H230.139L232.894 102.319L232.322 101.415H233.002L232.43 102.319L235.177 94.0518H236.696L233.202 103.548C232.958 104.217 232.701 104.74 232.43 105.117C232.158 105.493 231.84 105.756 231.475 105.905C231.115 106.06 230.67 106.138 230.139 106.138ZM242.684 103V94.0518H246.478C247.324 94.0518 247.983 94.2648 248.453 94.6909C248.924 95.1115 249.159 95.6732 249.159 96.376V96.3926C249.159 96.8353 249.021 97.242 248.744 97.6128C248.467 97.978 248.119 98.2049 247.698 98.2935V98.4263C248.08 98.4761 248.409 98.5951 248.686 98.7832C248.963 98.9658 249.176 99.1982 249.325 99.4805C249.48 99.7572 249.557 100.07 249.557 100.418V100.435C249.557 100.95 249.436 101.401 249.192 101.788C248.949 102.17 248.597 102.469 248.138 102.685C247.684 102.895 247.136 103 246.494 103H242.684ZM244.129 101.805H246.436C246.984 101.805 247.396 101.686 247.673 101.448C247.95 101.204 248.088 100.858 248.088 100.41V100.394C248.088 99.9176 247.928 99.5718 247.607 99.356C247.286 99.1401 246.804 99.0322 246.162 99.0322H244.129V101.805ZM244.129 97.8369H246.038C246.619 97.8369 247.045 97.7262 247.316 97.5049C247.587 97.2835 247.723 96.9626 247.723 96.542V96.5254C247.723 96.1436 247.607 95.8364 247.374 95.604C247.142 95.366 246.774 95.2471 246.27 95.2471H244.129V97.8369ZM259.605 103.158C258.758 103.158 258.025 102.972 257.405 102.602C256.791 102.225 256.315 101.691 255.977 101C255.645 100.308 255.479 99.486 255.479 98.5342V98.5176C255.479 97.5602 255.645 96.7357 255.977 96.0439C256.315 95.3522 256.791 94.821 257.405 94.4502C258.025 94.0794 258.758 93.894 259.605 93.894C260.457 93.894 261.19 94.0794 261.804 94.4502C262.419 94.821 262.892 95.3522 263.224 96.0439C263.561 96.7357 263.73 97.5602 263.73 98.5176V98.5342C263.73 99.486 263.561 100.308 263.224 101C262.892 101.691 262.419 102.225 261.804 102.602C261.19 102.972 260.457 103.158 259.605 103.158ZM259.605 101.879C260.169 101.879 260.648 101.747 261.041 101.481C261.434 101.215 261.732 100.833 261.937 100.335C262.147 99.8374 262.253 99.237 262.253 98.5342V98.5176C262.253 97.8092 262.147 97.2061 261.937 96.708C261.732 96.21 261.434 95.8309 261.041 95.5708C260.648 95.3052 260.169 95.1724 259.605 95.1724C259.04 95.1724 258.561 95.3052 258.169 95.5708C257.776 95.8309 257.474 96.21 257.264 96.708C257.059 97.2061 256.957 97.8092 256.957 98.5176V98.5342C256.957 99.237 257.059 99.8374 257.264 100.335C257.474 100.833 257.776 101.215 258.169 101.481C258.561 101.747 259.04 101.879 259.605 101.879ZM265.824 105.366H264.479V101.805H265.226C265.552 101.589 265.801 101.226 265.973 100.717C266.145 100.203 266.25 99.6437 266.288 99.0405L266.637 94.0518H272.738V101.805H274.166V105.366H272.821V103H265.824V105.366ZM271.294 101.805V95.2471H267.915L267.633 99.0737C267.594 99.616 267.514 100.117 267.392 100.576C267.271 101.03 267.105 101.395 266.894 101.672V101.805H271.294ZM275.612 103V94.0518H277.056V100.726H277.82L276.84 101.257L281.613 94.0518H283.058V103H281.613V96.3262H280.85L281.829 95.7949L277.056 103H275.612ZM291.352 103V98.9492H286.919V103H285.475V94.0518H286.919V97.7539H291.352V94.0518H292.796V103H291.352ZM301.457 98.9243H301.001V103H299.556V94.0518H301.001V97.7954H301.457L304.919 94.0518H306.653L302.511 98.3931V98.1357L306.811 103H304.96L301.457 98.9243ZM310.307 99.4971C310.246 100.316 310.116 100.991 309.917 101.522C309.724 102.054 309.455 102.447 309.112 102.701C308.774 102.956 308.357 103.083 307.859 103.083C307.704 103.083 307.571 103.072 307.46 103.05C307.349 103.033 307.264 103.014 307.203 102.992V101.688C307.242 101.7 307.311 101.713 307.41 101.73C307.51 101.741 307.612 101.747 307.717 101.747C307.994 101.747 308.218 101.641 308.39 101.431C308.561 101.221 308.691 100.939 308.78 100.584C308.874 100.225 308.935 99.8236 308.963 99.3809L309.344 94.0518H315.197V103H313.752V95.2471H310.639L310.307 99.4971ZM317.605 103V94.0518H319.05V100.726H319.813L318.834 101.257L323.607 94.0518H325.051V103H323.607V96.3262H322.843L323.823 95.7949L319.05 103H317.605ZM329.369 98.9243H328.913V103H327.468V94.0518H328.913V97.7954H329.369L332.831 94.0518H334.566L330.423 98.3931V98.1357L334.723 103H332.872L329.369 98.9243ZM335.845 106.046L336.568 101.323H338.219L336.916 106.046H335.845ZM69.2964 125V120.949H64.8638V125H63.4194V116.052H64.8638V119.754H69.2964V116.052H70.7407V125H69.2964ZM75.6149 125.158C75.0505 125.158 74.5414 125.05 74.0876 124.834C73.6393 124.618 73.2824 124.311 73.0168 123.913C72.7567 123.514 72.6266 123.044 72.6266 122.501V122.485C72.6266 121.954 72.7539 121.5 73.0085 121.124C73.263 120.742 73.6338 120.443 74.1208 120.227C74.6078 120.011 75.1971 119.884 75.8888 119.845L79.176 119.646V120.8L76.0632 120.999C75.3825 121.038 74.8845 121.179 74.569 121.422C74.2591 121.666 74.1042 122.009 74.1042 122.452V122.468C74.1042 122.922 74.2757 123.276 74.6188 123.531C74.9619 123.78 75.3936 123.904 75.9137 123.904C76.4063 123.904 76.8434 123.807 77.2253 123.614C77.6071 123.415 77.9059 123.146 78.1218 122.809C78.3431 122.471 78.4538 122.089 78.4538 121.663V118.874C78.4538 118.321 78.285 117.9 77.9474 117.612C77.6154 117.319 77.1146 117.172 76.445 117.172C75.9082 117.172 75.4683 117.269 75.1252 117.463C74.7821 117.651 74.5524 117.919 74.4362 118.268L74.4279 118.293H72.9836L72.9919 118.243C73.0693 117.773 73.263 117.363 73.5729 117.015C73.8884 116.66 74.2951 116.387 74.7931 116.193C75.2912 115.994 75.8584 115.894 76.4948 115.894C77.2253 115.894 77.8423 116.013 78.3459 116.251C78.855 116.489 79.2396 116.832 79.4997 117.28C79.7653 117.723 79.8981 118.254 79.8981 118.874V125H78.4538V123.68H78.321C78.1328 123.996 77.9032 124.264 77.632 124.485C77.3664 124.707 77.0648 124.875 76.7272 124.992C76.3897 125.102 76.0189 125.158 75.6149 125.158ZM83.0624 125H81.2777L85.1376 120.285L81.4105 116.052H83.1454L86.2748 119.82H86.806V116.052H88.2005V119.82H88.7318L91.8612 116.052H93.5712L89.869 120.252L93.7538 125H91.9442L88.7318 120.899H88.2005V125H86.806V120.899H86.2748L83.0624 125ZM96.6275 125H95.1831V116.052H96.9346L100.122 122.991H100.255L103.459 116.052H105.136V125H103.691V118.633H103.534L100.711 124.751H99.5992L96.7852 118.633H96.6275V125ZM107.553 125V116.052H108.997V122.726H109.761L108.781 123.257L113.554 116.052H114.999V125H113.554V118.326H112.791L113.77 117.795L108.997 125H107.553ZM123.668 120.924H123.212V125H121.767V116.052H123.212V119.795H123.668L127.129 116.052H128.864L124.722 120.393V120.136L129.022 125H127.171L123.668 120.924ZM136.461 125V120.949H132.029V125H130.584V116.052H132.029V119.754H136.461V116.052H137.906V125H136.461ZM144 125.158C143.153 125.158 142.42 124.972 141.8 124.602C141.186 124.225 140.71 123.691 140.372 123C140.04 122.308 139.874 121.486 139.874 120.534V120.518C139.874 119.56 140.04 118.736 140.372 118.044C140.71 117.352 141.186 116.821 141.8 116.45C142.42 116.079 143.153 115.894 144 115.894C144.852 115.894 145.585 116.079 146.2 116.45C146.814 116.821 147.287 117.352 147.619 118.044C147.957 118.736 148.125 119.56 148.125 120.518V120.534C148.125 121.486 147.957 122.308 147.619 123C147.287 123.691 146.814 124.225 146.2 124.602C145.585 124.972 144.852 125.158 144 125.158ZM144 123.879C144.564 123.879 145.043 123.747 145.436 123.481C145.829 123.215 146.128 122.833 146.332 122.335C146.543 121.837 146.648 121.237 146.648 120.534V120.518C146.648 119.809 146.543 119.206 146.332 118.708C146.128 118.21 145.829 117.831 145.436 117.571C145.043 117.305 144.564 117.172 144 117.172C143.435 117.172 142.957 117.305 142.564 117.571C142.171 117.831 141.869 118.21 141.659 118.708C141.454 119.206 141.352 119.809 141.352 120.518V120.534C141.352 121.237 141.454 121.837 141.659 122.335C141.869 122.833 142.171 123.215 142.564 123.481C142.957 123.747 143.435 123.879 144 123.879ZM150.094 125V116.052H157.333V125H155.888V117.247H151.539V125H150.094ZM161.642 120.924H161.186V125H159.742V116.052H161.186V119.795H161.642L165.104 116.052H166.839L162.697 120.393V120.136L166.996 125H165.145L161.642 120.924ZM168.999 128.138C168.904 128.138 168.799 128.132 168.683 128.121C168.567 128.116 168.459 128.104 168.359 128.088V126.901C168.448 126.917 168.545 126.929 168.65 126.934C168.755 126.94 168.857 126.942 168.957 126.942C169.367 126.942 169.701 126.837 169.961 126.627C170.227 126.417 170.44 126.054 170.601 125.54L170.767 125.008L167.455 116.052H168.999L171.754 124.319L171.182 123.415H171.862L171.29 124.319L174.037 116.052H175.556L172.062 125.548C171.818 126.217 171.561 126.74 171.29 127.117C171.018 127.493 170.7 127.756 170.335 127.905C169.975 128.06 169.53 128.138 168.999 128.138ZM187.421 125V120.949H182.989V125H181.544V116.052H182.989V119.754H187.421V116.052H188.866V125H187.421ZM191.274 125V116.052H192.719V122.726H193.482L192.503 123.257L197.276 116.052H198.72V125H197.276V118.326H196.512L197.492 117.795L192.719 125H191.274ZM201.934 125H200.15L204.009 120.285L200.282 116.052H202.017L205.147 119.82H205.678V116.052H207.072V119.82H207.604L210.733 116.052H212.443L208.741 120.252L212.626 125H210.816L207.604 120.899H207.072V125H205.678V120.899H205.147L201.934 125ZM217.467 125.158C216.614 125.158 215.881 124.97 215.267 124.593C214.658 124.217 214.188 123.686 213.856 123C213.529 122.308 213.366 121.494 213.366 120.559V120.551C213.366 119.627 213.529 118.816 213.856 118.119C214.188 117.421 214.655 116.876 215.259 116.483C215.862 116.09 216.567 115.894 217.375 115.894C218.189 115.894 218.886 116.082 219.467 116.458C220.054 116.835 220.502 117.361 220.812 118.036C221.127 118.705 221.285 119.486 221.285 120.376V120.941H214.113V119.787H220.546L219.832 120.841V120.269C219.832 119.566 219.727 118.987 219.517 118.534C219.307 118.08 219.016 117.742 218.645 117.521C218.275 117.294 217.849 117.181 217.367 117.181C216.886 117.181 216.454 117.3 216.072 117.538C215.696 117.77 215.397 118.116 215.176 118.575C214.954 119.035 214.844 119.599 214.844 120.269V120.841C214.844 121.478 214.952 122.023 215.167 122.477C215.383 122.925 215.69 123.271 216.089 123.514C216.487 123.752 216.958 123.871 217.5 123.871C217.904 123.871 218.255 123.816 218.554 123.705C218.853 123.594 219.099 123.453 219.293 123.282C219.487 123.11 219.622 122.936 219.7 122.759L219.733 122.684H221.177L221.161 122.75C221.083 123.055 220.945 123.351 220.745 123.639C220.552 123.921 220.3 124.178 219.99 124.411C219.68 124.638 219.312 124.82 218.886 124.958C218.466 125.091 217.992 125.158 217.467 125.158ZM222.814 128.046L223.536 123.323H225.188L223.885 128.046H222.814ZM234.687 125.158C234.123 125.158 233.614 125.05 233.16 124.834C232.712 124.618 232.355 124.311 232.089 123.913C231.829 123.514 231.699 123.044 231.699 122.501V122.485C231.699 121.954 231.826 121.5 232.081 121.124C232.336 120.742 232.706 120.443 233.193 120.227C233.68 120.011 234.27 119.884 234.961 119.845L238.248 119.646V120.8L235.136 120.999C234.455 121.038 233.957 121.179 233.642 121.422C233.332 121.666 233.177 122.009 233.177 122.452V122.468C233.177 122.922 233.348 123.276 233.691 123.531C234.034 123.78 234.466 123.904 234.986 123.904C235.479 123.904 235.916 123.807 236.298 123.614C236.68 123.415 236.978 123.146 237.194 122.809C237.416 122.471 237.526 122.089 237.526 121.663V118.874C237.526 118.321 237.358 117.9 237.02 117.612C236.688 117.319 236.187 117.172 235.518 117.172C234.981 117.172 234.541 117.269 234.198 117.463C233.855 117.651 233.625 117.919 233.509 118.268L233.5 118.293H232.056L232.064 118.243C232.142 117.773 232.336 117.363 232.645 117.015C232.961 116.66 233.368 116.387 233.866 116.193C234.364 115.994 234.931 115.894 235.567 115.894C236.298 115.894 236.915 116.013 237.418 116.251C237.927 116.489 238.312 116.832 238.572 117.28C238.838 117.723 238.971 118.254 238.971 118.874V125H237.526V123.68H237.393C237.205 123.996 236.976 124.264 236.705 124.485C236.439 124.707 236.137 124.875 235.8 124.992C235.462 125.102 235.091 125.158 234.687 125.158ZM248.736 125.166C248.099 125.166 247.524 125.066 247.009 124.867C246.5 124.668 246.085 124.391 245.764 124.037C245.443 123.677 245.252 123.257 245.191 122.775L245.183 122.709H246.652L246.669 122.775C246.763 123.141 246.995 123.431 247.366 123.647C247.737 123.863 248.193 123.971 248.736 123.971C249.394 123.971 249.909 123.827 250.28 123.539C250.65 123.251 250.836 122.886 250.836 122.443V122.427C250.836 121.94 250.656 121.583 250.296 121.356C249.942 121.124 249.422 121.007 248.736 121.007H247.341V119.812H248.736C249.311 119.812 249.751 119.699 250.055 119.472C250.365 119.239 250.52 118.891 250.52 118.426V118.409C250.52 118.027 250.374 117.712 250.08 117.463C249.793 117.208 249.361 117.081 248.785 117.081C248.276 117.081 247.845 117.186 247.491 117.396C247.136 117.607 246.923 117.892 246.851 118.251L246.843 118.293H245.432L245.44 118.235C245.512 117.753 245.695 117.338 245.988 116.99C246.287 116.636 246.674 116.364 247.15 116.176C247.632 115.983 248.177 115.886 248.785 115.886C249.455 115.886 250.022 115.988 250.487 116.193C250.957 116.398 251.314 116.683 251.558 117.048C251.807 117.408 251.931 117.825 251.931 118.301V118.318C251.931 118.772 251.796 119.181 251.525 119.546C251.254 119.912 250.897 120.147 250.454 120.252V120.385C250.847 120.468 251.176 120.601 251.442 120.783C251.713 120.966 251.915 121.19 252.048 121.456C252.186 121.721 252.255 122.02 252.255 122.352V122.369C252.255 122.922 252.106 123.409 251.807 123.83C251.514 124.25 251.101 124.579 250.57 124.817C250.044 125.05 249.433 125.166 248.736 125.166ZM256.689 125.158C256.125 125.158 255.616 125.05 255.162 124.834C254.714 124.618 254.357 124.311 254.091 123.913C253.831 123.514 253.701 123.044 253.701 122.501V122.485C253.701 121.954 253.828 121.5 254.083 121.124C254.338 120.742 254.708 120.443 255.195 120.227C255.682 120.011 256.272 119.884 256.963 119.845L260.25 119.646V120.8L257.138 120.999C256.457 121.038 255.959 121.179 255.644 121.422C255.334 121.666 255.179 122.009 255.179 122.452V122.468C255.179 122.922 255.35 123.276 255.693 123.531C256.036 123.78 256.468 123.904 256.988 123.904C257.481 123.904 257.918 123.807 258.3 123.614C258.682 123.415 258.98 123.146 259.196 122.809C259.418 122.471 259.528 122.089 259.528 121.663V118.874C259.528 118.321 259.359 117.9 259.022 117.612C258.69 117.319 258.189 117.172 257.519 117.172C256.983 117.172 256.543 117.269 256.2 117.463C255.857 117.651 255.627 117.919 255.511 118.268L255.502 118.293H254.058L254.066 118.243C254.144 117.773 254.338 117.363 254.647 117.015C254.963 116.66 255.37 116.387 255.868 116.193C256.366 115.994 256.933 115.894 257.569 115.894C258.3 115.894 258.917 116.013 259.42 116.251C259.929 116.489 260.314 116.832 260.574 117.28C260.84 117.723 260.973 118.254 260.973 118.874V125H259.528V123.68H259.395C259.207 123.996 258.978 124.264 258.706 124.485C258.441 124.707 258.139 124.875 257.802 124.992C257.464 125.102 257.093 125.158 256.689 125.158ZM269.823 116.052V117.247H266.926V125H265.482V117.247H262.585V116.052H269.823ZM274.805 125.158C273.953 125.158 273.22 124.97 272.605 124.593C271.997 124.217 271.526 123.686 271.194 123C270.868 122.308 270.704 121.494 270.704 120.559V120.551C270.704 119.627 270.868 118.816 271.194 118.119C271.526 117.421 271.994 116.876 272.597 116.483C273.2 116.09 273.906 115.894 274.714 115.894C275.527 115.894 276.224 116.082 276.805 116.458C277.392 116.835 277.84 117.361 278.15 118.036C278.466 118.705 278.623 119.486 278.623 120.376V120.941H271.451V119.787H277.885L277.171 120.841V120.269C277.171 119.566 277.066 118.987 276.855 118.534C276.645 118.08 276.354 117.742 275.984 117.521C275.613 117.294 275.187 117.181 274.705 117.181C274.224 117.181 273.792 117.3 273.41 117.538C273.034 117.77 272.735 118.116 272.514 118.575C272.293 119.035 272.182 119.599 272.182 120.269V120.841C272.182 121.478 272.29 122.023 272.506 122.477C272.721 122.925 273.029 123.271 273.427 123.514C273.826 123.752 274.296 123.871 274.838 123.871C275.242 123.871 275.594 123.816 275.892 123.705C276.191 123.594 276.437 123.453 276.631 123.282C276.825 123.11 276.96 122.936 277.038 122.759L277.071 122.684H278.515L278.499 122.75C278.421 123.055 278.283 123.351 278.084 123.639C277.89 123.921 277.638 124.178 277.328 124.411C277.019 124.638 276.651 124.82 276.224 124.958C275.804 125.091 275.331 125.158 274.805 125.158ZM282.037 125H280.592V116.052H282.344L285.531 122.991H285.664L288.868 116.052H290.545V125H289.101V118.633H288.943L286.121 124.751H285.008L282.194 118.633H282.037V125ZM297.313 125V116.052H301.107C301.953 116.052 302.612 116.265 303.082 116.691C303.553 117.111 303.788 117.673 303.788 118.376V118.393C303.788 118.835 303.65 119.242 303.373 119.613C303.096 119.978 302.748 120.205 302.327 120.293V120.426C302.709 120.476 303.038 120.595 303.315 120.783C303.591 120.966 303.805 121.198 303.954 121.48C304.109 121.757 304.186 122.07 304.186 122.418V122.435C304.186 122.95 304.065 123.401 303.821 123.788C303.578 124.17 303.226 124.469 302.767 124.685C302.313 124.895 301.765 125 301.123 125H297.313ZM298.758 123.805H301.065C301.613 123.805 302.025 123.686 302.302 123.448C302.579 123.204 302.717 122.858 302.717 122.41V122.394C302.717 121.918 302.557 121.572 302.236 121.356C301.915 121.14 301.433 121.032 300.791 121.032H298.758V123.805ZM298.758 119.837H300.667C301.248 119.837 301.674 119.726 301.945 119.505C302.216 119.284 302.352 118.963 302.352 118.542V118.525C302.352 118.144 302.236 117.836 302.003 117.604C301.771 117.366 301.403 117.247 300.899 117.247H298.758V119.837ZM67.0884 147.158C66.2528 147.158 65.5278 146.967 64.9136 146.585C64.2993 146.203 63.8234 145.664 63.4858 144.966C63.1483 144.269 62.9795 143.447 62.9795 142.501V142.484C62.9795 141.555 63.1455 140.747 63.4775 140.061C63.8151 139.374 64.291 138.843 64.9053 138.467C65.5195 138.085 66.2445 137.894 67.0801 137.894C67.805 137.894 68.4303 138.021 68.9561 138.276C69.4818 138.53 69.9023 138.874 70.2178 139.305C70.5332 139.731 70.7352 140.21 70.8237 140.741L70.832 140.791H69.396L69.3877 140.766C69.277 140.323 69.0252 139.947 68.6323 139.637C68.2394 139.327 67.722 139.172 67.0801 139.172C66.5433 139.172 66.0785 139.308 65.6855 139.579C65.2926 139.85 64.9883 140.235 64.7725 140.733C64.5622 141.225 64.457 141.809 64.457 142.484V142.501C64.457 143.187 64.5649 143.785 64.7808 144.294C64.9966 144.798 65.3009 145.188 65.6938 145.464C66.0868 145.741 66.5488 145.879 67.0801 145.879C67.6833 145.879 68.1758 145.749 68.5576 145.489C68.9395 145.229 69.2134 144.85 69.3794 144.352L69.396 144.302L70.8237 144.294L70.8071 144.385C70.6854 144.922 70.4696 145.401 70.1597 145.821C69.8498 146.236 69.4403 146.563 68.9312 146.801C68.422 147.039 67.8078 147.158 67.0884 147.158ZM72.6681 147V138.052H74.1125V144.726H74.8762L73.8967 145.257L78.6696 138.052H80.1139V147H78.6696V140.326H77.9059L78.8854 139.795L74.1125 147H72.6681ZM86.2001 147.158C85.3644 147.158 84.6395 146.967 84.0253 146.585C83.411 146.203 82.9351 145.664 82.5975 144.966C82.26 144.269 82.0912 143.447 82.0912 142.501V142.484C82.0912 141.555 82.2572 140.747 82.5892 140.061C82.9268 139.374 83.4027 138.843 84.017 138.467C84.6312 138.085 85.3561 137.894 86.1918 137.894C86.9167 137.894 87.542 138.021 88.0677 138.276C88.5934 138.53 89.014 138.874 89.3295 139.305C89.6449 139.731 89.8469 140.21 89.9354 140.741L89.9437 140.791H88.5077L88.4994 140.766C88.3887 140.323 88.1369 139.947 87.744 139.637C87.3511 139.327 86.8337 139.172 86.1918 139.172C85.655 139.172 85.1901 139.308 84.7972 139.579C84.4043 139.85 84.1 140.235 83.8841 140.733C83.6739 141.225 83.5687 141.809 83.5687 142.484V142.501C83.5687 143.187 83.6766 143.785 83.8924 144.294C84.1083 144.798 84.4126 145.188 84.8055 145.464C85.1984 145.741 85.6605 145.879 86.1918 145.879C86.7949 145.879 87.2875 145.749 87.6693 145.489C88.0511 145.229 88.3251 144.85 88.4911 144.352L88.5077 144.302L89.9354 144.294L89.9188 144.385C89.7971 144.922 89.5812 145.401 89.2713 145.821C88.9615 146.236 88.5519 146.563 88.0428 146.801C87.5337 147.039 86.9195 147.158 86.2001 147.158ZM97.8477 138.052V139.247H94.9507V147H93.5064V139.247H90.6094V138.052H97.8477ZM102.83 147.158C101.978 147.158 101.244 146.97 100.63 146.593C100.021 146.217 99.551 145.686 99.219 145C98.8925 144.308 98.7292 143.494 98.7292 142.559V142.551C98.7292 141.627 98.8925 140.816 99.219 140.119C99.551 139.421 100.019 138.876 100.622 138.483C101.225 138.09 101.931 137.894 102.738 137.894C103.552 137.894 104.249 138.082 104.83 138.458C105.417 138.835 105.865 139.361 106.175 140.036C106.49 140.705 106.648 141.486 106.648 142.376V142.941H99.4763V141.787H105.909L105.196 142.841V142.269C105.196 141.566 105.09 140.987 104.88 140.534C104.67 140.08 104.379 139.742 104.009 139.521C103.638 139.294 103.212 139.181 102.73 139.181C102.249 139.181 101.817 139.3 101.435 139.538C101.059 139.77 100.76 140.116 100.539 140.575C100.317 141.035 100.207 141.599 100.207 142.269V142.841C100.207 143.478 100.315 144.023 100.53 144.477C100.746 144.925 101.053 145.271 101.452 145.514C101.85 145.752 102.321 145.871 102.863 145.871C103.267 145.871 103.618 145.816 103.917 145.705C104.216 145.594 104.462 145.453 104.656 145.282C104.85 145.11 104.985 144.936 105.063 144.759L105.096 144.684H106.54L106.524 144.75C106.446 145.055 106.308 145.351 106.109 145.639C105.915 145.921 105.663 146.178 105.353 146.411C105.043 146.638 104.675 146.82 104.249 146.958C103.829 147.091 103.356 147.158 102.83 147.158ZM110.061 147H108.617V138.052H110.369L113.556 144.991H113.689L116.893 138.052H118.57V147H117.125V140.633H116.968L114.145 146.751H113.033L110.219 140.633H110.061V147ZM126.864 147V142.949H122.431V147H120.987V138.052H122.431V141.754H126.864V138.052H128.308V147H126.864ZM134.403 147.158C133.556 147.158 132.823 146.972 132.203 146.602C131.589 146.225 131.113 145.691 130.775 145C130.443 144.308 130.277 143.486 130.277 142.534V142.518C130.277 141.56 130.443 140.736 130.775 140.044C131.113 139.352 131.589 138.821 132.203 138.45C132.823 138.079 133.556 137.894 134.403 137.894C135.255 137.894 135.988 138.079 136.602 138.45C137.217 138.821 137.69 139.352 138.022 140.044C138.359 140.736 138.528 141.56 138.528 142.518V142.534C138.528 143.486 138.359 144.308 138.022 145C137.69 145.691 137.217 146.225 136.602 146.602C135.988 146.972 135.255 147.158 134.403 147.158ZM134.403 145.879C134.967 145.879 135.446 145.747 135.839 145.481C136.232 145.215 136.53 144.833 136.735 144.335C136.945 143.837 137.051 143.237 137.051 142.534V142.518C137.051 141.809 136.945 141.206 136.735 140.708C136.53 140.21 136.232 139.831 135.839 139.571C135.446 139.305 134.967 139.172 134.403 139.172C133.838 139.172 133.359 139.305 132.967 139.571C132.574 139.831 132.272 140.21 132.062 140.708C131.857 141.206 131.755 141.809 131.755 142.518V142.534C131.755 143.237 131.857 143.837 132.062 144.335C132.272 144.833 132.574 145.215 132.967 145.481C133.359 145.747 133.838 145.879 134.403 145.879ZM141.941 147H140.497V138.052H142.248L145.436 144.991H145.569L148.773 138.052H150.45V147H149.005V140.633H148.848L146.025 146.751H144.913L142.099 140.633H141.941V147ZM158.662 147H157.218V138.052H158.97L162.157 144.991H162.29L165.494 138.052H167.171V147H165.726V140.633H165.569L162.746 146.751H161.634L158.82 140.633H158.662V147ZM173.249 147.158C172.396 147.158 171.663 146.97 171.049 146.593C170.44 146.217 169.97 145.686 169.638 145C169.311 144.308 169.148 143.494 169.148 142.559V142.551C169.148 141.627 169.311 140.816 169.638 140.119C169.97 139.421 170.437 138.876 171.041 138.483C171.644 138.09 172.349 137.894 173.157 137.894C173.971 137.894 174.668 138.082 175.249 138.458C175.836 138.835 176.284 139.361 176.594 140.036C176.909 140.705 177.067 141.486 177.067 142.376V142.941H169.895V141.787H176.328L175.614 142.841V142.269C175.614 141.566 175.509 140.987 175.299 140.534C175.089 140.08 174.798 139.742 174.427 139.521C174.056 139.294 173.63 139.181 173.149 139.181C172.667 139.181 172.236 139.3 171.854 139.538C171.478 139.77 171.179 140.116 170.957 140.575C170.736 141.035 170.625 141.599 170.625 142.269V142.841C170.625 143.478 170.733 144.023 170.949 144.477C171.165 144.925 171.472 145.271 171.871 145.514C172.269 145.752 172.739 145.871 173.282 145.871C173.686 145.871 174.037 145.816 174.336 145.705C174.635 145.594 174.881 145.453 175.075 145.282C175.268 145.11 175.404 144.936 175.481 144.759L175.515 144.684H176.959L176.942 144.75C176.865 145.055 176.727 145.351 176.527 145.639C176.334 145.921 176.082 146.178 175.772 146.411C175.462 146.638 175.094 146.82 174.668 146.958C174.247 147.091 173.774 147.158 173.249 147.158ZM184.913 147V142.949H180.48V147H179.036V138.052H180.48V141.754H184.913V138.052H186.357V147H184.913ZM195.855 147.166C195.047 147.166 194.347 146.992 193.755 146.643C193.163 146.289 192.698 145.785 192.36 145.132C192.028 144.479 191.846 143.699 191.812 142.792L191.837 141.912C191.909 141.07 192.114 140.351 192.452 139.753C192.795 139.15 193.254 138.688 193.829 138.367C194.41 138.046 195.086 137.886 195.855 137.886C196.69 137.886 197.41 138.071 198.013 138.442C198.616 138.813 199.081 139.344 199.408 140.036C199.734 140.727 199.897 141.555 199.897 142.518V142.534C199.897 143.492 199.734 144.316 199.408 145.008C199.081 145.7 198.616 146.234 198.013 146.61C197.41 146.981 196.69 147.166 195.855 147.166ZM195.855 145.888C196.403 145.888 196.868 145.755 197.249 145.489C197.631 145.224 197.922 144.842 198.121 144.344C198.32 143.84 198.42 143.237 198.42 142.534V142.518C198.42 141.809 198.32 141.206 198.121 140.708C197.922 140.204 197.631 139.823 197.249 139.562C196.868 139.297 196.403 139.164 195.855 139.164C195.307 139.164 194.842 139.297 194.46 139.562C194.078 139.823 193.788 140.204 193.589 140.708C193.389 141.206 193.29 141.809 193.29 142.518V142.534C193.29 143.237 193.389 143.84 193.589 144.344C193.788 144.842 194.078 145.224 194.46 145.489C194.842 145.755 195.307 145.888 195.855 145.888ZM188.766 147V138.052H190.21V141.754H192.551V142.949H190.21V147H188.766ZM206.176 147V138.052H207.62V147H206.176ZM206.906 136.325C206.635 136.325 206.4 136.228 206.201 136.035C206.007 135.835 205.91 135.6 205.91 135.329C205.91 135.052 206.007 134.817 206.201 134.624C206.4 134.43 206.635 134.333 206.906 134.333C207.183 134.333 207.418 134.43 207.612 134.624C207.806 134.817 207.903 135.052 207.903 135.329C207.903 135.6 207.806 135.835 207.612 136.035C207.418 136.228 207.183 136.325 206.906 136.325ZM215.126 147.282C213.98 147.282 212.998 147.028 212.179 146.519C211.36 146.004 210.729 145.276 210.286 144.335C209.849 143.395 209.631 142.288 209.631 141.015V140.999C209.631 139.715 209.852 138.605 210.295 137.67C210.743 136.735 211.377 136.013 212.196 135.503C213.02 134.994 213.997 134.74 215.126 134.74C216.26 134.74 217.237 134.994 218.056 135.503C218.881 136.013 219.514 136.737 219.957 137.678C220.4 138.613 220.621 139.72 220.621 140.999V141.015C220.621 142.288 220.4 143.395 219.957 144.335C219.52 145.271 218.889 145.996 218.064 146.51C217.245 147.025 216.266 147.282 215.126 147.282ZM215.126 145.904C215.945 145.904 216.65 145.702 217.243 145.298C217.835 144.894 218.291 144.327 218.612 143.597C218.933 142.861 219.094 142 219.094 141.015V140.999C219.094 140.002 218.933 139.139 218.612 138.409C218.291 137.678 217.835 137.114 217.243 136.715C216.65 136.317 215.945 136.118 215.126 136.118C214.312 136.118 213.61 136.317 213.017 136.715C212.425 137.114 211.966 137.678 211.64 138.409C211.319 139.139 211.158 140.002 211.158 140.999V141.015C211.158 142 211.316 142.861 211.631 143.597C211.947 144.327 212.4 144.894 212.993 145.298C213.585 145.702 214.296 145.904 215.126 145.904ZM226.707 147.282C225.833 147.282 225.069 147.141 224.416 146.859C223.769 146.571 223.254 146.178 222.872 145.68C222.496 145.177 222.277 144.601 222.216 143.954L222.208 143.862H223.702L223.711 143.954C223.749 144.352 223.901 144.698 224.167 144.991C224.438 145.279 224.798 145.503 225.246 145.664C225.7 145.824 226.215 145.904 226.79 145.904C227.332 145.904 227.814 145.819 228.234 145.647C228.661 145.47 228.995 145.226 229.239 144.917C229.482 144.607 229.604 144.25 229.604 143.846V143.837C229.604 143.339 229.421 142.922 229.056 142.584C228.691 142.241 228.096 141.978 227.272 141.795L225.943 141.505C224.743 141.239 223.868 140.83 223.32 140.276C222.778 139.717 222.507 139.004 222.507 138.135V138.126C222.512 137.462 222.692 136.876 223.046 136.367C223.406 135.858 223.901 135.459 224.532 135.171C225.169 134.884 225.899 134.74 226.724 134.74C227.521 134.74 228.226 134.884 228.84 135.171C229.455 135.454 229.942 135.835 230.301 136.317C230.667 136.798 230.869 137.338 230.907 137.936L230.916 138.052H229.421L229.405 137.944C229.35 137.59 229.206 137.277 228.973 137.006C228.741 136.729 228.431 136.511 228.044 136.35C227.656 136.19 227.202 136.112 226.682 136.118C226.184 136.118 225.736 136.195 225.337 136.35C224.939 136.505 224.621 136.729 224.383 137.022C224.15 137.31 224.034 137.664 224.034 138.085V138.093C224.034 138.569 224.211 138.97 224.565 139.297C224.92 139.623 225.503 139.875 226.317 140.052L227.645 140.351C228.481 140.534 229.153 140.772 229.662 141.065C230.171 141.358 230.542 141.718 230.774 142.144C231.012 142.565 231.131 143.063 231.131 143.638V143.646C231.131 144.394 230.949 145.038 230.584 145.581C230.218 146.123 229.704 146.543 229.04 146.842C228.376 147.136 227.598 147.282 226.707 147.282ZM237.435 147V138.052H241.228C242.075 138.052 242.734 138.265 243.204 138.691C243.674 139.111 243.91 139.673 243.91 140.376V140.393C243.91 140.835 243.771 141.242 243.495 141.613C243.218 141.978 242.869 142.205 242.449 142.293V142.426C242.83 142.476 243.16 142.595 243.436 142.783C243.713 142.966 243.926 143.198 244.076 143.48C244.231 143.757 244.308 144.07 244.308 144.418V144.435C244.308 144.95 244.186 145.401 243.943 145.788C243.699 146.17 243.348 146.469 242.889 146.685C242.435 146.895 241.887 147 241.245 147H237.435ZM238.879 145.805H241.187C241.735 145.805 242.147 145.686 242.424 145.448C242.7 145.204 242.839 144.858 242.839 144.41V144.394C242.839 143.918 242.678 143.572 242.357 143.356C242.036 143.14 241.555 143.032 240.913 143.032H238.879V145.805ZM238.879 141.837H240.788C241.37 141.837 241.796 141.726 242.067 141.505C242.338 141.284 242.474 140.963 242.474 140.542V140.525C242.474 140.144 242.357 139.836 242.125 139.604C241.893 139.366 241.525 139.247 241.021 139.247H238.879V141.837ZM246.318 147V138.052H247.763V140.924H249.514C250.538 140.924 251.354 141.198 251.963 141.746C252.572 142.293 252.876 143.029 252.876 143.954V143.97C252.876 144.894 252.572 145.63 251.963 146.178C251.354 146.726 250.538 147 249.514 147H246.318ZM249.514 142.119H247.763V145.805H249.514C250.106 145.805 250.574 145.639 250.917 145.307C251.26 144.969 251.432 144.524 251.432 143.97V143.954C251.432 143.395 251.257 142.949 250.909 142.617C250.566 142.285 250.101 142.119 249.514 142.119ZM254.437 147V138.052H255.881V147H254.437ZM262.017 147.166C261.104 147.166 260.337 146.961 259.718 146.552C259.098 146.137 258.63 145.525 258.315 144.717C258.005 143.909 257.85 142.908 257.85 141.712V141.696C257.85 140.506 257.936 139.485 258.107 138.633C258.279 137.775 258.544 137.069 258.904 136.516C259.269 135.957 259.737 135.537 260.307 135.254C260.882 134.972 261.569 134.812 262.366 134.773L263.262 134.731C263.622 134.715 264.004 134.671 264.408 134.599C264.811 134.521 265.207 134.405 265.595 134.25V135.528C265.456 135.661 265.174 135.777 264.748 135.877C264.322 135.971 263.849 136.032 263.328 136.06L262.415 136.101C261.724 136.129 261.151 136.264 260.697 136.508C260.249 136.751 259.897 137.125 259.643 137.628C259.388 138.132 259.206 138.791 259.095 139.604L259.07 139.787H259.203C259.408 139.427 259.659 139.125 259.958 138.882C260.257 138.638 260.597 138.453 260.979 138.326C261.367 138.198 261.784 138.135 262.233 138.135C263.035 138.135 263.732 138.317 264.324 138.683C264.917 139.042 265.373 139.551 265.694 140.21C266.021 140.868 266.184 141.649 266.184 142.551V142.567C266.184 143.514 266.015 144.333 265.678 145.024C265.345 145.711 264.867 146.239 264.241 146.61C263.622 146.981 262.88 147.166 262.017 147.166ZM262.017 145.888C262.587 145.888 263.071 145.758 263.47 145.498C263.873 145.232 264.181 144.853 264.391 144.36C264.601 143.862 264.706 143.265 264.706 142.567V142.551C264.706 141.881 264.601 141.314 264.391 140.849C264.181 140.384 263.873 140.03 263.47 139.787C263.071 139.538 262.587 139.413 262.017 139.413C261.447 139.413 260.96 139.538 260.556 139.787C260.158 140.03 259.853 140.384 259.643 140.849C259.433 141.314 259.327 141.881 259.327 142.551V142.567C259.327 143.265 259.433 143.862 259.643 144.36C259.853 144.853 260.158 145.232 260.556 145.498C260.96 145.758 261.447 145.888 262.017 145.888ZM271.813 147.158C270.961 147.158 270.228 146.97 269.614 146.593C269.005 146.217 268.535 145.686 268.203 145C267.876 144.308 267.713 143.494 267.713 142.559V142.551C267.713 141.627 267.876 140.816 268.203 140.119C268.535 139.421 269.002 138.876 269.605 138.483C270.209 138.09 270.914 137.894 271.722 137.894C272.536 137.894 273.233 138.082 273.814 138.458C274.401 138.835 274.849 139.361 275.159 140.036C275.474 140.705 275.632 141.486 275.632 142.376V142.941H268.46V141.787H274.893L274.179 142.841V142.269C274.179 141.566 274.074 140.987 273.864 140.534C273.653 140.08 273.363 139.742 272.992 139.521C272.621 139.294 272.195 139.181 271.714 139.181C271.232 139.181 270.801 139.3 270.419 139.538C270.043 139.77 269.744 140.116 269.522 140.575C269.301 141.035 269.19 141.599 269.19 142.269V142.841C269.19 143.478 269.298 144.023 269.514 144.477C269.73 144.925 270.037 145.271 270.436 145.514C270.834 145.752 271.304 145.871 271.847 145.871C272.251 145.871 272.602 145.816 272.901 145.705C273.2 145.594 273.446 145.453 273.64 145.282C273.833 145.11 273.969 144.936 274.046 144.759L274.08 144.684H275.524L275.507 144.75C275.43 145.055 275.291 145.351 275.092 145.639C274.899 145.921 274.647 146.178 274.337 146.411C274.027 146.638 273.659 146.82 273.233 146.958C272.812 147.091 272.339 147.158 271.813 147.158ZM277.609 149.988V138.052H279.053V139.479H279.186C279.369 139.147 279.598 138.865 279.875 138.633C280.152 138.395 280.467 138.212 280.821 138.085C281.176 137.958 281.56 137.894 281.975 137.894C282.733 137.894 283.392 138.088 283.951 138.475C284.515 138.857 284.952 139.394 285.262 140.085C285.572 140.777 285.727 141.588 285.727 142.518V142.534C285.727 143.469 285.572 144.283 285.262 144.975C284.952 145.666 284.515 146.203 283.951 146.585C283.392 146.967 282.733 147.158 281.975 147.158C281.566 147.158 281.178 147.094 280.813 146.967C280.453 146.834 280.132 146.651 279.85 146.419C279.574 146.187 279.352 145.91 279.186 145.589H279.053V149.988H277.609ZM281.643 145.879C282.191 145.879 282.659 145.747 283.046 145.481C283.433 145.21 283.729 144.825 283.934 144.327C284.145 143.824 284.25 143.226 284.25 142.534V142.518C284.25 141.82 284.145 141.223 283.934 140.725C283.729 140.227 283.433 139.845 283.046 139.579C282.659 139.308 282.191 139.172 281.643 139.172C281.101 139.172 280.633 139.308 280.24 139.579C279.847 139.85 279.546 140.235 279.336 140.733C279.125 141.231 279.02 141.826 279.02 142.518V142.534C279.02 143.22 279.125 143.815 279.336 144.319C279.546 144.817 279.847 145.201 280.24 145.473C280.633 145.744 281.101 145.879 281.643 145.879ZM287.713 147V138.052H289.157V144.726H289.921L288.941 145.257L293.714 138.052H295.159V147H293.714V140.326H292.951L293.93 139.795L289.157 147H287.713ZM63.4194 169V160.052H70.6577V169H69.2134V161.247H64.8638V169H63.4194ZM73.8386 172.138C73.7445 172.138 73.6393 172.132 73.5231 172.121C73.4069 172.116 73.299 172.104 73.1994 172.088V170.901C73.2879 170.917 73.3848 170.929 73.4899 170.934C73.5951 170.94 73.6974 170.942 73.7971 170.942C74.2066 170.942 74.5414 170.837 74.8014 170.627C75.0671 170.417 75.2801 170.054 75.4406 169.54L75.6066 169.008L72.2946 160.052H73.8386L76.5944 168.319L76.0217 167.415H76.7023L76.1296 168.319L78.8771 160.052H80.3962L76.9015 169.548C76.6581 170.217 76.4007 170.74 76.1296 171.117C75.8584 171.493 75.5402 171.756 75.175 171.905C74.8153 172.06 74.3698 172.138 73.8386 172.138ZM87.91 169V164.949H83.4774V169H82.0331V160.052H83.4774V163.754H87.91V160.052H89.3544V169H87.91ZM93.6641 164.924H93.2076V169H91.7632V160.052H93.2076V163.795H93.6641L97.1255 160.052H98.8604L94.7183 164.393V164.136L99.0181 169H97.167L93.6641 164.924ZM106.648 160.052V161.247H103.751V169H102.307V161.247H99.4099V160.052H106.648ZM115.625 167.796L112.719 164.343V164.277C112.88 164.083 113.04 163.892 113.201 163.704C113.367 163.51 113.53 163.319 113.691 163.131C113.851 162.938 114.011 162.744 114.172 162.55C114.332 162.357 114.493 162.166 114.653 161.978C114.814 161.784 114.974 161.593 115.135 161.405C115.301 161.211 115.464 161.017 115.625 160.824H117.318L114.404 164.244V164.376L117.318 167.796H115.625ZM119.302 167.796L116.397 164.343V164.277C116.557 164.083 116.718 163.892 116.878 163.704C117.044 163.51 117.207 163.319 117.368 163.131C117.528 162.938 117.689 162.744 117.849 162.55C118.01 162.357 118.17 162.166 118.331 161.978C118.497 161.784 118.66 161.593 118.82 161.405C118.981 161.211 119.141 161.017 119.302 160.824H120.995L118.082 164.244V164.376L120.995 167.796H119.302ZM123.67 169V157.022H125.164V162.202H131.738V157.022H133.232V169H131.738V163.546H125.164V169H123.67ZM138.297 169.158C137.733 169.158 137.224 169.05 136.77 168.834C136.322 168.618 135.965 168.311 135.699 167.913C135.439 167.514 135.309 167.044 135.309 166.501V166.485C135.309 165.954 135.436 165.5 135.691 165.124C135.945 164.742 136.316 164.443 136.803 164.227C137.29 164.011 137.879 163.884 138.571 163.845L141.858 163.646V164.8L138.746 164.999C138.065 165.038 137.567 165.179 137.251 165.422C136.942 165.666 136.787 166.009 136.787 166.452V166.468C136.787 166.922 136.958 167.276 137.301 167.531C137.644 167.78 138.076 167.904 138.596 167.904C139.089 167.904 139.526 167.807 139.908 167.614C140.289 167.415 140.588 167.146 140.804 166.809C141.025 166.471 141.136 166.089 141.136 165.663V162.874C141.136 162.321 140.967 161.9 140.63 161.612C140.298 161.319 139.797 161.172 139.127 161.172C138.591 161.172 138.151 161.269 137.808 161.463C137.464 161.651 137.235 161.919 137.119 162.268L137.11 162.293H135.666L135.674 162.243C135.752 161.773 135.945 161.363 136.255 161.015C136.571 160.66 136.977 160.387 137.476 160.193C137.974 159.994 138.541 159.894 139.177 159.894C139.908 159.894 140.525 160.013 141.028 160.251C141.537 160.489 141.922 160.832 142.182 161.28C142.448 161.723 142.581 162.254 142.581 162.874V169H141.136V167.68H141.003C140.815 167.996 140.586 168.264 140.314 168.485C140.049 168.707 139.747 168.875 139.41 168.992C139.072 169.102 138.701 169.158 138.297 169.158ZM152.437 169.166C151.723 169.166 151.1 169.044 150.569 168.801C150.043 168.552 149.62 168.214 149.299 167.788C148.978 167.362 148.771 166.881 148.677 166.344L148.668 166.294H150.113L150.129 166.352C150.273 166.845 150.544 167.224 150.943 167.489C151.347 167.755 151.847 167.888 152.445 167.888C152.971 167.888 153.43 167.755 153.823 167.489C154.221 167.218 154.531 166.842 154.753 166.36C154.98 165.879 155.099 165.32 155.11 164.684L155.085 164.028C155.057 163.441 154.927 162.935 154.695 162.509C154.462 162.077 154.152 161.745 153.765 161.513C153.378 161.28 152.938 161.164 152.445 161.164C152.03 161.164 151.665 161.233 151.349 161.372C151.034 161.504 150.777 161.687 150.577 161.919C150.378 162.146 150.234 162.401 150.146 162.683L150.113 162.791H148.668L148.693 162.658C148.793 162.144 149.003 161.676 149.324 161.255C149.645 160.835 150.068 160.503 150.594 160.259C151.12 160.01 151.737 159.886 152.445 159.886C153.281 159.886 154.008 160.077 154.628 160.458C155.248 160.835 155.729 161.369 156.073 162.061C156.416 162.747 156.587 163.555 156.587 164.484V164.501C156.587 165.447 156.416 166.272 156.073 166.975C155.729 167.672 155.245 168.211 154.62 168.593C154 168.975 153.272 169.166 152.437 169.166ZM155.815 164.974H150.934V163.779H155.815V164.974ZM160.449 164.924H159.992V169H158.548V160.052H159.992V163.795H160.449L163.91 160.052H165.645L161.503 164.393V164.136L165.803 169H163.952L160.449 164.924ZM167.373 171.988V160.052H168.818V161.479H168.95C169.133 161.147 169.363 160.865 169.639 160.633C169.916 160.395 170.231 160.212 170.586 160.085C170.94 159.958 171.324 159.894 171.739 159.894C172.498 159.894 173.156 160.088 173.715 160.475C174.279 160.857 174.717 161.394 175.027 162.085C175.336 162.777 175.491 163.588 175.491 164.518V164.534C175.491 165.469 175.336 166.283 175.027 166.975C174.717 167.666 174.279 168.203 173.715 168.585C173.156 168.967 172.498 169.158 171.739 169.158C171.33 169.158 170.943 169.094 170.577 168.967C170.218 168.834 169.897 168.651 169.614 168.419C169.338 168.187 169.116 167.91 168.95 167.589H168.818V171.988H167.373ZM171.407 167.879C171.955 167.879 172.423 167.747 172.81 167.481C173.198 167.21 173.494 166.825 173.698 166.327C173.909 165.824 174.014 165.226 174.014 164.534V164.518C174.014 163.82 173.909 163.223 173.698 162.725C173.494 162.227 173.198 161.845 172.81 161.579C172.423 161.308 171.955 161.172 171.407 161.172C170.865 161.172 170.397 161.308 170.005 161.579C169.612 161.85 169.31 162.235 169.1 162.733C168.889 163.231 168.784 163.826 168.784 164.518V164.534C168.784 165.22 168.889 165.815 169.1 166.319C169.31 166.817 169.612 167.201 170.005 167.473C170.397 167.744 170.865 167.879 171.407 167.879ZM179.942 169.158C179.378 169.158 178.869 169.05 178.415 168.834C177.967 168.618 177.61 168.311 177.344 167.913C177.084 167.514 176.954 167.044 176.954 166.501V166.485C176.954 165.954 177.081 165.5 177.336 165.124C177.59 164.742 177.961 164.443 178.448 164.227C178.935 164.011 179.524 163.884 180.216 163.845L183.503 163.646V164.8L180.39 164.999C179.71 165.038 179.212 165.179 178.896 165.422C178.586 165.666 178.431 166.009 178.431 166.452V166.468C178.431 166.922 178.603 167.276 178.946 167.531C179.289 167.78 179.721 167.904 180.241 167.904C180.734 167.904 181.171 167.807 181.553 167.614C181.934 167.415 182.233 167.146 182.449 166.809C182.67 166.471 182.781 166.089 182.781 165.663V162.874C182.781 162.321 182.612 161.9 182.275 161.612C181.943 161.319 181.442 161.172 180.772 161.172C180.236 161.172 179.796 161.269 179.452 161.463C179.109 161.651 178.88 161.919 178.764 162.268L178.755 162.293H177.311L177.319 162.243C177.397 161.773 177.59 161.363 177.9 161.015C178.216 160.66 178.622 160.387 179.12 160.193C179.618 159.994 180.186 159.894 180.822 159.894C181.553 159.894 182.17 160.013 182.673 160.251C183.182 160.489 183.567 160.832 183.827 161.28C184.093 161.723 184.225 162.254 184.225 162.874V169H182.781V167.68H182.648C182.46 167.996 182.23 168.264 181.959 168.485C181.694 168.707 181.392 168.875 181.055 168.992C180.717 169.102 180.346 169.158 179.942 169.158ZM192.47 169V164.949H188.037V169H186.593V160.052H188.037V163.754H192.47V160.052H193.914V169H192.47ZM201.181 161.745L201.006 157.022H202.55L202.376 161.745H201.181ZM204.252 161.745L204.078 157.022H205.621L205.447 161.745H204.252ZM208.246 171.366H206.86V167.655H207.748C208.041 167.5 208.277 167.282 208.454 167C208.631 166.712 208.764 166.363 208.852 165.954C208.946 165.544 209.007 165.079 209.035 164.559L209.491 157.022H217.07V167.655H218.564V171.366H217.178V169H208.246V171.366ZM210.438 164.592C210.41 165.041 210.368 165.444 210.313 165.804C210.258 166.164 210.175 166.488 210.064 166.775C209.953 167.058 209.798 167.318 209.599 167.556V167.655H215.576V158.367H210.828L210.438 164.592ZM223.82 169.158C222.973 169.158 222.24 168.972 221.62 168.602C221.006 168.225 220.53 167.691 220.193 167C219.861 166.308 219.695 165.486 219.695 164.534V164.518C219.695 163.56 219.861 162.736 220.193 162.044C220.53 161.352 221.006 160.821 221.62 160.45C222.24 160.079 222.973 159.894 223.82 159.894C224.672 159.894 225.406 160.079 226.02 160.45C226.634 160.821 227.107 161.352 227.439 162.044C227.777 162.736 227.946 163.56 227.946 164.518V164.534C227.946 165.486 227.777 166.308 227.439 167C227.107 167.691 226.634 168.225 226.02 168.602C225.406 168.972 224.672 169.158 223.82 169.158ZM223.82 167.879C224.385 167.879 224.863 167.747 225.256 167.481C225.649 167.215 225.948 166.833 226.153 166.335C226.363 165.837 226.468 165.237 226.468 164.534V164.518C226.468 163.809 226.363 163.206 226.153 162.708C225.948 162.21 225.649 161.831 225.256 161.571C224.863 161.305 224.385 161.172 223.82 161.172C223.256 161.172 222.777 161.305 222.384 161.571C221.991 161.831 221.69 162.21 221.479 162.708C221.274 163.206 221.172 163.809 221.172 164.518V164.534C221.172 165.237 221.274 165.837 221.479 166.335C221.69 166.833 221.991 167.215 222.384 167.481C222.777 167.747 223.256 167.879 223.82 167.879ZM231.359 169H229.914V160.052H231.666L234.853 166.991H234.986L238.19 160.052H239.867V169H238.423V162.633H238.265L235.443 168.751H234.33L231.517 162.633H231.359V169ZM245.97 169.158C245.123 169.158 244.39 168.972 243.77 168.602C243.156 168.225 242.68 167.691 242.342 167C242.01 166.308 241.844 165.486 241.844 164.534V164.518C241.844 163.56 242.01 162.736 242.342 162.044C242.68 161.352 243.156 160.821 243.77 160.45C244.39 160.079 245.123 159.894 245.97 159.894C246.822 159.894 247.555 160.079 248.17 160.45C248.784 160.821 249.257 161.352 249.589 162.044C249.927 162.736 250.095 163.56 250.095 164.518V164.534C250.095 165.486 249.927 166.308 249.589 167C249.257 167.691 248.784 168.225 248.17 168.602C247.555 168.972 246.822 169.158 245.97 169.158ZM245.97 167.879C246.534 167.879 247.013 167.747 247.406 167.481C247.799 167.215 248.098 166.833 248.302 166.335C248.513 165.837 248.618 165.237 248.618 164.534V164.518C248.618 163.809 248.513 163.206 248.302 162.708C248.098 162.21 247.799 161.831 247.406 161.571C247.013 161.305 246.534 161.172 245.97 161.172C245.405 161.172 244.927 161.305 244.534 161.571C244.141 161.831 243.839 162.21 243.629 162.708C243.424 163.206 243.322 163.809 243.322 164.518V164.534C243.322 165.237 243.424 165.837 243.629 166.335C243.839 166.833 244.141 167.215 244.534 167.481C244.927 167.747 245.405 167.879 245.97 167.879ZM252.064 169V160.052H253.509V166.726H254.272L253.293 167.257L258.066 160.052H259.51V169H258.066V162.326H257.302L258.282 161.795L253.509 169H252.064ZM255.791 158.807C255.221 158.807 254.723 158.688 254.297 158.45C253.871 158.206 253.539 157.88 253.301 157.47C253.063 157.061 252.944 156.599 252.944 156.084H254.239C254.239 156.538 254.377 156.942 254.654 157.296C254.931 157.65 255.31 157.827 255.791 157.827C256.284 157.827 256.666 157.65 256.937 157.296C257.208 156.942 257.344 156.538 257.344 156.084H258.638C258.638 156.599 258.519 157.061 258.282 157.47C258.044 157.88 257.712 158.206 257.285 158.45C256.859 158.688 256.361 158.807 255.791 158.807ZM262.434 161.745L262.259 157.022H263.803L263.629 161.745H262.434ZM265.505 161.745L265.331 157.022H266.874L266.7 161.745H265.505ZM275.052 160.824L277.958 164.277V164.343C277.797 164.537 277.637 164.731 277.476 164.924C277.316 165.112 277.152 165.303 276.986 165.497C276.826 165.685 276.666 165.876 276.505 166.07C276.345 166.264 276.184 166.457 276.024 166.651C275.863 166.839 275.7 167.03 275.534 167.224C275.373 167.412 275.213 167.603 275.052 167.796H273.359L276.273 164.376V164.244L273.359 160.824H275.052ZM271.375 160.824L274.28 164.277V164.343C274.12 164.537 273.959 164.731 273.799 164.924C273.638 165.112 273.475 165.303 273.309 165.497C273.149 165.685 272.988 165.876 272.828 166.07C272.667 166.264 272.507 166.457 272.346 166.651C272.186 166.839 272.023 167.03 271.857 167.224C271.696 167.412 271.536 167.603 271.375 167.796H269.682L272.595 164.376V164.244L269.682 160.824H271.375ZM281.545 169.083C281.252 169.083 280.997 168.978 280.782 168.768C280.571 168.552 280.466 168.297 280.466 168.004C280.466 167.705 280.571 167.451 280.782 167.24C280.997 167.03 281.252 166.925 281.545 166.925C281.844 166.925 282.099 167.03 282.309 167.24C282.519 167.451 282.624 167.705 282.624 168.004C282.624 168.297 282.519 168.552 282.309 168.768C282.099 168.978 281.844 169.083 281.545 169.083Z" fill="black"/>
<defs>
<filter id="filter0_d_1925_2232" x="0" y="0" width="435" height="318" filterUnits="userSpaceOnUse" color-interpolation-filters="sRGB">
<feFlood flood-opacity="0" result="BackgroundImageFix"/>
<feColorMatrix in="SourceAlpha" type="matrix" values="0 0 0 0 0 0 0 0 0 0 0 0 0 0 0 0 0 0 127 0" result="hardAlpha"/>
<feOffset dy="8"/>
<feGaussianBlur stdDeviation="20"/>
<feComposite in2="hardAlpha" operator="out"/>
<feColorMatrix type="matrix" values="0 0 0 0 0 0 0 0 0 0 0 0 0 0 0 0 0 0 0.12 0"/>
<feBlend mode="normal" in2="BackgroundImageFix" result="effect1_dropShadow_1925_2232"/>
<feBlend mode="normal" in="SourceGraphic" in2="effect1_dropShadow_1925_2232" result="shape"/>
</filter>
</defs>
</svg>
