<svg width="435" height="318" viewBox="0 0 435 318" fill="none" xmlns="http://www.w3.org/2000/svg">
<g filter="url(#filter0_d_1922_2198)">
<path d="M40 86.4C40 67.3582 40 57.8373 43.7058 50.5643C46.9655 44.1668 52.1668 38.9655 58.5643 35.7058C65.8373 32 75.3582 32 94.4 32H340.6C359.642 32 369.163 32 376.436 35.7058C382.833 38.9655 388.035 44.1668 391.294 50.5643C395 57.8373 395 67.3582 395 86.4V215.6C395 234.642 395 244.163 391.294 251.436C388.035 257.833 382.833 263.035 376.436 266.294C369.163 270 359.642 270 340.6 270H94.4C75.3582 270 65.8373 270 58.5643 266.294C52.1668 263.035 46.9655 257.833 43.7058 251.436C40 244.163 40 234.642 40 215.6V86.4Z" fill="white" style="mix-blend-mode:color-dodge" shape-rendering="crispEdges"/>
<path d="M40 86.4C40 67.3582 40 57.8373 43.7058 50.5643C46.9655 44.1668 52.1668 38.9655 58.5643 35.7058C65.8373 32 75.3582 32 94.4 32H340.6C359.642 32 369.163 32 376.436 35.7058C382.833 38.9655 388.035 44.1668 391.294 50.5643C395 57.8373 395 67.3582 395 86.4V215.6C395 234.642 395 244.163 391.294 251.436C388.035 257.833 382.833 263.035 376.436 266.294C369.163 270 359.642 270 340.6 270H94.4C75.3582 270 65.8373 270 58.5643 266.294C52.1668 263.035 46.9655 257.833 43.7058 251.436C40 244.163 40 234.642 40 215.6V86.4Z" fill="#F5F5F5" fill-opacity="0.6" shape-rendering="crispEdges"/>
</g>
<path d="M40 86.4C40 67.3582 40 57.8373 43.7058 50.5643C46.9655 44.1668 52.1668 38.9655 58.5643 35.7058C65.8373 32 75.3582 32 94.4 32H340.6C359.642 32 369.163 32 376.436 35.7058C382.833 38.9655 388.035 44.1668 391.294 50.5643C395 57.8373 395 67.3582 395 86.4V215.6C395 234.642 395 244.163 391.294 251.436C388.035 257.833 382.833 263.035 376.436 266.294C369.163 270 359.642 270 340.6 270H94.4C75.3582 270 65.8373 270 58.5643 266.294C52.1668 263.035 46.9655 257.833 43.7058 251.436C40 244.163 40 234.642 40 215.6V86.4Z" fill="black" fill-opacity="0.01"/>
<path d="M68.5576 71.2988C67.4232 71.2988 66.4437 71.0443 65.6191 70.5352C64.8001 70.026 64.1665 69.3039 63.7183 68.3687C63.2756 67.4279 63.0542 66.3128 63.0542 65.0234V65.0068C63.0542 63.7119 63.2756 62.5968 63.7183 61.6616C64.1665 60.7209 64.8001 59.9959 65.6191 59.4868C66.4382 58.9777 67.4149 58.7231 68.5493 58.7231C69.4569 58.7231 70.2759 58.903 71.0063 59.2627C71.7368 59.6169 72.3317 60.1094 72.791 60.7402C73.2503 61.3656 73.527 62.085 73.6211 62.8984L73.6128 62.9648H71.521L71.5127 62.9233C71.4131 62.453 71.2249 62.0435 70.9482 61.6948C70.6715 61.3407 70.3285 61.0667 69.9189 60.873C69.5094 60.6738 69.0529 60.5742 68.5493 60.5742C67.8742 60.5742 67.2876 60.7541 66.7896 61.1138C66.2915 61.4735 65.9069 61.9854 65.6357 62.6494C65.3701 63.3079 65.2373 64.091 65.2373 64.9985V65.0151C65.2373 65.9227 65.3701 66.7085 65.6357 67.3726C65.9069 68.0366 66.2915 68.5485 66.7896 68.9082C67.2876 69.2679 67.877 69.4478 68.5576 69.4478C69.0667 69.4478 69.5233 69.3592 69.9272 69.1821C70.3368 69.005 70.6771 68.756 70.9482 68.4351C71.2249 68.1086 71.4131 67.7267 71.5127 67.2896L71.5293 67.2397H73.6211V67.3062C73.516 68.103 73.2365 68.8003 72.7827 69.3979C72.3289 69.9956 71.7424 70.4632 71.0229 70.8008C70.3035 71.1328 69.4818 71.2988 68.5576 71.2988ZM78.0554 67.082H77.5905V71H75.5236V61.9272H77.5905V65.5713H78.0304L81.027 61.9272H83.4011L79.591 66.2852V65.9531L83.5754 71H81.0768L78.0554 67.082ZM87.1712 71.1494C86.6013 71.1494 86.0894 71.0387 85.6356 70.8174C85.1874 70.596 84.8332 70.2834 84.5731 69.8794C84.3185 69.4699 84.1913 68.9884 84.1913 68.4351V68.4185C84.1913 67.8817 84.3241 67.4196 84.5897 67.0322C84.8553 66.6393 85.2455 66.3322 85.7601 66.1108C86.2748 65.8895 86.9001 65.7594 87.6361 65.7207L90.9896 65.5132V66.8745L87.9266 67.0737C87.3456 67.1069 86.9167 67.2287 86.64 67.439C86.3633 67.6493 86.225 67.9425 86.225 68.3188V68.3354C86.225 68.7228 86.3716 69.0244 86.6649 69.2402C86.9637 69.4561 87.3428 69.564 87.8021 69.564C88.2171 69.564 88.5879 69.481 88.9144 69.3149C89.2409 69.1489 89.4982 68.9248 89.6864 68.6426C89.8745 68.3548 89.9686 68.0311 89.9686 67.6714V64.7993C89.9686 64.3455 89.8247 63.9997 89.537 63.7617C89.2492 63.5182 88.8231 63.3965 88.2587 63.3965C87.7883 63.3965 87.4037 63.4795 87.1048 63.6455C86.806 63.806 86.604 64.0356 86.4989 64.3345L86.4906 64.3677H84.5399L84.5482 64.293C84.6146 63.7839 84.8138 63.3384 85.1459 62.9565C85.4779 62.5747 85.9178 62.2786 86.4657 62.0684C87.0135 61.8581 87.6444 61.7529 88.3583 61.7529C89.1441 61.7529 89.8081 61.8747 90.3504 62.1182C90.8928 62.3561 91.305 62.7048 91.5873 63.1641C91.8695 63.6178 92.0106 64.1629 92.0106 64.7993V71H89.9686V69.7549H89.8275C89.6615 70.0426 89.4457 70.2917 89.18 70.502C88.9199 70.7122 88.6211 70.8727 88.2836 70.9834C87.946 71.0941 87.5752 71.1494 87.1712 71.1494ZM101.741 71H99.6822V67.3726H99.5328C99.2948 67.5552 98.9987 67.6991 98.6446 67.8042C98.2904 67.9093 97.8809 67.9619 97.4161 67.9619C96.337 67.9619 95.5041 67.6603 94.9175 67.0571C94.3309 66.4539 94.0376 65.6488 94.0376 64.6416V61.9272H96.1045V64.4673C96.1045 65.0262 96.2456 65.4578 96.5279 65.7622C96.8156 66.0666 97.2417 66.2188 97.8062 66.2188C98.1106 66.2188 98.3817 66.1938 98.6197 66.144C98.8632 66.0942 99.0734 66.0251 99.2505 65.9365C99.4276 65.848 99.5715 65.7484 99.6822 65.6377V61.9272H101.741V71ZM106.482 71.1494C105.912 71.1494 105.4 71.0387 104.947 70.8174C104.498 70.596 104.144 70.2834 103.884 69.8794C103.629 69.4699 103.502 68.9884 103.502 68.4351V68.4185C103.502 67.8817 103.635 67.4196 103.901 67.0322C104.166 66.6393 104.556 66.3322 105.071 66.1108C105.586 65.8895 106.211 65.7594 106.947 65.7207L110.301 65.5132V66.8745L107.238 67.0737C106.656 67.1069 106.228 67.2287 105.951 67.439C105.674 67.6493 105.536 67.9425 105.536 68.3188V68.3354C105.536 68.7228 105.683 69.0244 105.976 69.2402C106.275 69.4561 106.654 69.564 107.113 69.564C107.528 69.564 107.899 69.481 108.225 69.3149C108.552 69.1489 108.809 68.9248 108.997 68.6426C109.185 68.3548 109.28 68.0311 109.28 67.6714V64.7993C109.28 64.3455 109.136 63.9997 108.848 63.7617C108.56 63.5182 108.134 63.3965 107.57 63.3965C107.099 63.3965 106.715 63.4795 106.416 63.6455C106.117 63.806 105.915 64.0356 105.81 64.3345L105.801 64.3677H103.851L103.859 64.293C103.926 63.7839 104.125 63.3384 104.457 62.9565C104.789 62.5747 105.229 62.2786 105.777 62.0684C106.324 61.8581 106.955 61.7529 107.669 61.7529C108.455 61.7529 109.119 61.8747 109.661 62.1182C110.204 62.3561 110.616 62.7048 110.898 63.1641C111.18 63.6178 111.322 64.1629 111.322 64.7993V71H109.28V69.7549H109.138C108.972 70.0426 108.757 70.2917 108.491 70.502C108.231 70.7122 107.932 70.8727 107.594 70.9834C107.257 71.0941 106.886 71.1494 106.482 71.1494ZM113.531 71V61.9272H115.573V68.0034H116.644L115.233 68.8003L119.566 61.9272H121.6V71H119.566V64.8906H118.495L119.89 64.0854L115.573 71H113.531ZM117.574 60.6904C116.965 60.6904 116.431 60.5687 115.972 60.3252C115.518 60.0817 115.164 59.7469 114.909 59.3208C114.655 58.8947 114.527 58.4077 114.527 57.8599H116.154C116.16 58.3081 116.29 58.6927 116.544 59.0137C116.799 59.3291 117.142 59.4868 117.574 59.4868C118.016 59.4868 118.362 59.3291 118.611 59.0137C118.86 58.6927 118.988 58.3081 118.993 57.8599H120.62C120.62 58.4077 120.493 58.8947 120.238 59.3208C119.984 59.7469 119.627 60.0817 119.167 60.3252C118.714 60.5687 118.182 60.6904 117.574 60.6904ZM132.908 71V67.9453H131.73L129.605 71H127.247L129.679 67.605C129.06 67.4224 128.573 67.1014 128.219 66.6421C127.864 66.1828 127.687 65.6432 127.687 65.0234V65.0068C127.687 64.376 127.834 63.8309 128.127 63.3716C128.42 62.9123 128.83 62.5581 129.356 62.3091C129.881 62.0545 130.496 61.9272 131.198 61.9272H134.942V71H132.908ZM131.356 66.4263H132.908V63.5127H131.356C130.858 63.5127 130.465 63.6483 130.177 63.9194C129.89 64.1851 129.746 64.5448 129.746 64.9985V65.0151C129.746 65.4246 129.89 65.7622 130.177 66.0278C130.465 66.2935 130.858 66.4263 131.356 66.4263ZM138.048 73.3657H136.156V69.3813H136.87C137.202 69.1877 137.448 68.8446 137.608 68.3521C137.769 67.854 137.868 67.3006 137.907 66.6919L138.223 61.9272H145.046V69.3813H146.44V73.3657H144.556V71H138.048V73.3657ZM142.979 69.3813V63.5459H139.991L139.75 66.7998C139.717 67.2979 139.645 67.7599 139.534 68.186C139.423 68.6066 139.271 68.958 139.078 69.2402V69.3813H142.979ZM147.778 74.0132V61.9272H149.845V63.3467H149.986C150.152 63.0202 150.368 62.7407 150.634 62.5083C150.905 62.2759 151.218 62.096 151.572 61.9688C151.926 61.8415 152.316 61.7778 152.742 61.7778C153.5 61.7778 154.156 61.9688 154.71 62.3506C155.269 62.7324 155.7 63.2747 156.005 63.9775C156.314 64.6748 156.469 65.5021 156.469 66.4595V66.4761C156.469 67.439 156.317 68.269 156.013 68.9663C155.708 69.6636 155.277 70.2031 154.718 70.585C154.165 70.9613 153.506 71.1494 152.742 71.1494C152.327 71.1494 151.94 71.0858 151.58 70.9585C151.22 70.8257 150.905 70.6403 150.634 70.4023C150.363 70.1644 150.147 69.8822 149.986 69.5557H149.845V74.0132H147.778ZM152.095 69.4062C152.565 69.4062 152.969 69.29 153.307 69.0576C153.644 68.8197 153.904 68.4821 154.087 68.0449C154.27 67.6022 154.361 67.0793 154.361 66.4761V66.4595C154.361 65.8452 154.27 65.3195 154.087 64.8823C153.904 64.4451 153.644 64.1104 153.307 63.8779C152.969 63.64 152.565 63.521 152.095 63.521C151.624 63.521 151.218 63.64 150.875 63.8779C150.537 64.1104 150.274 64.4451 150.086 64.8823C149.903 65.3195 149.812 65.8424 149.812 66.4512V66.4678C149.812 67.0765 149.903 67.6022 150.086 68.0449C150.274 68.4821 150.54 68.8197 150.883 69.0576C151.226 69.29 151.63 69.4062 152.095 69.4062ZM162.207 71.1826C161.305 71.1826 160.527 70.9945 159.874 70.6182C159.221 70.2363 158.718 69.694 158.364 68.9912C158.015 68.2884 157.841 67.4473 157.841 66.4678V66.4512C157.841 65.4827 158.018 64.6471 158.372 63.9443C158.726 63.236 159.227 62.6937 159.874 62.3174C160.527 61.9411 161.305 61.7529 162.207 61.7529C163.109 61.7529 163.884 61.9411 164.531 62.3174C165.184 62.6937 165.688 63.2332 166.042 63.936C166.396 64.6388 166.573 65.4772 166.573 66.4512V66.4678C166.573 67.4473 166.396 68.2884 166.042 68.9912C165.693 69.694 165.192 70.2363 164.539 70.6182C163.892 70.9945 163.114 71.1826 162.207 71.1826ZM162.207 69.5059C162.683 69.5059 163.087 69.3869 163.419 69.1489C163.756 68.9054 164.014 68.5596 164.191 68.1113C164.368 67.6576 164.456 67.1125 164.456 66.4761V66.4595C164.456 65.8175 164.368 65.2725 164.191 64.8242C164.014 64.3704 163.756 64.0246 163.419 63.7866C163.087 63.5431 162.683 63.4214 162.207 63.4214C161.731 63.4214 161.324 63.5431 160.987 63.7866C160.649 64.0246 160.392 64.3704 160.215 64.8242C160.038 65.2725 159.949 65.8175 159.949 66.4595V66.4761C159.949 67.1125 160.038 67.6576 160.215 68.1113C160.392 68.5651 160.646 68.911 160.978 69.1489C161.316 69.3869 161.725 69.5059 162.207 69.5059ZM172.478 71V61.9272H174.52V68.0034H175.591L174.18 68.8003L178.513 61.9272H180.547V71H178.513V64.8906H177.442L178.837 64.0854L174.52 71H172.478ZM188.907 63.5293H184.856V71H182.789V61.9272H188.907V63.5293ZM190.569 74.0132V61.9272H192.636V63.3467H192.777C192.943 63.0202 193.159 62.7407 193.424 62.5083C193.695 62.2759 194.008 62.096 194.362 61.9688C194.716 61.8415 195.107 61.7778 195.533 61.7778C196.291 61.7778 196.947 61.9688 197.5 62.3506C198.059 62.7324 198.491 63.2747 198.795 63.9775C199.105 64.6748 199.26 65.5021 199.26 66.4595V66.4761C199.26 67.439 199.108 68.269 198.803 68.9663C198.499 69.6636 198.067 70.2031 197.508 70.585C196.955 70.9613 196.296 71.1494 195.533 71.1494C195.118 71.1494 194.73 71.0858 194.371 70.9585C194.011 70.8257 193.695 70.6403 193.424 70.4023C193.153 70.1644 192.937 69.8822 192.777 69.5557H192.636V74.0132H190.569ZM194.885 69.4062C195.356 69.4062 195.76 69.29 196.097 69.0576C196.435 68.8197 196.695 68.4821 196.877 68.0449C197.06 67.6022 197.151 67.0793 197.151 66.4761V66.4595C197.151 65.8452 197.06 65.3195 196.877 64.8823C196.695 64.4451 196.435 64.1104 196.097 63.8779C195.76 63.64 195.356 63.521 194.885 63.521C194.415 63.521 194.008 63.64 193.665 63.8779C193.327 64.1104 193.065 64.4451 192.876 64.8823C192.694 65.3195 192.603 65.8424 192.603 66.4512V66.4678C192.603 67.0765 192.694 67.6022 192.876 68.0449C193.065 68.4821 193.33 68.8197 193.673 69.0576C194.016 69.29 194.42 69.4062 194.885 69.4062ZM201.071 71V61.9272H203.138V64.6665H204.923C205.985 64.6665 206.829 64.9543 207.454 65.5298C208.085 66.0998 208.401 66.8662 208.401 67.8291V67.8457C208.401 68.8086 208.085 69.575 207.454 70.145C206.829 70.715 205.985 71 204.923 71H201.071ZM204.657 66.2603H203.138V69.4062H204.657C205.166 69.4062 205.57 69.2624 205.869 68.9746C206.168 68.6813 206.317 68.3022 206.317 67.8374V67.8208C206.317 67.3504 206.168 66.9741 205.869 66.6919C205.57 66.4041 205.166 66.2603 204.657 66.2603ZM209.886 71V61.9272H211.953V71H209.886Z" fill="black"/>
<path d="M68.4331 103.282C67.3485 103.282 66.4105 103.028 65.6191 102.519C64.8278 102.009 64.2163 101.287 63.7847 100.352C63.3586 99.4168 63.1455 98.3073 63.1455 97.0234V97.0068C63.1455 95.7174 63.3586 94.6051 63.7847 93.6699C64.2163 92.7347 64.825 92.0125 65.6108 91.5034C66.4022 90.9943 67.3402 90.7397 68.4248 90.7397C69.266 90.7397 70.0296 90.9058 70.7158 91.2378C71.4076 91.5643 71.9775 92.0208 72.4258 92.6074C72.874 93.1885 73.1562 93.8608 73.2725 94.6245L73.2642 94.6411H71.7617L71.7534 94.6245C71.6206 94.1099 71.3965 93.6672 71.0811 93.2964C70.7656 92.9201 70.381 92.6296 69.9272 92.4248C69.479 92.2201 68.9782 92.1177 68.4248 92.1177C67.6611 92.1177 66.9971 92.3169 66.4326 92.7153C65.8737 93.1138 65.4421 93.6782 65.1377 94.4087C64.8333 95.1392 64.6812 96.0052 64.6812 97.0068V97.0234C64.6812 98.0195 64.8333 98.8828 65.1377 99.6133C65.4421 100.344 65.8737 100.908 66.4326 101.307C66.9971 101.705 67.6639 101.904 68.4331 101.904C68.992 101.904 69.4984 101.816 69.9521 101.639C70.4059 101.456 70.7878 101.199 71.0977 100.867C71.4076 100.529 71.6234 100.131 71.7451 99.6714L71.7617 99.6548H73.2725V99.6714C73.1396 100.402 72.8519 101.038 72.4092 101.581C71.9665 102.117 71.4048 102.535 70.7241 102.834C70.049 103.133 69.2853 103.282 68.4331 103.282ZM81.2013 103V98.9492H76.7687V103H75.3244V94.0518H76.7687V97.7539H81.2013V94.0518H82.6457V103H81.2013ZM87.5199 103.158C86.9554 103.158 86.4463 103.05 85.9925 102.834C85.5443 102.618 85.1874 102.311 84.9217 101.913C84.6616 101.514 84.5316 101.044 84.5316 100.501V100.485C84.5316 99.9536 84.6589 99.4998 84.9134 99.1235C85.168 98.7417 85.5388 98.4429 86.0257 98.2271C86.5127 98.0112 87.1021 97.884 87.7938 97.8452L91.0809 97.646V98.7998L87.9681 98.999C87.2875 99.0378 86.7894 99.1789 86.474 99.4224C86.1641 99.6659 86.0091 100.009 86.0091 100.452V100.468C86.0091 100.922 86.1807 101.276 86.5238 101.531C86.8669 101.78 87.2985 101.904 87.8187 101.904C88.3112 101.904 88.7484 101.807 89.1302 101.614C89.5121 101.415 89.8109 101.146 90.0267 100.809C90.2481 100.471 90.3587 100.089 90.3587 99.6631V96.874C90.3587 96.3206 90.19 95.9001 89.8524 95.6123C89.5204 95.319 89.0196 95.1724 88.35 95.1724C87.8132 95.1724 87.3732 95.2692 87.0301 95.4629C86.687 95.651 86.4574 95.9194 86.3412 96.2681L86.3329 96.293H84.8885L84.8968 96.2432C84.9743 95.7728 85.168 95.3633 85.4779 95.0146C85.7933 94.6605 86.2001 94.3866 86.6981 94.1929C87.1962 93.9937 87.7634 93.894 88.3998 93.894C89.1302 93.894 89.7473 94.013 90.2508 94.251C90.76 94.4889 91.1446 94.832 91.4046 95.2803C91.6703 95.723 91.8031 96.2542 91.8031 96.874V103H90.3587V101.68H90.2259C90.0378 101.996 89.8081 102.264 89.537 102.485C89.2713 102.707 88.9698 102.875 88.6322 102.992C88.2946 103.102 87.9239 103.158 87.5199 103.158ZM100.994 103H99.5494V99.2729H99.4165C99.1786 99.4445 98.8825 99.5773 98.5284 99.6714C98.1797 99.7655 97.7647 99.8125 97.2832 99.8125C96.2041 99.8125 95.3879 99.5164 94.8345 98.9243C94.2811 98.3322 94.0044 97.5602 94.0044 96.6084V94.0518H95.4488V96.6084C95.4488 97.195 95.6009 97.6626 95.9053 98.0112C96.2152 98.3599 96.6745 98.5342 97.2832 98.5342C97.6595 98.5342 97.9943 98.5037 98.2876 98.4429C98.5809 98.382 98.8327 98.299 99.043 98.1938C99.2588 98.0887 99.4276 97.967 99.5494 97.8286V94.0518H100.994V103ZM105.868 103.158C105.303 103.158 104.794 103.05 104.341 102.834C103.892 102.618 103.535 102.311 103.27 101.913C103.01 101.514 102.88 101.044 102.88 100.501V100.485C102.88 99.9536 103.007 99.4998 103.261 99.1235C103.516 98.7417 103.887 98.4429 104.374 98.2271C104.861 98.0112 105.45 97.884 106.142 97.8452L109.429 97.646V98.7998L106.316 98.999C105.635 99.0378 105.137 99.1789 104.822 99.4224C104.512 99.6659 104.357 100.009 104.357 100.452V100.468C104.357 100.922 104.529 101.276 104.872 101.531C105.215 101.78 105.647 101.904 106.167 101.904C106.659 101.904 107.096 101.807 107.478 101.614C107.86 101.415 108.159 101.146 108.375 100.809C108.596 100.471 108.707 100.089 108.707 99.6631V96.874C108.707 96.3206 108.538 95.9001 108.2 95.6123C107.868 95.319 107.368 95.1724 106.698 95.1724C106.161 95.1724 105.721 95.2692 105.378 95.4629C105.035 95.651 104.805 95.9194 104.689 96.2681L104.681 96.293H103.237L103.245 96.2432C103.322 95.7728 103.516 95.3633 103.826 95.0146C104.141 94.6605 104.548 94.3866 105.046 94.1929C105.544 93.9937 106.111 93.894 106.748 93.894C107.478 93.894 108.095 94.013 108.599 94.251C109.108 94.4889 109.493 94.832 109.753 95.2803C110.018 95.723 110.151 96.2542 110.151 96.874V103H108.707V101.68H108.574C108.386 101.996 108.156 102.264 107.885 102.485C107.619 102.707 107.318 102.875 106.98 102.992C106.643 103.102 106.272 103.158 105.868 103.158ZM114.619 99.4971C114.558 100.316 114.428 100.991 114.228 101.522C114.035 102.054 113.766 102.447 113.423 102.701C113.086 102.956 112.668 103.083 112.17 103.083C112.015 103.083 111.882 103.072 111.771 103.05C111.661 103.033 111.575 103.014 111.514 102.992V101.688C111.553 101.7 111.622 101.713 111.722 101.73C111.821 101.741 111.924 101.747 112.029 101.747C112.305 101.747 112.53 101.641 112.701 101.431C112.873 101.221 113.003 100.939 113.091 100.584C113.185 100.225 113.246 99.8236 113.274 99.3809L113.656 94.0518H119.508V103H118.063V95.2471H114.951L114.619 99.4971ZM124.382 103.158C123.817 103.158 123.308 103.05 122.855 102.834C122.406 102.618 122.049 102.311 121.784 101.913C121.524 101.514 121.394 101.044 121.394 100.501V100.485C121.394 99.9536 121.521 99.4998 121.775 99.1235C122.03 98.7417 122.401 98.4429 122.888 98.2271C123.375 98.0112 123.964 97.884 124.656 97.8452L127.943 97.646V98.7998L124.83 98.999C124.149 99.0378 123.651 99.1789 123.336 99.4224C123.026 99.6659 122.871 100.009 122.871 100.452V100.468C122.871 100.922 123.043 101.276 123.386 101.531C123.729 101.78 124.161 101.904 124.681 101.904C125.173 101.904 125.61 101.807 125.992 101.614C126.374 101.415 126.673 101.146 126.889 100.809C127.11 100.471 127.221 100.089 127.221 99.6631V96.874C127.221 96.3206 127.052 95.9001 126.714 95.6123C126.382 95.319 125.882 95.1724 125.212 95.1724C124.675 95.1724 124.235 95.2692 123.892 95.4629C123.549 95.651 123.319 95.9194 123.203 96.2681L123.195 96.293H121.751L121.759 96.2432C121.836 95.7728 122.03 95.3633 122.34 95.0146C122.655 94.6605 123.062 94.3866 123.56 94.1929C124.058 93.9937 124.625 93.894 125.262 93.894C125.992 93.894 126.609 94.013 127.113 94.251C127.622 94.4889 128.007 94.832 128.267 95.2803C128.532 95.723 128.665 96.2542 128.665 96.874V103H127.221V101.68H127.088C126.9 101.996 126.67 102.264 126.399 102.485C126.133 102.707 125.832 102.875 125.494 102.992C125.157 103.102 124.786 103.158 124.382 103.158ZM141.261 103V98.9492H136.828V103H135.384V94.0518H136.828V97.7539H141.261V94.0518H142.705V103H141.261ZM145.886 106.138C145.792 106.138 145.687 106.132 145.57 106.121C145.454 106.116 145.346 106.104 145.247 106.088V104.901C145.335 104.917 145.432 104.929 145.537 104.934C145.642 104.94 145.745 104.942 145.844 104.942C146.254 104.942 146.589 104.837 146.849 104.627C147.114 104.417 147.327 104.054 147.488 103.54L147.654 103.008L144.342 94.0518H145.886L148.642 102.319L148.069 101.415H148.75L148.177 102.319L150.924 94.0518H152.443L148.949 103.548C148.705 104.217 148.448 104.74 148.177 105.117C147.906 105.493 147.588 105.756 147.222 105.905C146.863 106.06 146.417 106.138 145.886 106.138ZM154.711 103H152.927L156.786 98.2852L153.059 94.0518H154.794L157.924 97.8203H158.455V94.0518H159.849V97.8203H160.381L163.51 94.0518H165.22L161.518 98.252L165.403 103H163.593L160.381 98.8994H159.849V103H158.455V98.8994H157.924L154.711 103ZM172.709 103V98.9492H168.276V103H166.832V94.0518H168.276V97.7539H172.709V94.0518H174.153V103H172.709ZM180.248 103.158C179.401 103.158 178.668 102.972 178.048 102.602C177.434 102.225 176.958 101.691 176.62 101C176.288 100.308 176.122 99.486 176.122 98.5342V98.5176C176.122 97.5602 176.288 96.7357 176.62 96.0439C176.958 95.3522 177.434 94.821 178.048 94.4502C178.668 94.0794 179.401 93.894 180.248 93.894C181.1 93.894 181.833 94.0794 182.447 94.4502C183.062 94.821 183.535 95.3522 183.867 96.0439C184.204 96.7357 184.373 97.5602 184.373 98.5176V98.5342C184.373 99.486 184.204 100.308 183.867 101C183.535 101.691 183.062 102.225 182.447 102.602C181.833 102.972 181.1 103.158 180.248 103.158ZM180.248 101.879C180.812 101.879 181.291 101.747 181.684 101.481C182.077 101.215 182.375 100.833 182.58 100.335C182.791 99.8374 182.896 99.237 182.896 98.5342V98.5176C182.896 97.8092 182.791 97.2061 182.58 96.708C182.375 96.21 182.077 95.8309 181.684 95.5708C181.291 95.3052 180.812 95.1724 180.248 95.1724C179.683 95.1724 179.205 95.3052 178.812 95.5708C178.419 95.8309 178.117 96.21 177.907 96.708C177.702 97.2061 177.6 97.8092 177.6 98.5176V98.5342C177.6 99.237 177.702 99.8374 177.907 100.335C178.117 100.833 178.419 101.215 178.812 101.481C179.205 101.747 179.683 101.879 180.248 101.879ZM190.901 105.366H189.556V101.805H190.303C190.63 101.589 190.879 101.226 191.05 100.717C191.222 100.203 191.327 99.6437 191.366 99.0405L191.714 94.0518H197.815V101.805H199.243V105.366H197.898V103H190.901V105.366ZM196.371 101.805V95.2471H192.993L192.71 99.0737C192.672 99.616 192.591 100.117 192.47 100.576C192.348 101.03 192.182 101.395 191.972 101.672V101.805H196.371ZM204.375 103.158C203.528 103.158 202.795 102.972 202.175 102.602C201.561 102.225 201.085 101.691 200.747 101C200.415 100.308 200.249 99.486 200.249 98.5342V98.5176C200.249 97.5602 200.415 96.7357 200.747 96.0439C201.085 95.3522 201.561 94.821 202.175 94.4502C202.795 94.0794 203.528 93.894 204.375 93.894C205.227 93.894 205.96 94.0794 206.574 94.4502C207.189 94.821 207.662 95.3522 207.994 96.0439C208.331 96.7357 208.5 97.5602 208.5 98.5176V98.5342C208.5 99.486 208.331 100.308 207.994 101C207.662 101.691 207.189 102.225 206.574 102.602C205.96 102.972 205.227 103.158 204.375 103.158ZM204.375 101.879C204.939 101.879 205.418 101.747 205.811 101.481C206.204 101.215 206.502 100.833 206.707 100.335C206.918 99.8374 207.023 99.237 207.023 98.5342V98.5176C207.023 97.8092 206.918 97.2061 206.707 96.708C206.502 96.21 206.204 95.8309 205.811 95.5708C205.418 95.3052 204.939 95.1724 204.375 95.1724C203.81 95.1724 203.332 95.3052 202.939 95.5708C202.546 95.8309 202.244 96.21 202.034 96.708C201.829 97.2061 201.727 97.8092 201.727 98.5176V98.5342C201.727 99.237 201.829 99.8374 202.034 100.335C202.244 100.833 202.546 101.215 202.939 101.481C203.332 101.747 203.81 101.879 204.375 101.879ZM214.196 103.166C213.283 103.166 212.517 102.961 211.897 102.552C211.277 102.137 210.809 101.525 210.494 100.717C210.184 99.9093 210.029 98.9077 210.029 97.7124V97.6958C210.029 96.506 210.115 95.485 210.286 94.6328C210.458 93.7751 210.724 93.0695 211.083 92.5161C211.449 91.9572 211.916 91.5366 212.486 91.2544C213.062 90.9722 213.748 90.8117 214.545 90.7729L215.441 90.7314C215.801 90.7148 216.183 90.6706 216.587 90.5986C216.991 90.5212 217.386 90.4049 217.774 90.25V91.5283C217.635 91.6611 217.353 91.7773 216.927 91.877C216.501 91.971 216.028 92.0319 215.508 92.0596L214.595 92.1011C213.903 92.1287 213.33 92.2643 212.876 92.5078C212.428 92.7513 212.077 93.1248 211.822 93.6284C211.568 94.132 211.385 94.7905 211.274 95.604L211.249 95.7866H211.382C211.587 95.4269 211.839 95.1253 212.138 94.8818C212.436 94.6383 212.777 94.453 213.159 94.3257C213.546 94.1984 213.964 94.1348 214.412 94.1348C215.214 94.1348 215.912 94.3174 216.504 94.6826C217.096 95.0423 217.552 95.5514 217.873 96.21C218.2 96.8685 218.363 97.6488 218.363 98.5508V98.5674C218.363 99.5137 218.194 100.333 217.857 101.024C217.525 101.711 217.046 102.239 216.421 102.61C215.801 102.981 215.059 103.166 214.196 103.166ZM214.196 101.888C214.766 101.888 215.25 101.758 215.649 101.498C216.053 101.232 216.36 100.853 216.57 100.36C216.78 99.8623 216.886 99.2646 216.886 98.5674V98.5508C216.886 97.8812 216.78 97.314 216.57 96.8491C216.36 96.3843 216.053 96.0301 215.649 95.7866C215.25 95.5376 214.766 95.4131 214.196 95.4131C213.626 95.4131 213.139 95.5376 212.735 95.7866C212.337 96.0301 212.032 96.3843 211.822 96.8491C211.612 97.314 211.507 97.8812 211.507 98.5508V98.5674C211.507 99.2646 211.612 99.8623 211.822 100.36C212.032 100.853 212.337 101.232 212.735 101.498C213.139 101.758 213.626 101.888 214.196 101.888ZM222.797 103.158C222.233 103.158 221.724 103.05 221.27 102.834C220.822 102.618 220.465 102.311 220.199 101.913C219.939 101.514 219.809 101.044 219.809 100.501V100.485C219.809 99.9536 219.936 99.4998 220.191 99.1235C220.446 98.7417 220.816 98.4429 221.303 98.2271C221.79 98.0112 222.38 97.884 223.071 97.8452L226.358 97.646V98.7998L223.246 98.999C222.565 99.0378 222.067 99.1789 221.752 99.4224C221.442 99.6659 221.287 100.009 221.287 100.452V100.468C221.287 100.922 221.458 101.276 221.801 101.531C222.144 101.78 222.576 101.904 223.096 101.904C223.589 101.904 224.026 101.807 224.408 101.614C224.79 101.415 225.088 101.146 225.304 100.809C225.526 100.471 225.636 100.089 225.636 99.6631V96.874C225.636 96.3206 225.468 95.9001 225.13 95.6123C224.798 95.319 224.297 95.1724 223.628 95.1724C223.091 95.1724 222.651 95.2692 222.308 95.4629C221.965 95.651 221.735 95.9194 221.619 96.2681L221.61 96.293H220.166L220.174 96.2432C220.252 95.7728 220.446 95.3633 220.755 95.0146C221.071 94.6605 221.478 94.3866 221.976 94.1929C222.474 93.9937 223.041 93.894 223.677 93.894C224.408 93.894 225.025 94.013 225.528 94.251C226.037 94.4889 226.422 94.832 226.682 95.2803C226.948 95.723 227.081 96.2542 227.081 96.874V103H225.636V101.68H225.503C225.315 101.996 225.086 102.264 224.815 102.485C224.549 102.707 224.247 102.875 223.91 102.992C223.572 103.102 223.201 103.158 222.797 103.158ZM229.448 103V94.0518H233.241C234.088 94.0518 234.747 94.2648 235.217 94.6909C235.687 95.1115 235.923 95.6732 235.923 96.376V96.3926C235.923 96.8353 235.784 97.242 235.508 97.6128C235.231 97.978 234.882 98.2049 234.462 98.2935V98.4263C234.843 98.4761 235.173 98.5951 235.449 98.7832C235.726 98.9658 235.939 99.1982 236.089 99.4805C236.244 99.7572 236.321 100.07 236.321 100.418V100.435C236.321 100.95 236.199 101.401 235.956 101.788C235.712 102.17 235.361 102.469 234.902 102.685C234.448 102.895 233.9 103 233.258 103H229.448ZM230.892 101.805H233.2C233.748 101.805 234.16 101.686 234.437 101.448C234.713 101.204 234.852 100.858 234.852 100.41V100.394C234.852 99.9176 234.691 99.5718 234.37 99.356C234.049 99.1401 233.568 99.0322 232.926 99.0322H230.892V101.805ZM230.892 97.8369H232.801C233.383 97.8369 233.809 97.7262 234.08 97.5049C234.351 97.2835 234.487 96.9626 234.487 96.542V96.5254C234.487 96.1436 234.37 95.8364 234.138 95.604C233.906 95.366 233.538 95.2471 233.034 95.2471H230.892V97.8369ZM238.331 103V94.0518H239.776V100.726H240.539L239.56 101.257L244.333 94.0518H245.777V103H244.333V96.3262H243.569L244.549 95.7949L239.776 103H238.331ZM254.677 94.0518V95.2471H251.78V103H250.336V95.2471H247.439V94.0518H254.677ZM256.331 103V94.0518H257.775V96.9238H259.527C260.55 96.9238 261.367 97.1978 261.975 97.7456C262.584 98.2935 262.888 99.0295 262.888 99.9536V99.9702C262.888 100.894 262.584 101.63 261.975 102.178C261.367 102.726 260.55 103 259.527 103H256.331ZM259.527 98.1191H257.775V101.805H259.527C260.119 101.805 260.586 101.639 260.929 101.307C261.273 100.969 261.444 100.524 261.444 99.9702V99.9536C261.444 99.3947 261.27 98.9492 260.921 98.6172C260.578 98.2852 260.113 98.1191 259.527 98.1191ZM272.703 103.158C271.868 103.158 271.143 102.967 270.528 102.585C269.914 102.203 269.438 101.664 269.101 100.966C268.763 100.269 268.594 99.4473 268.594 98.501V98.4844C268.594 97.5547 268.76 96.7467 269.092 96.0605C269.43 95.3743 269.906 94.8431 270.52 94.4668C271.134 94.085 271.859 93.894 272.695 93.894C273.42 93.894 274.045 94.0213 274.571 94.2759C275.097 94.5304 275.517 94.8735 275.833 95.3052C276.148 95.7313 276.35 96.21 276.439 96.7412L276.447 96.791H275.011L275.003 96.7661C274.892 96.3234 274.64 95.9471 274.247 95.6372C273.854 95.3273 273.337 95.1724 272.695 95.1724C272.158 95.1724 271.693 95.3079 271.3 95.5791C270.908 95.8503 270.603 96.2349 270.387 96.7329C270.177 97.2254 270.072 97.8092 270.072 98.4844V98.501C270.072 99.1872 270.18 99.7848 270.396 100.294C270.611 100.798 270.916 101.188 271.309 101.464C271.702 101.741 272.164 101.879 272.695 101.879C273.298 101.879 273.791 101.749 274.173 101.489C274.554 101.229 274.828 100.85 274.994 100.352L275.011 100.302L276.439 100.294L276.422 100.385C276.3 100.922 276.084 101.401 275.775 101.821C275.465 102.236 275.055 102.563 274.546 102.801C274.037 103.039 273.423 103.158 272.703 103.158ZM278.283 103V94.0518H279.727V100.726H280.491L279.512 101.257L284.284 94.0518H285.729V103H284.284V96.3262H283.521L284.5 95.7949L279.727 103H278.283ZM291.815 103.158C290.979 103.158 290.254 102.967 289.64 102.585C289.026 102.203 288.55 101.664 288.212 100.966C287.875 100.269 287.706 99.4473 287.706 98.501V98.4844C287.706 97.5547 287.872 96.7467 288.204 96.0605C288.542 95.3743 289.018 94.8431 289.632 94.4668C290.246 94.085 290.971 93.894 291.807 93.894C292.532 93.894 293.157 94.0213 293.683 94.2759C294.208 94.5304 294.629 94.8735 294.944 95.3052C295.26 95.7313 295.462 96.21 295.55 96.7412L295.559 96.791H294.123L294.114 96.7661C294.004 96.3234 293.752 95.9471 293.359 95.6372C292.966 95.3273 292.449 95.1724 291.807 95.1724C291.27 95.1724 290.805 95.3079 290.412 95.5791C290.019 95.8503 289.715 96.2349 289.499 96.7329C289.289 97.2254 289.184 97.8092 289.184 98.4844V98.501C289.184 99.1872 289.292 99.7848 289.507 100.294C289.723 100.798 290.028 101.188 290.42 101.464C290.813 101.741 291.275 101.879 291.807 101.879C292.41 101.879 292.902 101.749 293.284 101.489C293.666 101.229 293.94 100.85 294.106 100.352L294.123 100.302L295.55 100.294L295.534 100.385C295.412 100.922 295.196 101.401 294.886 101.821C294.576 102.236 294.167 102.563 293.658 102.801C293.149 103.039 292.534 103.158 291.815 103.158ZM303.463 94.0518V95.2471H300.566V103H299.121V95.2471H296.224V94.0518H303.463ZM308.445 103.158C307.592 103.158 306.859 102.97 306.245 102.593C305.636 102.217 305.166 101.686 304.834 101C304.507 100.308 304.344 99.4943 304.344 98.5591V98.5508C304.344 97.6266 304.507 96.8159 304.834 96.1187C305.166 95.4214 305.633 94.8763 306.237 94.4834C306.84 94.0905 307.545 93.894 308.353 93.894C309.167 93.894 309.864 94.0822 310.445 94.4585C311.032 94.8348 311.48 95.3605 311.79 96.0356C312.105 96.7052 312.263 97.4855 312.263 98.3765V98.9409H305.091V97.7871H311.524L310.81 98.8413V98.2686C310.81 97.5658 310.705 96.9875 310.495 96.5337C310.285 96.0799 309.994 95.7424 309.623 95.521C309.253 95.2941 308.827 95.1807 308.345 95.1807C307.864 95.1807 307.432 95.2996 307.05 95.5376C306.674 95.77 306.375 96.1159 306.154 96.5752C305.932 97.0345 305.822 97.599 305.822 98.2686V98.8413C305.822 99.4777 305.93 100.023 306.145 100.477C306.361 100.925 306.668 101.271 307.067 101.514C307.465 101.752 307.936 101.871 308.478 101.871C308.882 101.871 309.233 101.816 309.532 101.705C309.831 101.594 310.077 101.453 310.271 101.282C310.465 101.11 310.6 100.936 310.678 100.759L310.711 100.684H312.155L312.139 100.75C312.061 101.055 311.923 101.351 311.723 101.639C311.53 101.921 311.278 102.178 310.968 102.411C310.658 102.638 310.29 102.82 309.864 102.958C309.444 103.091 308.97 103.158 308.445 103.158ZM315.676 103H314.232V94.0518H315.983L319.171 100.991H319.304L322.508 94.0518H324.185V103H322.74V96.6333H322.583L319.76 102.751H318.648L315.834 96.6333H315.676V103ZM332.479 103V98.9492H328.046V103H326.602V94.0518H328.046V97.7539H332.479V94.0518H333.923V103H332.479ZM336.332 103V94.0518H337.776V96.9238H339.528C340.552 96.9238 341.368 97.1978 341.976 97.7456C342.585 98.2935 342.89 99.0295 342.89 99.9536V99.9702C342.89 100.894 342.585 101.63 341.976 102.178C341.368 102.726 340.552 103 339.528 103H336.332ZM339.528 98.1191H337.776V101.805H339.528C340.12 101.805 340.587 101.639 340.931 101.307C341.274 100.969 341.445 100.524 341.445 99.9702V99.9536C341.445 99.3947 341.271 98.9492 340.922 98.6172C340.579 98.2852 340.114 98.1191 339.528 98.1191ZM344.45 103V94.0518H345.894V103H344.45ZM348.303 103V94.0518H349.748V100.726H350.511L349.532 101.257L354.305 94.0518H355.749V103H354.305V96.3262H353.541L354.521 95.7949L349.748 103H348.303ZM352.03 92.8066C351.46 92.8066 350.962 92.6877 350.536 92.4497C350.11 92.2062 349.778 91.8797 349.54 91.4702C349.302 91.0607 349.183 90.5986 349.183 90.084H350.478C350.478 90.5378 350.616 90.9417 350.893 91.2959C351.17 91.6501 351.549 91.8271 352.03 91.8271C352.523 91.8271 352.905 91.6501 353.176 91.2959C353.447 90.9417 353.583 90.5378 353.583 90.084H354.878C354.878 90.5986 354.759 91.0607 354.521 91.4702C354.283 91.8797 353.951 92.2062 353.525 92.4497C353.098 92.6877 352.6 92.8066 352.03 92.8066ZM67.0884 125.158C66.2528 125.158 65.5278 124.967 64.9136 124.585C64.2993 124.203 63.8234 123.664 63.4858 122.966C63.1483 122.269 62.9795 121.447 62.9795 120.501V120.484C62.9795 119.555 63.1455 118.747 63.4775 118.061C63.8151 117.374 64.291 116.843 64.9053 116.467C65.5195 116.085 66.2445 115.894 67.0801 115.894C67.805 115.894 68.4303 116.021 68.9561 116.276C69.4818 116.53 69.9023 116.874 70.2178 117.305C70.5332 117.731 70.7352 118.21 70.8237 118.741L70.832 118.791H69.396L69.3877 118.766C69.277 118.323 69.0252 117.947 68.6323 117.637C68.2394 117.327 67.722 117.172 67.0801 117.172C66.5433 117.172 66.0785 117.308 65.6855 117.579C65.2926 117.85 64.9883 118.235 64.7725 118.733C64.5622 119.225 64.457 119.809 64.457 120.484V120.501C64.457 121.187 64.5649 121.785 64.7808 122.294C64.9966 122.798 65.3009 123.188 65.6938 123.464C66.0868 123.741 66.5488 123.879 67.0801 123.879C67.6833 123.879 68.1758 123.749 68.5576 123.489C68.9395 123.229 69.2134 122.85 69.3794 122.352L69.396 122.302L70.8237 122.294L70.8071 122.385C70.6854 122.922 70.4696 123.401 70.1597 123.821C69.8498 124.236 69.4403 124.563 68.9312 124.801C68.422 125.039 67.8078 125.158 67.0884 125.158ZM74.569 120.924H74.1125V125H72.6681V116.052H74.1125V119.795H74.569L78.0304 116.052H79.7653L75.6232 120.393V120.136L79.923 125H78.072L74.569 120.924ZM81.4935 127.988V116.052H82.9379V117.479H83.0707C83.2533 117.147 83.4829 116.865 83.7596 116.633C84.0363 116.395 84.3518 116.212 84.7059 116.085C85.0601 115.958 85.4447 115.894 85.8597 115.894C86.6179 115.894 87.2764 116.088 87.8353 116.475C88.3998 116.857 88.8369 117.394 89.1468 118.085C89.4567 118.777 89.6117 119.588 89.6117 120.518V120.534C89.6117 121.469 89.4567 122.283 89.1468 122.975C88.8369 123.666 88.3998 124.203 87.8353 124.585C87.2764 124.967 86.6179 125.158 85.8597 125.158C85.4502 125.158 85.0629 125.094 84.6976 124.967C84.3379 124.834 84.017 124.651 83.7347 124.419C83.458 124.187 83.2367 123.91 83.0707 123.589H82.9379V127.988H81.4935ZM85.5277 123.879C86.0755 123.879 86.5432 123.747 86.9305 123.481C87.3179 123.21 87.614 122.825 87.8187 122.327C88.029 121.824 88.1341 121.226 88.1341 120.534V120.518C88.1341 119.82 88.029 119.223 87.8187 118.725C87.614 118.227 87.3179 117.845 86.9305 117.579C86.5432 117.308 86.0755 117.172 85.5277 117.172C84.9854 117.172 84.5178 117.308 84.1249 117.579C83.732 117.85 83.4304 118.235 83.2201 118.733C83.0098 119.231 82.9046 119.826 82.9046 120.518V120.534C82.9046 121.22 83.0098 121.815 83.2201 122.319C83.4304 122.817 83.732 123.201 84.1249 123.473C84.5178 123.744 84.9854 123.879 85.5277 123.879ZM91.5972 125V116.052H93.0415V122.726H93.8052L92.8257 123.257L97.5987 116.052H99.043V125H97.5987V118.326H96.835L97.8145 117.795L93.0415 125H91.5972ZM101.46 125V116.052H108.698V125H107.254V117.247H102.905V125H101.46ZM117.59 116.052V117.247H114.693V125H113.249V117.247H110.352V116.052H117.59ZM126.06 125.158C125.496 125.158 124.987 125.05 124.533 124.834C124.085 124.618 123.728 124.311 123.462 123.913C123.202 123.514 123.072 123.044 123.072 122.501V122.485C123.072 121.954 123.199 121.5 123.454 121.124C123.708 120.742 124.079 120.443 124.566 120.227C125.053 120.011 125.643 119.884 126.334 119.845L129.621 119.646V120.8L126.509 120.999C125.828 121.038 125.33 121.179 125.014 121.422C124.705 121.666 124.55 122.009 124.55 122.452V122.468C124.55 122.922 124.721 123.276 125.064 123.531C125.407 123.78 125.839 123.904 126.359 123.904C126.852 123.904 127.289 123.807 127.671 123.614C128.053 123.415 128.351 123.146 128.567 122.809C128.789 122.471 128.899 122.089 128.899 121.663V118.874C128.899 118.321 128.73 117.9 128.393 117.612C128.061 117.319 127.56 117.172 126.89 117.172C126.354 117.172 125.914 117.269 125.571 117.463C125.227 117.651 124.998 117.919 124.882 118.268L124.873 118.293H123.429L123.437 118.243C123.515 117.773 123.708 117.363 124.018 117.015C124.334 116.66 124.74 116.387 125.239 116.193C125.737 115.994 126.304 115.894 126.94 115.894C127.671 115.894 128.288 116.013 128.791 116.251C129.3 116.489 129.685 116.832 129.945 117.28C130.211 117.723 130.344 118.254 130.344 118.874V125H128.899V123.68H128.766C128.578 123.996 128.349 124.264 128.077 124.485C127.812 124.707 127.51 124.875 127.173 124.992C126.835 125.102 126.464 125.158 126.06 125.158ZM132.711 125V116.052H136.504C137.351 116.052 138.01 116.265 138.48 116.691C138.95 117.111 139.185 117.673 139.185 118.376V118.393C139.185 118.835 139.047 119.242 138.77 119.613C138.494 119.978 138.145 120.205 137.725 120.293V120.426C138.106 120.476 138.436 120.595 138.712 120.783C138.989 120.966 139.202 121.198 139.352 121.48C139.506 121.757 139.584 122.07 139.584 122.418V122.435C139.584 122.95 139.462 123.401 139.219 123.788C138.975 124.17 138.624 124.469 138.164 124.685C137.711 124.895 137.163 125 136.521 125H132.711ZM134.155 123.805H136.463C137.011 123.805 137.423 123.686 137.7 123.448C137.976 123.204 138.115 122.858 138.115 122.41V122.394C138.115 121.918 137.954 121.572 137.633 121.356C137.312 121.14 136.831 121.032 136.189 121.032H134.155V123.805ZM134.155 119.837H136.064C136.645 119.837 137.072 119.726 137.343 119.505C137.614 119.284 137.749 118.963 137.749 118.542V118.525C137.749 118.144 137.633 117.836 137.401 117.604C137.168 117.366 136.8 117.247 136.297 117.247H134.155V119.837ZM147.413 116.052V117.247H144.516V125H143.072V117.247H140.175V116.052H147.413ZM152.42 125.158C151.574 125.158 150.84 124.972 150.221 124.602C149.606 124.225 149.13 123.691 148.793 123C148.461 122.308 148.295 121.486 148.295 120.534V120.518C148.295 119.56 148.461 118.736 148.793 118.044C149.13 117.352 149.606 116.821 150.221 116.45C150.84 116.079 151.574 115.894 152.42 115.894C153.272 115.894 154.006 116.079 154.62 116.45C155.234 116.821 155.707 117.352 156.039 118.044C156.377 118.736 156.546 119.56 156.546 120.518V120.534C156.546 121.486 156.377 122.308 156.039 123C155.707 123.691 155.234 124.225 154.62 124.602C154.006 124.972 153.272 125.158 152.42 125.158ZM152.42 123.879C152.985 123.879 153.463 123.747 153.856 123.481C154.249 123.215 154.548 122.833 154.753 122.335C154.963 121.837 155.068 121.237 155.068 120.534V120.518C155.068 119.809 154.963 119.206 154.753 118.708C154.548 118.21 154.249 117.831 153.856 117.571C153.463 117.305 152.985 117.172 152.42 117.172C151.856 117.172 151.377 117.305 150.984 117.571C150.591 117.831 150.29 118.21 150.079 118.708C149.875 119.206 149.772 119.809 149.772 120.518V120.534C149.772 121.237 149.875 121.837 150.079 122.335C150.29 122.833 150.591 123.215 150.984 123.481C151.377 123.747 151.856 123.879 152.42 123.879ZM159.959 125H158.515V116.052H160.266L163.454 122.991H163.586L166.791 116.052H168.467V125H167.023V118.633H166.865L164.043 124.751H162.931L160.117 118.633H159.959V125ZM173.35 125.158C172.785 125.158 172.276 125.05 171.822 124.834C171.374 124.618 171.017 124.311 170.752 123.913C170.492 123.514 170.361 123.044 170.361 122.501V122.485C170.361 121.954 170.489 121.5 170.743 121.124C170.998 120.742 171.369 120.443 171.856 120.227C172.343 120.011 172.932 119.884 173.624 119.845L176.911 119.646V120.8L173.798 120.999C173.117 121.038 172.619 121.179 172.304 121.422C171.994 121.666 171.839 122.009 171.839 122.452V122.468C171.839 122.922 172.011 123.276 172.354 123.531C172.697 123.78 173.128 123.904 173.649 123.904C174.141 123.904 174.578 123.807 174.96 123.614C175.342 123.415 175.641 123.146 175.857 122.809C176.078 122.471 176.189 122.089 176.189 121.663V118.874C176.189 118.321 176.02 117.9 175.682 117.612C175.35 117.319 174.849 117.172 174.18 117.172C173.643 117.172 173.203 117.269 172.86 117.463C172.517 117.651 172.287 117.919 172.171 118.268L172.163 118.293H170.718L170.727 118.243C170.804 117.773 170.998 117.363 171.308 117.015C171.623 116.66 172.03 116.387 172.528 116.193C173.026 115.994 173.593 115.894 174.23 115.894C174.96 115.894 175.577 116.013 176.081 116.251C176.59 116.489 176.974 116.832 177.235 117.28C177.5 117.723 177.633 118.254 177.633 118.874V125H176.189V123.68H176.056C175.868 123.996 175.638 124.264 175.367 124.485C175.101 124.707 174.8 124.875 174.462 124.992C174.125 125.102 173.754 125.158 173.35 125.158ZM186.483 116.052V117.247H183.586V125H182.142V117.247H179.245V116.052H186.483ZM188.137 125V116.052H189.581V122.726H190.345L189.365 123.257L194.138 116.052H195.583V125H194.138V118.326H193.375L194.354 117.795L189.581 125H188.137ZM201.046 125.166C200.41 125.166 199.834 125.066 199.32 124.867C198.81 124.668 198.395 124.391 198.074 124.037C197.753 123.677 197.563 123.257 197.502 122.775L197.493 122.709H198.963L198.979 122.775C199.073 123.141 199.306 123.431 199.676 123.647C200.047 123.863 200.504 123.971 201.046 123.971C201.705 123.971 202.219 123.827 202.59 123.539C202.961 123.251 203.146 122.886 203.146 122.443V122.427C203.146 121.94 202.966 121.583 202.607 121.356C202.252 121.124 201.732 121.007 201.046 121.007H199.652V119.812H201.046C201.622 119.812 202.062 119.699 202.366 119.472C202.676 119.239 202.831 118.891 202.831 118.426V118.409C202.831 118.027 202.684 117.712 202.391 117.463C202.103 117.208 201.671 117.081 201.096 117.081C200.587 117.081 200.155 117.186 199.801 117.396C199.447 117.607 199.234 117.892 199.162 118.251L199.154 118.293H197.742L197.751 118.235C197.823 117.753 198.005 117.338 198.299 116.99C198.597 116.636 198.985 116.364 199.461 116.176C199.942 115.983 200.487 115.886 201.096 115.886C201.765 115.886 202.333 115.988 202.798 116.193C203.268 116.398 203.625 116.683 203.868 117.048C204.117 117.408 204.242 117.825 204.242 118.301V118.318C204.242 118.772 204.106 119.181 203.835 119.546C203.564 119.912 203.207 120.147 202.764 120.252V120.385C203.157 120.468 203.487 120.601 203.752 120.783C204.023 120.966 204.225 121.19 204.358 121.456C204.496 121.721 204.566 122.02 204.566 122.352V122.369C204.566 122.922 204.416 123.409 204.117 123.83C203.824 124.25 203.412 124.579 202.881 124.817C202.355 125.05 201.743 125.166 201.046 125.166ZM209 125.158C208.435 125.158 207.926 125.05 207.473 124.834C207.024 124.618 206.667 124.311 206.402 123.913C206.142 123.514 206.012 123.044 206.012 122.501V122.485C206.012 121.954 206.139 121.5 206.393 121.124C206.648 120.742 207.019 120.443 207.506 120.227C207.993 120.011 208.582 119.884 209.274 119.845L212.561 119.646V120.8L209.448 120.999C208.767 121.038 208.269 121.179 207.954 121.422C207.644 121.666 207.489 122.009 207.489 122.452V122.468C207.489 122.922 207.661 123.276 208.004 123.531C208.347 123.78 208.779 123.904 209.299 123.904C209.791 123.904 210.228 123.807 210.61 123.614C210.992 123.415 211.291 123.146 211.507 122.809C211.728 122.471 211.839 122.089 211.839 121.663V118.874C211.839 118.321 211.67 117.9 211.332 117.612C211 117.319 210.5 117.172 209.83 117.172C209.293 117.172 208.853 117.269 208.51 117.463C208.167 117.651 207.937 117.919 207.821 118.268L207.813 118.293H206.369L206.377 118.243C206.454 117.773 206.648 117.363 206.958 117.015C207.273 116.66 207.68 116.387 208.178 116.193C208.676 115.994 209.243 115.894 209.88 115.894C210.61 115.894 211.227 116.013 211.731 116.251C212.24 116.489 212.625 116.832 212.885 117.28C213.15 117.723 213.283 118.254 213.283 118.874V125H211.839V123.68H211.706C211.518 123.996 211.288 124.264 211.017 124.485C210.751 124.707 210.45 124.875 210.112 124.992C209.775 125.102 209.404 125.158 209 125.158ZM222.889 116.052V125H215.65V116.052H217.095V123.805H221.444V116.052H222.889ZM222.939 127.366V125H221.461V123.805H224.316V127.366H222.939ZM225.762 125V116.052H227.207V122.726H227.97L226.991 123.257L231.764 116.052H233.208V125H231.764V118.326H231L231.98 117.795L227.207 125H225.762ZM235.625 125V116.052H237.07V122.726H237.833L236.854 123.257L241.627 116.052H243.071V125H241.627V118.326H240.863L241.843 117.795L237.07 125H235.625ZM246.592 125.083C246.299 125.083 246.045 124.978 245.829 124.768C245.618 124.552 245.513 124.297 245.513 124.004C245.513 123.705 245.618 123.451 245.829 123.24C246.045 123.03 246.299 122.925 246.592 122.925C246.891 122.925 247.146 123.03 247.356 123.24C247.566 123.451 247.671 123.705 247.671 124.004C247.671 124.297 247.566 124.552 247.356 124.768C247.146 124.978 246.891 125.083 246.592 125.083ZM254.647 125V113.022H256.142V118.202H262.716V113.022H264.21V125H262.716V119.546H256.142V125H254.647ZM269.275 125.158C268.711 125.158 268.201 125.05 267.748 124.834C267.299 124.618 266.943 124.311 266.677 123.913C266.417 123.514 266.287 123.044 266.287 122.501V122.485C266.287 121.954 266.414 121.5 266.669 121.124C266.923 120.742 267.294 120.443 267.781 120.227C268.268 120.011 268.857 119.884 269.549 119.845L272.836 119.646V120.8L269.723 120.999C269.043 121.038 268.545 121.179 268.229 121.422C267.919 121.666 267.764 122.009 267.764 122.452V122.468C267.764 122.922 267.936 123.276 268.279 123.531C268.622 123.78 269.054 123.904 269.574 123.904C270.066 123.904 270.504 123.807 270.885 123.614C271.267 123.415 271.566 123.146 271.782 122.809C272.003 122.471 272.114 122.089 272.114 121.663V118.874C272.114 118.321 271.945 117.9 271.608 117.612C271.276 117.319 270.775 117.172 270.105 117.172C269.568 117.172 269.128 117.269 268.785 117.463C268.442 117.651 268.213 117.919 268.096 118.268L268.088 118.293H266.644L266.652 118.243C266.729 117.773 266.923 117.363 267.233 117.015C267.548 116.66 267.955 116.387 268.453 116.193C268.951 115.994 269.519 115.894 270.155 115.894C270.885 115.894 271.502 116.013 272.006 116.251C272.515 116.489 272.9 116.832 273.16 117.28C273.425 117.723 273.558 118.254 273.558 118.874V125H272.114V123.68H271.981C271.793 123.996 271.563 124.264 271.292 124.485C271.027 124.707 270.725 124.875 270.387 124.992C270.05 125.102 269.679 125.158 269.275 125.158ZM276.722 125H274.938L278.798 120.285L275.071 116.052H276.805L279.935 119.82H280.466V116.052H281.861V119.82H282.392L285.521 116.052H287.231L283.529 120.252L287.414 125H285.604L282.392 120.899H281.861V125H280.466V120.899H279.935L276.722 125ZM290.288 125H288.843V116.052H290.595L293.782 122.991H293.915L297.119 116.052H298.796V125H297.352V118.633H297.194L294.372 124.751H293.259L290.445 118.633H290.288V125ZM301.213 125V116.052H302.657V122.726H303.421L302.442 123.257L307.215 116.052H308.659V125H307.215V118.326H306.451L307.43 117.795L302.657 125H301.213ZM317.328 120.924H316.872V125H315.427V116.052H316.872V119.795H317.328L320.79 116.052H322.524L318.382 120.393V120.136L322.682 125H320.831L317.328 120.924ZM330.121 125V120.949H325.689V125H324.244V116.052H325.689V119.754H330.121V116.052H331.566V125H330.121ZM337.66 125.158C336.813 125.158 336.08 124.972 335.46 124.602C334.846 124.225 334.37 123.691 334.033 123C333.701 122.308 333.535 121.486 333.535 120.534V120.518C333.535 119.56 333.701 118.736 334.033 118.044C334.37 117.352 334.846 116.821 335.46 116.45C336.08 116.079 336.813 115.894 337.66 115.894C338.512 115.894 339.246 116.079 339.86 116.45C340.474 116.821 340.947 117.352 341.279 118.044C341.617 118.736 341.786 119.56 341.786 120.518V120.534C341.786 121.486 341.617 122.308 341.279 123C340.947 123.691 340.474 124.225 339.86 124.602C339.246 124.972 338.512 125.158 337.66 125.158ZM337.66 123.879C338.225 123.879 338.703 123.747 339.096 123.481C339.489 123.215 339.788 122.833 339.993 122.335C340.203 121.837 340.308 121.237 340.308 120.534V120.518C340.308 119.809 340.203 119.206 339.993 118.708C339.788 118.21 339.489 117.831 339.096 117.571C338.703 117.305 338.225 117.172 337.66 117.172C337.096 117.172 336.617 117.305 336.224 117.571C335.831 117.831 335.53 118.21 335.319 118.708C335.114 119.206 335.012 119.809 335.012 120.518V120.534C335.012 121.237 335.114 121.837 335.319 122.335C335.53 122.833 335.831 123.215 336.224 123.481C336.617 123.747 337.096 123.879 337.66 123.879ZM343.754 125V116.052H350.993V125H349.548V117.247H345.199V125H343.754ZM355.302 120.924H354.846V125H353.402V116.052H354.846V119.795H355.302L358.764 116.052H360.499L356.357 120.393V120.136L360.656 125H358.805L355.302 120.924ZM362.659 128.138C362.565 128.138 362.459 128.132 362.343 128.121C362.227 128.116 362.119 128.104 362.019 128.088V126.901C362.108 126.917 362.205 126.929 362.31 126.934C362.415 126.94 362.518 126.942 362.617 126.942C363.027 126.942 363.361 126.837 363.622 126.627C363.887 126.417 364.1 126.054 364.261 125.54L364.427 125.008L361.115 116.052H362.659L365.414 124.319L364.842 123.415H365.522L364.95 124.319L367.697 116.052H369.216L365.722 125.548C365.478 126.217 365.221 126.74 364.95 127.117C364.678 127.493 364.36 127.756 363.995 127.905C363.635 128.06 363.19 128.138 362.659 128.138ZM69.2964 147V142.949H64.8638V147H63.4194V138.052H64.8638V141.754H69.2964V138.052H70.7407V147H69.2964ZM73.1496 147V138.052H74.5939V144.726H75.3576L74.3781 145.257L79.1511 138.052H80.5954V147H79.1511V140.326H78.3874L79.3669 139.795L74.5939 147H73.1496ZM83.8094 147H82.0248L85.8846 142.285L82.1576 138.052H83.8924L87.0218 141.82H87.5531V138.052H88.9476V141.82H89.4789L92.6083 138.052H94.3182L90.6161 142.252L94.5008 147H92.6913L89.4789 142.899H88.9476V147H87.5531V142.899H87.0218L83.8094 147ZM99.3418 147.158C98.4896 147.158 97.7564 146.97 97.1421 146.593C96.5334 146.217 96.063 145.686 95.731 145C95.4045 144.308 95.2412 143.494 95.2412 142.559V142.551C95.2412 141.627 95.4045 140.816 95.731 140.119C96.063 139.421 96.5306 138.876 97.1338 138.483C97.737 138.09 98.4426 137.894 99.2505 137.894C100.064 137.894 100.761 138.082 101.342 138.458C101.929 138.835 102.377 139.361 102.687 140.036C103.002 140.705 103.16 141.486 103.16 142.376V142.941H95.9883V141.787H102.421L101.708 142.841V142.269C101.708 141.566 101.602 140.987 101.392 140.534C101.182 140.08 100.891 139.742 100.521 139.521C100.15 139.294 99.7237 139.181 99.2422 139.181C98.7608 139.181 98.3291 139.3 97.9473 139.538C97.571 139.77 97.2722 140.116 97.0508 140.575C96.8295 141.035 96.7188 141.599 96.7188 142.269V142.841C96.7188 143.478 96.8267 144.023 97.0425 144.477C97.2583 144.925 97.5655 145.271 97.9639 145.514C98.3623 145.752 98.8327 145.871 99.375 145.871C99.779 145.871 100.13 145.816 100.429 145.705C100.728 145.594 100.974 145.453 101.168 145.282C101.362 145.11 101.497 144.936 101.575 144.759L101.608 144.684H103.052L103.036 144.75C102.958 145.055 102.82 145.351 102.621 145.639C102.427 145.921 102.175 146.178 101.865 146.411C101.555 146.638 101.187 146.82 100.761 146.958C100.341 147.091 99.8676 147.158 99.3418 147.158ZM109.48 147V138.052H110.925V144.726H111.688L110.709 145.257L115.482 138.052H116.926V147H115.482V140.326H114.718L115.698 139.795L110.925 147H109.48ZM123.695 147V138.052H127.488C128.335 138.052 128.993 138.265 129.464 138.691C129.934 139.111 130.169 139.673 130.169 140.376V140.393C130.169 140.835 130.031 141.242 129.754 141.613C129.477 141.978 129.129 142.205 128.708 142.293V142.426C129.09 142.476 129.419 142.595 129.696 142.783C129.973 142.966 130.186 143.198 130.335 143.48C130.49 143.757 130.568 144.07 130.568 144.418V144.435C130.568 144.95 130.446 145.401 130.202 145.788C129.959 146.17 129.608 146.469 129.148 146.685C128.694 146.895 128.147 147 127.505 147H123.695ZM125.139 145.805H127.447C127.994 145.805 128.407 145.686 128.683 145.448C128.96 145.204 129.098 144.858 129.098 144.41V144.394C129.098 143.918 128.938 143.572 128.617 143.356C128.296 143.14 127.815 143.032 127.173 143.032H125.139V145.805ZM125.139 141.837H127.048C127.629 141.837 128.055 141.726 128.326 141.505C128.598 141.284 128.733 140.963 128.733 140.542V140.525C128.733 140.144 128.617 139.836 128.385 139.604C128.152 139.366 127.784 139.247 127.281 139.247H125.139V141.837ZM136.181 147.158C135.334 147.158 134.601 146.972 133.981 146.602C133.367 146.225 132.891 145.691 132.553 145C132.221 144.308 132.055 143.486 132.055 142.534V142.518C132.055 141.56 132.221 140.736 132.553 140.044C132.891 139.352 133.367 138.821 133.981 138.45C134.601 138.079 135.334 137.894 136.181 137.894C137.033 137.894 137.766 138.079 138.38 138.45C138.995 138.821 139.468 139.352 139.8 140.044C140.137 140.736 140.306 141.56 140.306 142.518V142.534C140.306 143.486 140.137 144.308 139.8 145C139.468 145.691 138.995 146.225 138.38 146.602C137.766 146.972 137.033 147.158 136.181 147.158ZM136.181 145.879C136.745 145.879 137.224 145.747 137.617 145.481C138.01 145.215 138.308 144.833 138.513 144.335C138.723 143.837 138.829 143.237 138.829 142.534V142.518C138.829 141.809 138.723 141.206 138.513 140.708C138.308 140.21 138.01 139.831 137.617 139.571C137.224 139.305 136.745 139.172 136.181 139.172C135.616 139.172 135.137 139.305 134.745 139.571C134.352 139.831 134.05 140.21 133.84 140.708C133.635 141.206 133.533 141.809 133.533 142.518V142.534C133.533 143.237 133.635 143.837 133.84 144.335C134.05 144.833 134.352 145.215 134.745 145.481C135.137 145.747 135.616 145.879 136.181 145.879ZM146.626 147V138.052H150.42C151.266 138.052 151.925 138.265 152.395 138.691C152.866 139.111 153.101 139.673 153.101 140.376V140.393C153.101 140.835 152.963 141.242 152.686 141.613C152.409 141.978 152.061 142.205 151.64 142.293V142.426C152.022 142.476 152.351 142.595 152.628 142.783C152.904 142.966 153.117 143.198 153.267 143.48C153.422 143.757 153.499 144.07 153.499 144.418V144.435C153.499 144.95 153.378 145.401 153.134 145.788C152.891 146.17 152.539 146.469 152.08 146.685C151.626 146.895 151.078 147 150.436 147H146.626ZM148.071 145.805H150.378C150.926 145.805 151.338 145.686 151.615 145.448C151.892 145.204 152.03 144.858 152.03 144.41V144.394C152.03 143.918 151.87 143.572 151.549 143.356C151.228 143.14 150.746 143.032 150.104 143.032H148.071V145.805ZM148.071 141.837H149.98C150.561 141.837 150.987 141.726 151.258 141.505C151.529 141.284 151.665 140.963 151.665 140.542V140.525C151.665 140.144 151.549 139.836 151.316 139.604C151.084 139.366 150.716 139.247 150.212 139.247H148.071V141.837ZM159.096 147.158C158.26 147.158 157.535 146.967 156.921 146.585C156.307 146.203 155.831 145.664 155.493 144.966C155.156 144.269 154.987 143.447 154.987 142.501V142.484C154.987 141.555 155.153 140.747 155.485 140.061C155.822 139.374 156.298 138.843 156.913 138.467C157.527 138.085 158.252 137.894 159.087 137.894C159.812 137.894 160.438 138.021 160.963 138.276C161.489 138.53 161.91 138.874 162.225 139.305C162.541 139.731 162.742 140.21 162.831 140.741L162.839 140.791H161.403L161.395 140.766C161.284 140.323 161.033 139.947 160.64 139.637C160.247 139.327 159.729 139.172 159.087 139.172C158.551 139.172 158.086 139.308 157.693 139.579C157.3 139.85 156.996 140.235 156.78 140.733C156.569 141.225 156.464 141.809 156.464 142.484V142.501C156.464 143.187 156.572 143.785 156.788 144.294C157.004 144.798 157.308 145.188 157.701 145.464C158.094 145.741 158.556 145.879 159.087 145.879C159.691 145.879 160.183 145.749 160.565 145.489C160.947 145.229 161.221 144.85 161.387 144.352L161.403 144.302L162.831 144.294L162.814 144.385C162.693 144.922 162.477 145.401 162.167 145.821C161.857 146.236 161.448 146.563 160.938 146.801C160.429 147.039 159.815 147.158 159.096 147.158ZM164.675 147V138.052H171.914V147H170.469V139.247H166.12V147H164.675ZM176.423 143.497C176.362 144.316 176.232 144.991 176.033 145.522C175.839 146.054 175.57 146.447 175.227 146.701C174.89 146.956 174.472 147.083 173.974 147.083C173.819 147.083 173.686 147.072 173.576 147.05C173.465 147.033 173.379 147.014 173.318 146.992V145.688C173.357 145.7 173.426 145.713 173.526 145.73C173.625 145.741 173.728 145.747 173.833 145.747C174.11 145.747 174.334 145.641 174.505 145.431C174.677 145.221 174.807 144.939 174.895 144.584C174.989 144.225 175.05 143.824 175.078 143.381L175.46 138.052H181.312V147H179.868V139.247H176.755L176.423 143.497ZM183.721 147V138.052H185.165V140.924H186.917C187.94 140.924 188.757 141.198 189.365 141.746C189.974 142.293 190.278 143.029 190.278 143.954V143.97C190.278 144.894 189.974 145.63 189.365 146.178C188.757 146.726 187.94 147 186.917 147H183.721ZM186.917 142.119H185.165V145.805H186.917C187.509 145.805 187.976 145.639 188.319 145.307C188.662 144.969 188.834 144.524 188.834 143.97V143.954C188.834 143.395 188.66 142.949 188.311 142.617C187.968 142.285 187.503 142.119 186.917 142.119ZM191.839 147V138.052H193.283V147H191.839ZM195.692 147V138.052H199.486C200.332 138.052 200.991 138.265 201.461 138.691C201.932 139.111 202.167 139.673 202.167 140.376V140.393C202.167 140.835 202.028 141.242 201.752 141.613C201.475 141.978 201.126 142.205 200.706 142.293V142.426C201.088 142.476 201.417 142.595 201.694 142.783C201.97 142.966 202.183 143.198 202.333 143.48C202.488 143.757 202.565 144.07 202.565 144.418V144.435C202.565 144.95 202.443 145.401 202.2 145.788C201.956 146.17 201.605 146.469 201.146 146.685C200.692 146.895 200.144 147 199.502 147H195.692ZM197.136 145.805H199.444C199.992 145.805 200.404 145.686 200.681 145.448C200.958 145.204 201.096 144.858 201.096 144.41V144.394C201.096 143.918 200.935 143.572 200.614 143.356C200.293 143.14 199.812 143.032 199.17 143.032H197.136V145.805ZM197.136 141.837H199.046C199.627 141.837 200.053 141.726 200.324 141.505C200.595 141.284 200.731 140.963 200.731 140.542V140.525C200.731 140.144 200.614 139.836 200.382 139.604C200.15 139.366 199.782 139.247 199.278 139.247H197.136V141.837ZM207.041 147.158C206.476 147.158 205.967 147.05 205.514 146.834C205.065 146.618 204.708 146.311 204.443 145.913C204.183 145.514 204.053 145.044 204.053 144.501V144.485C204.053 143.954 204.18 143.5 204.434 143.124C204.689 142.742 205.06 142.443 205.547 142.227C206.034 142.011 206.623 141.884 207.315 141.845L210.602 141.646V142.8L207.489 142.999C206.808 143.038 206.31 143.179 205.995 143.422C205.685 143.666 205.53 144.009 205.53 144.452V144.468C205.53 144.922 205.702 145.276 206.045 145.531C206.388 145.78 206.82 145.904 207.34 145.904C207.832 145.904 208.269 145.807 208.651 145.614C209.033 145.415 209.332 145.146 209.548 144.809C209.769 144.471 209.88 144.089 209.88 143.663V140.874C209.88 140.321 209.711 139.9 209.373 139.612C209.041 139.319 208.541 139.172 207.871 139.172C207.334 139.172 206.894 139.269 206.551 139.463C206.208 139.651 205.978 139.919 205.862 140.268L205.854 140.293H204.41L204.418 140.243C204.495 139.773 204.689 139.363 204.999 139.015C205.314 138.66 205.721 138.387 206.219 138.193C206.717 137.994 207.284 137.894 207.921 137.894C208.651 137.894 209.268 138.013 209.772 138.251C210.281 138.489 210.666 138.832 210.926 139.28C211.191 139.723 211.324 140.254 211.324 140.874V147H209.88V145.68H209.747C209.559 145.996 209.329 146.264 209.058 146.485C208.792 146.707 208.491 146.875 208.153 146.992C207.816 147.102 207.445 147.158 207.041 147.158ZM220.78 147.166C219.972 147.166 219.272 146.992 218.68 146.643C218.088 146.289 217.623 145.785 217.286 145.132C216.954 144.479 216.771 143.699 216.738 142.792L216.763 141.912C216.835 141.07 217.039 140.351 217.377 139.753C217.72 139.15 218.179 138.688 218.755 138.367C219.336 138.046 220.011 137.886 220.78 137.886C221.616 137.886 222.335 138.071 222.939 138.442C223.542 138.813 224.007 139.344 224.333 140.036C224.66 140.727 224.823 141.555 224.823 142.518V142.534C224.823 143.492 224.66 144.316 224.333 145.008C224.007 145.7 223.542 146.234 222.939 146.61C222.335 146.981 221.616 147.166 220.78 147.166ZM220.78 145.888C221.328 145.888 221.793 145.755 222.175 145.489C222.557 145.224 222.847 144.842 223.046 144.344C223.246 143.84 223.345 143.237 223.345 142.534V142.518C223.345 141.809 223.246 141.206 223.046 140.708C222.847 140.204 222.557 139.823 222.175 139.562C221.793 139.297 221.328 139.164 220.78 139.164C220.232 139.164 219.768 139.297 219.386 139.562C219.004 139.823 218.713 140.204 218.514 140.708C218.315 141.206 218.215 141.809 218.215 142.518V142.534C218.215 143.237 218.315 143.84 218.514 144.344C218.713 144.842 219.004 145.224 219.386 145.489C219.768 145.755 220.232 145.888 220.78 145.888ZM213.691 147V138.052H215.136V141.754H217.477V142.949H215.136V147H213.691ZM226.792 147V138.052H228.236V145.805H231.598V138.052H233.042V145.805H236.404V138.052H237.848V147H226.792ZM237.915 149.366V147H236.437V145.805H239.293V149.366H237.915ZM244.399 147.158C243.547 147.158 242.814 146.97 242.2 146.593C241.591 146.217 241.121 145.686 240.788 145C240.462 144.308 240.299 143.494 240.299 142.559V142.551C240.299 141.627 240.462 140.816 240.788 140.119C241.121 139.421 241.588 138.876 242.191 138.483C242.795 138.09 243.5 137.894 244.308 137.894C245.122 137.894 245.819 138.082 246.4 138.458C246.986 138.835 247.435 139.361 247.745 140.036C248.06 140.705 248.218 141.486 248.218 142.376V142.941H241.046V141.787H247.479L246.765 142.841V142.269C246.765 141.566 246.66 140.987 246.45 140.534C246.239 140.08 245.949 139.742 245.578 139.521C245.207 139.294 244.781 139.181 244.3 139.181C243.818 139.181 243.387 139.3 243.005 139.538C242.629 139.77 242.33 140.116 242.108 140.575C241.887 141.035 241.776 141.599 241.776 142.269V142.841C241.776 143.478 241.884 144.023 242.1 144.477C242.316 144.925 242.623 145.271 243.021 145.514C243.42 145.752 243.89 145.871 244.433 145.871C244.837 145.871 245.188 145.816 245.487 145.705C245.786 145.594 246.032 145.453 246.226 145.282C246.419 145.11 246.555 144.936 246.632 144.759L246.665 144.684H248.11L248.093 144.75C248.016 145.055 247.877 145.351 247.678 145.639C247.484 145.921 247.233 146.178 246.923 146.411C246.613 146.638 246.245 146.82 245.819 146.958C245.398 147.091 244.925 147.158 244.399 147.158ZM251.631 147H250.187V138.052H251.938L255.126 144.991H255.258L258.462 138.052H260.139V147H258.695V140.633H258.537L255.715 146.751H254.603L251.789 140.633H251.631V147ZM270.593 147.158C269.747 147.158 269.013 146.972 268.394 146.602C267.779 146.225 267.303 145.691 266.966 145C266.634 144.308 266.468 143.486 266.468 142.534V142.518C266.468 141.56 266.634 140.736 266.966 140.044C267.303 139.352 267.779 138.821 268.394 138.45C269.013 138.079 269.747 137.894 270.593 137.894C271.445 137.894 272.179 138.079 272.793 138.45C273.407 138.821 273.88 139.352 274.212 140.044C274.55 140.736 274.719 141.56 274.719 142.518V142.534C274.719 143.486 274.55 144.308 274.212 145C273.88 145.691 273.407 146.225 272.793 146.602C272.179 146.972 271.445 147.158 270.593 147.158ZM270.593 145.879C271.158 145.879 271.636 145.747 272.029 145.481C272.422 145.215 272.721 144.833 272.926 144.335C273.136 143.837 273.241 143.237 273.241 142.534V142.518C273.241 141.809 273.136 141.206 272.926 140.708C272.721 140.21 272.422 139.831 272.029 139.571C271.636 139.305 271.158 139.172 270.593 139.172C270.029 139.172 269.55 139.305 269.157 139.571C268.764 139.831 268.463 140.21 268.252 140.708C268.048 141.206 267.945 141.809 267.945 142.518V142.534C267.945 143.237 268.048 143.837 268.252 144.335C268.463 144.833 268.764 145.215 269.157 145.481C269.55 145.747 270.029 145.879 270.593 145.879ZM278.589 142.924H278.132V147H276.688V138.052H278.132V141.795H278.589L282.05 138.052H283.785L279.643 142.393V142.136L283.943 147H282.091L278.589 142.924ZM291.382 147V142.949H286.949V147H285.505V138.052H286.949V141.754H291.382V138.052H292.826V147H291.382ZM298.896 147.158C298.043 147.158 297.31 146.97 296.696 146.593C296.087 146.217 295.617 145.686 295.285 145C294.958 144.308 294.795 143.494 294.795 142.559V142.551C294.795 141.627 294.958 140.816 295.285 140.119C295.617 139.421 296.084 138.876 296.688 138.483C297.291 138.09 297.996 137.894 298.804 137.894C299.618 137.894 300.315 138.082 300.896 138.458C301.483 138.835 301.931 139.361 302.241 140.036C302.556 140.705 302.714 141.486 302.714 142.376V142.941H295.542V141.787H301.975L301.261 142.841V142.269C301.261 141.566 301.156 140.987 300.946 140.534C300.736 140.08 300.445 139.742 300.074 139.521C299.703 139.294 299.277 139.181 298.796 139.181C298.314 139.181 297.883 139.3 297.501 139.538C297.125 139.77 296.826 140.116 296.604 140.575C296.383 141.035 296.272 141.599 296.272 142.269V142.841C296.272 143.478 296.38 144.023 296.596 144.477C296.812 144.925 297.119 145.271 297.518 145.514C297.916 145.752 298.386 145.871 298.929 145.871C299.333 145.871 299.684 145.816 299.983 145.705C300.282 145.594 300.528 145.453 300.722 145.282C300.915 145.11 301.051 144.936 301.128 144.759L301.162 144.684H302.606L302.589 144.75C302.512 145.055 302.374 145.351 302.174 145.639C301.981 145.921 301.729 146.178 301.419 146.411C301.109 146.638 300.741 146.82 300.315 146.958C299.894 147.091 299.421 147.158 298.896 147.158ZM63.4194 169V160.052H67.2129C68.0596 160.052 68.7181 160.265 69.1885 160.691C69.6589 161.111 69.894 161.673 69.894 162.376V162.393C69.894 162.835 69.7557 163.242 69.479 163.613C69.2023 163.978 68.8537 164.205 68.4331 164.293V164.426C68.8149 164.476 69.1442 164.595 69.4209 164.783C69.6976 164.966 69.9106 165.198 70.0601 165.48C70.215 165.757 70.2925 166.07 70.2925 166.418V166.435C70.2925 166.95 70.1707 167.401 69.9272 167.788C69.6838 168.17 69.3324 168.469 68.873 168.685C68.4193 168.895 67.8714 169 67.2295 169H63.4194ZM64.8638 167.805H67.1714C67.7192 167.805 68.1315 167.686 68.4082 167.448C68.6849 167.204 68.8232 166.858 68.8232 166.41V166.394C68.8232 165.918 68.6628 165.572 68.3418 165.356C68.0208 165.14 67.5394 165.032 66.8975 165.032H64.8638V167.805ZM64.8638 163.837H66.7729C67.354 163.837 67.7801 163.726 68.0513 163.505C68.3224 163.284 68.458 162.963 68.458 162.542V162.525C68.458 162.144 68.3418 161.836 68.1094 161.604C67.877 161.366 67.509 161.247 67.0054 161.247H64.8638V163.837ZM72.3029 169V160.052H73.7472V162.924H75.4987C76.5225 162.924 77.3387 163.198 77.9474 163.746C78.5562 164.293 78.8605 165.029 78.8605 165.954V165.97C78.8605 166.894 78.5562 167.63 77.9474 168.178C77.3387 168.726 76.5225 169 75.4987 169H72.3029ZM75.4987 164.119H73.7472V167.805H75.4987C76.0908 167.805 76.5584 167.639 76.9015 167.307C77.2446 166.969 77.4162 166.524 77.4162 165.97V165.954C77.4162 165.395 77.2419 164.949 76.8932 164.617C76.5501 164.285 76.0853 164.119 75.4987 164.119ZM80.4211 169V160.052H81.8654V169H80.4211ZM88.0013 169.166C87.0882 169.166 86.3218 168.961 85.702 168.552C85.0822 168.137 84.6146 167.525 84.2992 166.717C83.9893 165.909 83.8343 164.908 83.8343 163.712V163.696C83.8343 162.506 83.9201 161.485 84.0917 160.633C84.2632 159.775 84.5288 159.069 84.8885 158.516C85.2538 157.957 85.7214 157.537 86.2914 157.254C86.8669 156.972 87.5531 156.812 88.35 156.773L89.2464 156.731C89.6061 156.715 89.988 156.671 90.392 156.599C90.7959 156.521 91.1916 156.405 91.579 156.25V157.528C91.4406 157.661 91.1584 157.777 90.7323 157.877C90.3062 157.971 89.833 158.032 89.3129 158.06L88.3998 158.101C87.708 158.129 87.1353 158.264 86.6815 158.508C86.2333 158.751 85.8819 159.125 85.6273 159.628C85.3727 160.132 85.1901 160.791 85.0795 161.604L85.0546 161.787H85.1874C85.3921 161.427 85.6439 161.125 85.9427 160.882C86.2416 160.638 86.5819 160.453 86.9637 160.326C87.3511 160.198 87.7689 160.135 88.2171 160.135C89.0196 160.135 89.7168 160.317 90.3089 160.683C90.9011 161.042 91.3576 161.551 91.6786 162.21C92.0051 162.868 92.1683 163.649 92.1683 164.551V164.567C92.1683 165.514 91.9995 166.333 91.662 167.024C91.3299 167.711 90.8513 168.239 90.2259 168.61C89.6061 168.981 88.8646 169.166 88.0013 169.166ZM88.0013 167.888C88.5713 167.888 89.0555 167.758 89.454 167.498C89.8579 167.232 90.1651 166.853 90.3754 166.36C90.5856 165.862 90.6908 165.265 90.6908 164.567V164.551C90.6908 163.881 90.5856 163.314 90.3754 162.849C90.1651 162.384 89.8579 162.03 89.454 161.787C89.0555 161.538 88.5713 161.413 88.0013 161.413C87.4313 161.413 86.9444 161.538 86.5404 161.787C86.142 162.03 85.8376 162.384 85.6273 162.849C85.417 163.314 85.3119 163.881 85.3119 164.551V164.567C85.3119 165.265 85.417 165.862 85.6273 166.36C85.8376 166.853 86.142 167.232 86.5404 167.498C86.9444 167.758 87.4313 167.888 88.0013 167.888ZM97.7979 169.158C96.9457 169.158 96.2124 168.97 95.5982 168.593C94.9895 168.217 94.5191 167.686 94.187 167C93.8606 166.308 93.6973 165.494 93.6973 164.559V164.551C93.6973 163.627 93.8606 162.816 94.187 162.119C94.5191 161.421 94.9867 160.876 95.5899 160.483C96.1931 160.09 96.8986 159.894 97.7066 159.894C98.5201 159.894 99.2173 160.082 99.7984 160.458C100.385 160.835 100.833 161.361 101.143 162.036C101.459 162.705 101.616 163.486 101.616 164.376V164.941H94.4444V163.787H100.877L100.164 164.841V164.269C100.164 163.566 100.058 162.987 99.8482 162.534C99.6379 162.08 99.3474 161.742 98.9766 161.521C98.6058 161.294 98.1797 161.181 97.6983 161.181C97.2168 161.181 96.7852 161.3 96.4034 161.538C96.0271 161.77 95.7282 162.116 95.5069 162.575C95.2855 163.035 95.1748 163.599 95.1748 164.269V164.841C95.1748 165.478 95.2828 166.023 95.4986 166.477C95.7144 166.925 96.0215 167.271 96.42 167.514C96.8184 167.752 97.2888 167.871 97.8311 167.871C98.2351 167.871 98.5865 167.816 98.8853 167.705C99.1841 167.594 99.4304 167.453 99.6241 167.282C99.8177 167.11 99.9533 166.936 100.031 166.759L100.064 166.684H101.508L101.492 166.75C101.414 167.055 101.276 167.351 101.077 167.639C100.883 167.921 100.631 168.178 100.321 168.411C100.011 168.638 99.6434 168.82 99.2173 168.958C98.7968 169.091 98.3236 169.158 97.7979 169.158ZM103.593 171.988V160.052H105.038V161.479H105.171C105.353 161.147 105.583 160.865 105.86 160.633C106.136 160.395 106.452 160.212 106.806 160.085C107.16 159.958 107.545 159.894 107.96 159.894C108.718 159.894 109.376 160.088 109.935 160.475C110.5 160.857 110.937 161.394 111.247 162.085C111.557 162.777 111.712 163.588 111.712 164.518V164.534C111.712 165.469 111.557 166.283 111.247 166.975C110.937 167.666 110.5 168.203 109.935 168.585C109.376 168.967 108.718 169.158 107.96 169.158C107.55 169.158 107.163 169.094 106.798 168.967C106.438 168.834 106.117 168.651 105.835 168.419C105.558 168.187 105.337 167.91 105.171 167.589H105.038V171.988H103.593ZM107.628 167.879C108.176 167.879 108.643 167.747 109.03 167.481C109.418 167.21 109.714 166.825 109.919 166.327C110.129 165.824 110.234 165.226 110.234 164.534V164.518C110.234 163.82 110.129 163.223 109.919 162.725C109.714 162.227 109.418 161.845 109.03 161.579C108.643 161.308 108.176 161.172 107.628 161.172C107.085 161.172 106.618 161.308 106.225 161.579C105.832 161.85 105.53 162.235 105.32 162.733C105.11 163.231 105.005 163.826 105.005 164.518V164.534C105.005 165.22 105.11 165.815 105.32 166.319C105.53 166.817 105.832 167.201 106.225 167.473C106.618 167.744 107.085 167.879 107.628 167.879ZM113.697 169V160.052H115.142V166.726H115.905L114.926 167.257L119.699 160.052H121.143V169H119.699V162.326H118.935L119.914 161.795L115.142 169H113.697ZM130.883 167.796L127.978 164.343V164.277C128.138 164.083 128.299 163.892 128.459 163.704C128.625 163.51 128.789 163.319 128.949 163.131C129.109 162.938 129.27 162.744 129.43 162.55C129.591 162.357 129.751 162.166 129.912 161.978C130.072 161.784 130.233 161.593 130.393 161.405C130.559 161.211 130.723 161.017 130.883 160.824H132.576L129.663 164.244V164.376L132.576 167.796H130.883ZM134.56 167.796L131.655 164.343V164.277C131.816 164.083 131.976 163.892 132.136 163.704C132.302 163.51 132.466 163.319 132.626 163.131C132.787 162.938 132.947 162.744 133.108 162.55C133.268 162.357 133.429 162.166 133.589 161.978C133.755 161.784 133.918 161.593 134.079 161.405C134.239 161.211 134.4 161.017 134.56 160.824H136.254L133.34 164.244V164.376L136.254 167.796H134.56ZM139.036 171.366H137.65V167.655H138.538C138.831 167.5 139.067 167.282 139.244 167C139.421 166.712 139.553 166.363 139.642 165.954C139.736 165.544 139.797 165.079 139.825 164.559L140.281 157.022H147.86V167.655H149.354V171.366H147.968V169H139.036V171.366ZM141.227 164.592C141.2 165.041 141.158 165.444 141.103 165.804C141.048 166.164 140.965 166.488 140.854 166.775C140.743 167.058 140.588 167.318 140.389 167.556V167.655H146.366V158.367H141.618L141.227 164.592ZM154.61 169.158C153.763 169.158 153.03 168.972 152.41 168.602C151.796 168.225 151.32 167.691 150.983 167C150.651 166.308 150.484 165.486 150.484 164.534V164.518C150.484 163.56 150.651 162.736 150.983 162.044C151.32 161.352 151.796 160.821 152.41 160.45C153.03 160.079 153.763 159.894 154.61 159.894C155.462 159.894 156.195 160.079 156.81 160.45C157.424 160.821 157.897 161.352 158.229 162.044C158.567 162.736 158.735 163.56 158.735 164.518V164.534C158.735 165.486 158.567 166.308 158.229 167C157.897 167.691 157.424 168.225 156.81 168.602C156.195 168.972 155.462 169.158 154.61 169.158ZM154.61 167.879C155.174 167.879 155.653 167.747 156.046 167.481C156.439 167.215 156.738 166.833 156.942 166.335C157.153 165.837 157.258 165.237 157.258 164.534V164.518C157.258 163.809 157.153 163.206 156.942 162.708C156.738 162.21 156.439 161.831 156.046 161.571C155.653 161.305 155.174 161.172 154.61 161.172C154.046 161.172 153.567 161.305 153.174 161.571C152.781 161.831 152.479 162.21 152.269 162.708C152.064 163.206 151.962 163.809 151.962 164.518V164.534C151.962 165.237 152.064 165.837 152.269 166.335C152.479 166.833 152.781 167.215 153.174 167.481C153.567 167.747 154.046 167.879 154.61 167.879ZM164.431 169.166C163.518 169.166 162.752 168.961 162.132 168.552C161.512 168.137 161.045 167.525 160.729 166.717C160.419 165.909 160.264 164.908 160.264 163.712V163.696C160.264 162.506 160.35 161.485 160.522 160.633C160.693 159.775 160.959 159.069 161.319 158.516C161.684 157.957 162.151 157.537 162.721 157.254C163.297 156.972 163.983 156.812 164.78 156.773L165.677 156.731C166.036 156.715 166.418 156.671 166.822 156.599C167.226 156.521 167.622 156.405 168.009 156.25V157.528C167.871 157.661 167.589 157.777 167.162 157.877C166.736 157.971 166.263 158.032 165.743 158.06L164.83 158.101C164.138 158.129 163.565 158.264 163.112 158.508C162.663 158.751 162.312 159.125 162.057 159.628C161.803 160.132 161.62 160.791 161.51 161.604L161.485 161.787H161.617C161.822 161.427 162.074 161.125 162.373 160.882C162.672 160.638 163.012 160.453 163.394 160.326C163.781 160.198 164.199 160.135 164.647 160.135C165.45 160.135 166.147 160.317 166.739 160.683C167.331 161.042 167.788 161.551 168.109 162.21C168.435 162.868 168.598 163.649 168.598 164.551V164.567C168.598 165.514 168.43 166.333 168.092 167.024C167.76 167.711 167.281 168.239 166.656 168.61C166.036 168.981 165.295 169.166 164.431 169.166ZM164.431 167.888C165.001 167.888 165.486 167.758 165.884 167.498C166.288 167.232 166.595 166.853 166.805 166.36C167.016 165.862 167.121 165.265 167.121 164.567V164.551C167.121 163.881 167.016 163.314 166.805 162.849C166.595 162.384 166.288 162.03 165.884 161.787C165.486 161.538 165.001 161.413 164.431 161.413C163.861 161.413 163.374 161.538 162.971 161.787C162.572 162.03 162.268 162.384 162.057 162.849C161.847 163.314 161.742 163.881 161.742 164.551V164.567C161.742 165.265 161.847 165.862 162.057 166.36C162.268 166.853 162.572 167.232 162.971 167.498C163.374 167.758 163.861 167.888 164.431 167.888ZM173.033 169.158C172.468 169.158 171.959 169.05 171.505 168.834C171.057 168.618 170.7 168.311 170.435 167.913C170.174 167.514 170.044 167.044 170.044 166.501V166.485C170.044 165.954 170.172 165.5 170.426 165.124C170.681 164.742 171.052 164.443 171.539 164.227C172.026 164.011 172.615 163.884 173.307 163.845L176.594 163.646V164.8L173.481 164.999C172.8 165.038 172.302 165.179 171.987 165.422C171.677 165.666 171.522 166.009 171.522 166.452V166.468C171.522 166.922 171.693 167.276 172.037 167.531C172.38 167.78 172.811 167.904 173.332 167.904C173.824 167.904 174.261 167.807 174.643 167.614C175.025 167.415 175.324 167.146 175.54 166.809C175.761 166.471 175.872 166.089 175.872 165.663V162.874C175.872 162.321 175.703 161.9 175.365 161.612C175.033 161.319 174.532 161.172 173.863 161.172C173.326 161.172 172.886 161.269 172.543 161.463C172.2 161.651 171.97 161.919 171.854 162.268L171.846 162.293H170.401L170.41 162.243C170.487 161.773 170.681 161.363 170.991 161.015C171.306 160.66 171.713 160.387 172.211 160.193C172.709 159.994 173.276 159.894 173.913 159.894C174.643 159.894 175.26 160.013 175.764 160.251C176.273 160.489 176.657 160.832 176.917 161.28C177.183 161.723 177.316 162.254 177.316 162.874V169H175.872V167.68H175.739C175.551 167.996 175.321 168.264 175.05 168.485C174.784 168.707 174.483 168.875 174.145 168.992C173.807 169.102 173.437 169.158 173.033 169.158ZM179.683 169V160.052H183.477C184.323 160.052 184.982 160.265 185.452 160.691C185.923 161.111 186.158 161.673 186.158 162.376V162.393C186.158 162.835 186.02 163.242 185.743 163.613C185.466 163.978 185.118 164.205 184.697 164.293V164.426C185.079 164.476 185.408 164.595 185.685 164.783C185.961 164.966 186.174 165.198 186.324 165.48C186.479 165.757 186.556 166.07 186.556 166.418V166.435C186.556 166.95 186.435 167.401 186.191 167.788C185.948 168.17 185.596 168.469 185.137 168.685C184.683 168.895 184.135 169 183.493 169H179.683ZM181.128 167.805H183.435C183.983 167.805 184.395 167.686 184.672 167.448C184.949 167.204 185.087 166.858 185.087 166.41V166.394C185.087 165.918 184.927 165.572 184.606 165.356C184.285 165.14 183.803 165.032 183.161 165.032H181.128V167.805ZM181.128 163.837H183.037C183.618 163.837 184.044 163.726 184.315 163.505C184.586 163.284 184.722 162.963 184.722 162.542V162.525C184.722 162.144 184.606 161.836 184.373 161.604C184.141 161.366 183.773 161.247 183.269 161.247H181.128V163.837ZM188.567 169V160.052H190.011V166.726H190.775L189.795 167.257L194.568 160.052H196.013V169H194.568V162.326H193.805L194.784 161.795L190.011 169H188.567ZM204.913 160.052V161.247H202.016V169H200.571V161.247H197.674V160.052H204.913ZM206.566 169V160.052H208.01V162.924H209.762C210.786 162.924 211.602 163.198 212.211 163.746C212.819 164.293 213.124 165.029 213.124 165.954V165.97C213.124 166.894 212.819 167.63 212.211 168.178C211.602 168.726 210.786 169 209.762 169H206.566ZM209.762 164.119H208.01V167.805H209.762C210.354 167.805 210.822 167.639 211.165 167.307C211.508 166.969 211.679 166.524 211.679 165.97V165.954C211.679 165.395 211.505 164.949 211.156 164.617C210.813 164.285 210.349 164.119 209.762 164.119ZM221.17 164.924H220.714V169H219.27V160.052H220.714V163.795H221.17L224.632 160.052H226.367L222.225 164.393V164.136L226.524 169H224.673L221.17 164.924ZM231.357 169.158C230.51 169.158 229.777 168.972 229.157 168.602C228.543 168.225 228.067 167.691 227.73 167C227.398 166.308 227.232 165.486 227.232 164.534V164.518C227.232 163.56 227.398 162.736 227.73 162.044C228.067 161.352 228.543 160.821 229.157 160.45C229.777 160.079 230.51 159.894 231.357 159.894C232.209 159.894 232.943 160.079 233.557 160.45C234.171 160.821 234.644 161.352 234.976 162.044C235.314 162.736 235.483 163.56 235.483 164.518V164.534C235.483 165.486 235.314 166.308 234.976 167C234.644 167.691 234.171 168.225 233.557 168.602C232.943 168.972 232.209 169.158 231.357 169.158ZM231.357 167.879C231.922 167.879 232.4 167.747 232.793 167.481C233.186 167.215 233.485 166.833 233.69 166.335C233.9 165.837 234.005 165.237 234.005 164.534V164.518C234.005 163.809 233.9 163.206 233.69 162.708C233.485 162.21 233.186 161.831 232.793 161.571C232.4 161.305 231.922 161.172 231.357 161.172C230.793 161.172 230.314 161.305 229.921 161.571C229.528 161.831 229.227 162.21 229.016 162.708C228.812 163.206 228.709 163.809 228.709 164.518V164.534C228.709 165.237 228.812 165.837 229.016 166.335C229.227 166.833 229.528 167.215 229.921 167.481C230.314 167.747 230.793 167.879 231.357 167.879ZM238.896 169H237.452V160.052H239.203L242.391 166.991H242.523L245.727 160.052H247.404V169H245.96V162.633H245.802L242.98 168.751H241.868L239.054 162.633H238.896V169ZM252.287 169.158C251.722 169.158 251.213 169.05 250.759 168.834C250.311 168.618 249.954 168.311 249.689 167.913C249.428 167.514 249.298 167.044 249.298 166.501V166.485C249.298 165.954 249.426 165.5 249.68 165.124C249.935 164.742 250.306 164.443 250.793 164.227C251.28 164.011 251.869 163.884 252.561 163.845L255.848 163.646V164.8L252.735 164.999C252.054 165.038 251.556 165.179 251.241 165.422C250.931 165.666 250.776 166.009 250.776 166.452V166.468C250.776 166.922 250.948 167.276 251.291 167.531C251.634 167.78 252.065 167.904 252.586 167.904C253.078 167.904 253.515 167.807 253.897 167.614C254.279 167.415 254.578 167.146 254.794 166.809C255.015 166.471 255.126 166.089 255.126 165.663V162.874C255.126 162.321 254.957 161.9 254.619 161.612C254.287 161.319 253.786 161.172 253.117 161.172C252.58 161.172 252.14 161.269 251.797 161.463C251.454 161.651 251.224 161.919 251.108 162.268L251.1 162.293H249.655L249.664 162.243C249.741 161.773 249.935 161.363 250.245 161.015C250.56 160.66 250.967 160.387 251.465 160.193C251.963 159.994 252.53 159.894 253.167 159.894C253.897 159.894 254.514 160.013 255.018 160.251C255.527 160.489 255.911 160.832 256.171 161.28C256.437 161.723 256.57 162.254 256.57 162.874V169H255.126V167.68H254.993C254.805 167.996 254.575 168.264 254.304 168.485C254.038 168.707 253.737 168.875 253.399 168.992C253.061 169.102 252.691 169.158 252.287 169.158ZM264.814 169V164.949H260.382V169H258.937V160.052H260.382V163.754H264.814V160.052H266.259V169H264.814ZM268.875 171.366H267.53V167.805H268.277C268.604 167.589 268.853 167.226 269.024 166.717C269.196 166.203 269.301 165.644 269.34 165.041L269.688 160.052H275.79V167.805H277.217V171.366H275.873V169H268.875V171.366ZM274.345 167.805V161.247H270.967L270.685 165.074C270.646 165.616 270.566 166.117 270.444 166.576C270.322 167.03 270.156 167.395 269.946 167.672V167.805H274.345ZM279.352 172.138C279.258 172.138 279.153 172.132 279.037 172.121C278.921 172.116 278.813 172.104 278.713 172.088V170.901C278.802 170.917 278.898 170.929 279.004 170.934C279.109 170.94 279.211 170.942 279.311 170.942C279.72 170.942 280.055 170.837 280.315 170.627C280.581 170.417 280.794 170.054 280.954 169.54L281.12 169.008L277.808 160.052H279.352L282.108 168.319L281.535 167.415H282.216L281.643 168.319L284.391 160.052H285.91L282.415 169.548C282.172 170.217 281.914 170.74 281.643 171.117C281.372 171.493 281.054 171.756 280.689 171.905C280.329 172.06 279.883 172.138 279.352 172.138ZM292.984 160.824L295.889 164.277V164.343C295.728 164.537 295.568 164.731 295.408 164.924C295.247 165.112 295.084 165.303 294.918 165.497C294.757 165.685 294.597 165.876 294.436 166.07C294.276 166.264 294.115 166.457 293.955 166.651C293.794 166.839 293.631 167.03 293.465 167.224C293.305 167.412 293.144 167.603 292.984 167.796H291.29L294.204 164.376V164.244L291.29 160.824H292.984ZM289.306 160.824L292.212 164.277V164.343C292.051 164.537 291.891 164.731 291.73 164.924C291.57 165.112 291.407 165.303 291.241 165.497C291.08 165.685 290.92 165.876 290.759 166.07C290.599 166.264 290.438 166.457 290.278 166.651C290.117 166.839 289.954 167.03 289.788 167.224C289.627 167.412 289.467 167.603 289.306 167.796H287.613L290.527 164.376V164.244L287.613 160.824H289.306ZM299.477 169.083C299.183 169.083 298.929 168.978 298.713 168.768C298.503 168.552 298.397 168.297 298.397 168.004C298.397 167.705 298.503 167.451 298.713 167.24C298.929 167.03 299.183 166.925 299.477 166.925C299.775 166.925 300.03 167.03 300.24 167.24C300.451 167.451 300.556 167.705 300.556 168.004C300.556 168.297 300.451 168.552 300.24 168.768C300.03 168.978 299.775 169.083 299.477 169.083Z" fill="black"/>
<defs>
<filter id="filter0_d_1922_2198" x="0" y="0" width="435" height="318" filterUnits="userSpaceOnUse" color-interpolation-filters="sRGB">
<feFlood flood-opacity="0" result="BackgroundImageFix"/>
<feColorMatrix in="SourceAlpha" type="matrix" values="0 0 0 0 0 0 0 0 0 0 0 0 0 0 0 0 0 0 127 0" result="hardAlpha"/>
<feOffset dy="8"/>
<feGaussianBlur stdDeviation="20"/>
<feComposite in2="hardAlpha" operator="out"/>
<feColorMatrix type="matrix" values="0 0 0 0 0 0 0 0 0 0 0 0 0 0 0 0 0 0 0.12 0"/>
<feBlend mode="normal" in2="BackgroundImageFix" result="effect1_dropShadow_1922_2198"/>
<feBlend mode="normal" in="SourceGraphic" in2="effect1_dropShadow_1922_2198" result="shape"/>
</filter>
</defs>
</svg>
