<svg width="435" height="260" viewBox="0 0 435 260" fill="none" xmlns="http://www.w3.org/2000/svg">
<g filter="url(#filter0_d_1925_2252)">
<path d="M40 86.4C40 67.3582 40 57.8373 43.7058 50.5643C46.9655 44.1668 52.1668 38.9655 58.5643 35.7058C65.8373 32 75.3582 32 94.4 32H340.6C359.642 32 369.163 32 376.436 35.7058C382.833 38.9655 388.035 44.1668 391.294 50.5643C395 57.8373 395 67.3582 395 86.4V157.6C395 176.642 395 186.163 391.294 193.436C388.035 199.833 382.833 205.035 376.436 208.294C369.163 212 359.642 212 340.6 212H94.4C75.3582 212 65.8373 212 58.5643 208.294C52.1668 205.035 46.9655 199.833 43.7058 193.436C40 186.163 40 176.642 40 157.6V86.4Z" fill="white" style="mix-blend-mode:color-dodge" shape-rendering="crispEdges"/>
<path d="M40 86.4C40 67.3582 40 57.8373 43.7058 50.5643C46.9655 44.1668 52.1668 38.9655 58.5643 35.7058C65.8373 32 75.3582 32 94.4 32H340.6C359.642 32 369.163 32 376.436 35.7058C382.833 38.9655 388.035 44.1668 391.294 50.5643C395 57.8373 395 67.3582 395 86.4V157.6C395 176.642 395 186.163 391.294 193.436C388.035 199.833 382.833 205.035 376.436 208.294C369.163 212 359.642 212 340.6 212H94.4C75.3582 212 65.8373 212 58.5643 208.294C52.1668 205.035 46.9655 199.833 43.7058 193.436C40 186.163 40 176.642 40 157.6V86.4Z" fill="#F5F5F5" fill-opacity="0.6" shape-rendering="crispEdges"/>
</g>
<path d="M40 86.4C40 67.3582 40 57.8373 43.7058 50.5643C46.9655 44.1668 52.1668 38.9655 58.5643 35.7058C65.8373 32 75.3582 32 94.4 32H340.6C359.642 32 369.163 32 376.436 35.7058C382.833 38.9655 388.035 44.1668 391.294 50.5643C395 57.8373 395 67.3582 395 86.4V157.6C395 176.642 395 186.163 391.294 193.436C388.035 199.833 382.833 205.035 376.436 208.294C369.163 212 359.642 212 340.6 212H94.4C75.3582 212 65.8373 212 58.5643 208.294C52.1668 205.035 46.9655 199.833 43.7058 193.436C40 186.163 40 176.642 40 157.6V86.4Z" fill="black" fill-opacity="0.01"/>
<path d="M65.7852 65.7705V64.0356H67.3789C68.0485 64.0356 68.5798 63.8696 68.9727 63.5376C69.3711 63.2 69.5703 62.7601 69.5703 62.2178V62.2012C69.5703 61.8636 69.4845 61.5703 69.313 61.3213C69.147 61.0723 68.9062 60.8813 68.5908 60.7485C68.2754 60.6157 67.8936 60.5493 67.4453 60.5493C67.0137 60.5493 66.6346 60.6157 66.3081 60.7485C65.9816 60.8813 65.7215 61.0723 65.5278 61.3213C65.3341 61.5703 65.2207 61.8719 65.1875 62.2261L65.1792 62.2759H63.1621L63.1704 62.168C63.2202 61.4596 63.4277 60.8481 63.793 60.3335C64.1637 59.8188 64.6646 59.4232 65.2954 59.1465C65.9263 58.8643 66.665 58.7231 67.5117 58.7231C68.3252 58.7231 69.0418 58.8587 69.6616 59.1299C70.2814 59.401 70.7684 59.7801 71.1226 60.2671C71.4767 60.7541 71.6538 61.3185 71.6538 61.9604V61.9771C71.6538 62.6356 71.4435 63.2166 71.0229 63.7202C70.6079 64.2238 70.0684 64.5475 69.4043 64.6914V64.8325C70.1846 64.91 70.8237 65.2033 71.3218 65.7124C71.8198 66.2215 72.0688 66.8883 72.0688 67.7129V67.7295C72.0688 68.4212 71.8669 69.0355 71.4629 69.5723C71.0589 70.109 70.5083 70.5324 69.811 70.8423C69.1138 71.1466 68.3307 71.2988 67.4619 71.2988C66.5765 71.2988 65.7962 71.1522 65.1211 70.8589C64.446 70.5601 63.9119 70.1478 63.519 69.6221C63.1261 69.0908 62.9103 68.4738 62.8716 67.771L62.8633 67.6963H64.9385L64.9468 67.7544C64.98 68.1086 65.1045 68.4157 65.3203 68.6758C65.5361 68.9303 65.8267 69.1268 66.1919 69.2651C66.5627 69.4035 66.9888 69.4727 67.4702 69.4727C67.9572 69.4727 68.3805 69.3952 68.7402 69.2402C69.1055 69.0853 69.3877 68.8695 69.5869 68.5928C69.7917 68.3105 69.894 67.9813 69.894 67.605V67.5884C69.894 67.0295 69.6782 66.5868 69.2466 66.2603C68.8149 65.9338 68.2062 65.7705 67.4204 65.7705H65.7852ZM76.3786 71.1494C75.8086 71.1494 75.2967 71.0387 74.8429 70.8174C74.3947 70.596 74.0405 70.2834 73.7804 69.8794C73.5259 69.4699 73.3986 68.9884 73.3986 68.4351V68.4185C73.3986 67.8817 73.5314 67.4196 73.7971 67.0322C74.0627 66.6393 74.4528 66.3322 74.9675 66.1108C75.4821 65.8895 76.1074 65.7594 76.8434 65.7207L80.197 65.5132V66.8745L77.134 67.0737C76.5529 67.1069 76.124 67.2287 75.8473 67.439C75.5707 67.6493 75.4323 67.9425 75.4323 68.3188V68.3354C75.4323 68.7228 75.579 69.0244 75.8722 69.2402C76.1711 69.4561 76.5501 69.564 77.0095 69.564C77.4245 69.564 77.7953 69.481 78.1218 69.3149C78.4483 69.1489 78.7056 68.9248 78.8937 68.6426C79.0819 68.3548 79.176 68.0311 79.176 67.6714V64.7993C79.176 64.3455 79.0321 63.9997 78.7443 63.7617C78.4566 63.5182 78.0304 63.3965 77.466 63.3965C76.9956 63.3965 76.611 63.4795 76.3122 63.6455C76.0134 63.806 75.8114 64.0356 75.7062 64.3345L75.6979 64.3677H73.7472L73.7555 64.293C73.822 63.7839 74.0212 63.3384 74.3532 62.9565C74.6852 62.5747 75.1252 62.2786 75.673 62.0684C76.2209 61.8581 76.8517 61.7529 77.5656 61.7529C78.3514 61.7529 79.0155 61.8747 79.5578 62.1182C80.1001 62.3561 80.5124 62.7048 80.7946 63.1641C81.0768 63.6178 81.2179 64.1629 81.2179 64.7993V71H79.176V69.7549H79.0348C78.8688 70.0426 78.653 70.2917 78.3874 70.502C78.1273 70.7122 77.8285 70.8727 77.4909 70.9834C77.1533 71.0941 76.7826 71.1494 76.3786 71.1494ZM83.4276 71V61.9272H91.305V71H89.2381V63.5293H85.4945V71H83.4276ZM94.5357 74.1875C94.4084 74.1875 94.2756 74.1847 94.1372 74.1792C94.0044 74.1737 93.8744 74.1654 93.7471 74.1543V72.5688C93.8301 72.5799 93.927 72.5854 94.0376 72.5854C94.1483 72.591 94.2562 72.5938 94.3614 72.5938C94.7875 72.5938 95.1278 72.4997 95.3824 72.3115C95.6425 72.1289 95.8278 71.8328 95.9385 71.4233L96.0464 71.0083L92.8008 61.9272H95.0586L97.4493 69.9624L96.8848 69.0161H97.5987L97.0508 69.9624L99.4414 61.9272H101.616L98.3623 71.1992C98.1023 71.9518 97.8034 72.5467 97.4659 72.9839C97.1283 73.4211 96.7216 73.731 96.2456 73.9136C95.7753 74.0962 95.2053 74.1875 94.5357 74.1875ZM106.64 71.1826C105.727 71.1826 104.947 70.9945 104.299 70.6182C103.652 70.2419 103.156 69.6995 102.813 68.9912C102.47 68.2829 102.299 67.4362 102.299 66.4512V66.4346C102.299 65.4551 102.47 64.6167 102.813 63.9194C103.156 63.2222 103.652 62.6882 104.299 62.3174C104.947 61.9411 105.724 61.7529 106.632 61.7529C107.412 61.7529 108.081 61.8885 108.64 62.1597C109.205 62.4253 109.65 62.7961 109.977 63.272C110.309 63.7424 110.514 64.293 110.591 64.9238V64.957H108.64L108.632 64.9321C108.538 64.4894 108.322 64.127 107.985 63.8447C107.653 63.5625 107.204 63.4214 106.64 63.4214C106.169 63.4214 105.766 63.5404 105.428 63.7783C105.096 64.0163 104.841 64.3594 104.664 64.8076C104.487 65.2559 104.399 65.7982 104.399 66.4346V66.4512C104.399 67.0931 104.487 67.6437 104.664 68.103C104.847 68.5568 105.104 68.9054 105.436 69.1489C105.768 69.3869 106.169 69.5059 106.64 69.5059C107.177 69.5059 107.608 69.3841 107.935 69.1406C108.267 68.8971 108.496 68.5374 108.624 68.0615L108.64 68.0283L110.583 68.02L110.574 68.0947C110.475 68.709 110.259 69.2485 109.927 69.7134C109.6 70.1782 109.163 70.5407 108.615 70.8008C108.068 71.0553 107.409 71.1826 106.64 71.1826ZM118.852 61.9272V63.5293H116.055V71H113.988V63.5293H111.199V61.9272H118.852ZM120.373 71V61.9272H122.415V68.0034H123.485L122.074 68.8003L126.407 61.9272H128.441V71H126.407V64.8906H125.337L126.731 64.0854L122.415 71H120.373ZM134.786 71V61.9272H136.828V68.0034H137.899L136.488 68.8003L140.821 61.9272H142.854V71H140.821V64.8906H139.75L141.144 64.0854L136.828 71H134.786ZM149.2 71V61.9272H151.242V68.0034H152.312L150.901 68.8003L155.234 61.9272H157.268V71H155.234V64.8906H154.163L155.558 64.0854L151.242 71H149.2ZM165.628 63.5293H161.578V71H159.511V61.9272H165.628V63.5293ZM167.29 74.0132V61.9272H169.357V63.3467H169.498C169.664 63.0202 169.88 62.7407 170.146 62.5083C170.417 62.2759 170.729 62.096 171.084 61.9688C171.438 61.8415 171.828 61.7778 172.254 61.7778C173.012 61.7778 173.668 61.9688 174.221 62.3506C174.78 62.7324 175.212 63.2747 175.516 63.9775C175.826 64.6748 175.981 65.5021 175.981 66.4595V66.4761C175.981 67.439 175.829 68.269 175.525 68.9663C175.22 69.6636 174.789 70.2031 174.23 70.585C173.676 70.9613 173.018 71.1494 172.254 71.1494C171.839 71.1494 171.452 71.0858 171.092 70.9585C170.732 70.8257 170.417 70.6403 170.146 70.4023C169.875 70.1644 169.659 69.8822 169.498 69.5557H169.357V74.0132H167.29ZM171.607 69.4062C172.077 69.4062 172.481 69.29 172.819 69.0576C173.156 68.8197 173.416 68.4821 173.599 68.0449C173.781 67.6022 173.873 67.0793 173.873 66.4761V66.4595C173.873 65.8452 173.781 65.3195 173.599 64.8823C173.416 64.4451 173.156 64.1104 172.819 63.8779C172.481 63.64 172.077 63.521 171.607 63.521C171.136 63.521 170.729 63.64 170.386 63.8779C170.049 64.1104 169.786 64.4451 169.598 64.8823C169.415 65.3195 169.324 65.8424 169.324 66.4512V66.4678C169.324 67.0765 169.415 67.6022 169.598 68.0449C169.786 68.4821 170.052 68.8197 170.395 69.0576C170.738 69.29 171.142 69.4062 171.607 69.4062ZM180.274 71.1494C179.704 71.1494 179.192 71.0387 178.739 70.8174C178.29 70.596 177.936 70.2834 177.676 69.8794C177.422 69.4699 177.294 68.9884 177.294 68.4351V68.4185C177.294 67.8817 177.427 67.4196 177.693 67.0322C177.958 66.6393 178.348 66.3322 178.863 66.1108C179.378 65.8895 180.003 65.7594 180.739 65.7207L184.093 65.5132V66.8745L181.03 67.0737C180.449 67.1069 180.02 67.2287 179.743 67.439C179.466 67.6493 179.328 67.9425 179.328 68.3188V68.3354C179.328 68.7228 179.475 69.0244 179.768 69.2402C180.067 69.4561 180.446 69.564 180.905 69.564C181.32 69.564 181.691 69.481 182.017 69.3149C182.344 69.1489 182.601 68.9248 182.789 68.6426C182.978 68.3548 183.072 68.0311 183.072 67.6714V64.7993C183.072 64.3455 182.928 63.9997 182.64 63.7617C182.352 63.5182 181.926 63.3965 181.362 63.3965C180.891 63.3965 180.507 63.4795 180.208 63.6455C179.909 63.806 179.707 64.0356 179.602 64.3345L179.594 64.3677H177.643L177.651 64.293C177.718 63.7839 177.917 63.3384 178.249 62.9565C178.581 62.5747 179.021 62.2786 179.569 62.0684C180.117 61.8581 180.747 61.7529 181.461 61.7529C182.247 61.7529 182.911 61.8747 183.453 62.1182C183.996 62.3561 184.408 62.7048 184.69 63.1641C184.973 63.6178 185.114 64.1629 185.114 64.7993V71H183.072V69.7549H182.931C182.764 70.0426 182.549 70.2917 182.283 70.502C182.023 70.7122 181.724 70.8727 181.387 70.9834C181.049 71.0941 180.678 71.1494 180.274 71.1494ZM187.323 71V61.9272H189.365V68.0034H190.436L189.025 68.8003L193.358 61.9272H195.392V71H193.358V64.8906H192.287L193.682 64.0854L189.365 71H187.323ZM191.366 60.6904C190.757 60.6904 190.223 60.5687 189.764 60.3252C189.31 60.0817 188.956 59.7469 188.701 59.3208C188.447 58.8947 188.319 58.4077 188.319 57.8599H189.946C189.952 58.3081 190.082 58.6927 190.336 59.0137C190.591 59.3291 190.934 59.4868 191.366 59.4868C191.808 59.4868 192.154 59.3291 192.403 59.0137C192.652 58.6927 192.78 58.3081 192.785 57.8599H194.412C194.412 58.4077 194.285 58.8947 194.03 59.3208C193.776 59.7469 193.419 60.0817 192.959 60.3252C192.506 60.5687 191.974 60.6904 191.366 60.6904ZM198.224 67.0405L198.033 59.0137H200.324L200.133 67.0405H198.224ZM199.187 71.2075C198.766 71.2075 198.431 71.0913 198.182 70.8589C197.933 70.6209 197.809 70.3027 197.809 69.9043C197.809 69.5059 197.933 69.1904 198.182 68.958C198.431 68.7201 198.766 68.6011 199.187 68.6011C199.607 68.6011 199.942 68.7201 200.191 68.958C200.44 69.1904 200.565 69.5059 200.565 69.9043C200.565 70.3027 200.44 70.6209 200.191 70.8589C199.942 71.0913 199.607 71.2075 199.187 71.2075Z" fill="black"/>
<path d="M64.3574 103V101.68H68.0596C68.9616 101.68 69.645 101.5 70.1099 101.141C70.5747 100.781 70.8071 100.258 70.8071 99.5718V99.5552C70.8071 99.0959 70.6992 98.7113 70.4834 98.4014C70.2676 98.0915 69.9438 97.859 69.5122 97.7041C69.0861 97.5492 68.5549 97.4717 67.9185 97.4717H64.3574V96.1851H67.4951C68.4027 96.1851 69.0833 96.0246 69.5371 95.7036C69.9964 95.3826 70.2261 94.9067 70.2261 94.2759V94.2593C70.2261 93.6506 70.0186 93.1802 69.6035 92.8481C69.194 92.5106 68.6185 92.3418 67.877 92.3418H64.3574V91.022H68.1924C68.9284 91.022 69.5592 91.1437 70.085 91.3872C70.6162 91.6307 71.0229 91.9766 71.3052 92.4248C71.5929 92.8675 71.7368 93.3932 71.7368 94.002V94.0186C71.7368 94.4336 71.6427 94.8237 71.4546 95.189C71.272 95.5542 71.0257 95.8613 70.7158 96.1104C70.4059 96.3594 70.0573 96.5199 69.6699 96.5918V96.7246C70.2178 96.791 70.6909 96.9543 71.0894 97.2144C71.4878 97.4744 71.7949 97.812 72.0107 98.2271C72.2321 98.6366 72.3428 99.1042 72.3428 99.6299V99.6465C72.3428 100.344 72.1795 100.944 71.853 101.448C71.5321 101.946 71.07 102.33 70.4668 102.602C69.8636 102.867 69.1359 103 68.2837 103H64.3574ZM63.6104 103V91.022H65.1045V103H63.6104ZM74.3283 103V94.0518H75.7726V96.9238H77.5241C78.5479 96.9238 79.3641 97.1978 79.9728 97.7456C80.5816 98.2935 80.8859 99.0295 80.8859 99.9536V99.9702C80.8859 100.894 80.5816 101.63 79.9728 102.178C79.3641 102.726 78.5479 103 77.5241 103H74.3283ZM77.5241 98.1191H75.7726V101.805H77.5241C78.1162 101.805 78.5838 101.639 78.9269 101.307C79.27 100.969 79.4416 100.524 79.4416 99.9702V99.9536C79.4416 99.3947 79.2673 98.9492 78.9186 98.6172C78.5755 98.2852 78.1107 98.1191 77.5241 98.1191ZM82.4465 103V94.0518H83.8908V103H82.4465ZM86.2997 103V94.0518H87.744V100.726H88.5077L87.5282 101.257L92.3011 94.0518H93.7455V103H92.3011V96.3262H91.5375L92.517 95.7949L87.744 103H86.2997ZM90.0267 92.8066C89.4567 92.8066 88.9587 92.6877 88.5326 92.4497C88.1065 92.2062 87.7744 91.8797 87.5365 91.4702C87.2985 91.0607 87.1796 90.5986 87.1796 90.084H88.4745C88.4745 90.5378 88.6128 90.9417 88.8895 91.2959C89.1662 91.6501 89.5453 91.8271 90.0267 91.8271C90.5192 91.8271 90.9011 91.6501 91.1722 91.2959C91.4434 90.9417 91.579 90.5378 91.579 90.084H92.8739C92.8739 90.5986 92.7549 91.0607 92.517 91.4702C92.279 91.8797 91.947 92.2062 91.5209 92.4497C91.0948 92.6877 90.5967 92.8066 90.0267 92.8066ZM96.3702 105.366H95.0254V101.805H95.7725C96.099 101.589 96.348 101.226 96.5196 100.717C96.6911 100.203 96.7963 99.6437 96.835 99.0405L97.1836 94.0518H103.285V101.805H104.712V105.366H103.368V103H96.3702V105.366ZM101.84 101.805V95.2471H98.462L98.1797 99.0737C98.141 99.616 98.0607 100.117 97.939 100.576C97.8173 101.03 97.6512 101.395 97.441 101.672V101.805H101.84ZM106.158 103V94.0518H107.603V100.726H108.366L107.387 101.257L112.16 94.0518H113.604V103H112.16V96.3262H111.396L112.376 95.7949L107.603 103H106.158ZM126.25 103V98.9492H121.817V103H120.373V94.0518H121.817V97.7539H126.25V94.0518H127.694V103H126.25ZM132.568 103.158C132.004 103.158 131.495 103.05 131.041 102.834C130.593 102.618 130.236 102.311 129.97 101.913C129.71 101.514 129.58 101.044 129.58 100.501V100.485C129.58 99.9536 129.707 99.4998 129.962 99.1235C130.216 98.7417 130.587 98.4429 131.074 98.2271C131.561 98.0112 132.15 97.884 132.842 97.8452L136.129 97.646V98.7998L133.016 98.999C132.336 99.0378 131.838 99.1789 131.522 99.4224C131.212 99.6659 131.057 100.009 131.057 100.452V100.468C131.057 100.922 131.229 101.276 131.572 101.531C131.915 101.78 132.347 101.904 132.867 101.904C133.359 101.904 133.797 101.807 134.178 101.614C134.56 101.415 134.859 101.146 135.075 100.809C135.296 100.471 135.407 100.089 135.407 99.6631V96.874C135.407 96.3206 135.238 95.9001 134.901 95.6123C134.569 95.319 134.068 95.1724 133.398 95.1724C132.861 95.1724 132.421 95.2692 132.078 95.4629C131.735 95.651 131.506 95.9194 131.389 96.2681L131.381 96.293H129.937L129.945 96.2432C130.023 95.7728 130.216 95.3633 130.526 95.0146C130.842 94.6605 131.248 94.3866 131.746 94.1929C132.244 93.9937 132.812 93.894 133.448 93.894C134.178 93.894 134.795 94.013 135.299 94.251C135.808 94.4889 136.193 94.832 136.453 95.2803C136.719 95.723 136.851 96.2542 136.851 96.874V103H135.407V101.68H135.274C135.086 101.996 134.856 102.264 134.585 102.485C134.32 102.707 134.018 102.875 133.68 102.992C133.343 103.102 132.972 103.158 132.568 103.158ZM143.578 105.988V94.0518H145.023V95.4795H145.155C145.338 95.1475 145.568 94.8652 145.844 94.6328C146.121 94.3949 146.436 94.2122 146.791 94.085C147.145 93.9577 147.529 93.894 147.944 93.894C148.703 93.894 149.361 94.0877 149.92 94.4751C150.484 94.8569 150.922 95.3937 151.232 96.0854C151.541 96.7772 151.696 97.5879 151.696 98.5176V98.5342C151.696 99.4694 151.541 100.283 151.232 100.975C150.922 101.666 150.484 102.203 149.92 102.585C149.361 102.967 148.703 103.158 147.944 103.158C147.535 103.158 147.148 103.094 146.782 102.967C146.423 102.834 146.102 102.651 145.819 102.419C145.543 102.187 145.321 101.91 145.155 101.589H145.023V105.988H143.578ZM147.612 101.879C148.16 101.879 148.628 101.747 149.015 101.481C149.403 101.21 149.699 100.825 149.903 100.327C150.114 99.8236 150.219 99.2259 150.219 98.5342V98.5176C150.219 97.8203 150.114 97.2227 149.903 96.7246C149.699 96.2266 149.403 95.8447 149.015 95.5791C148.628 95.3079 148.16 95.1724 147.612 95.1724C147.07 95.1724 146.602 95.3079 146.21 95.5791C145.817 95.8503 145.515 96.2349 145.305 96.7329C145.095 97.231 144.989 97.8258 144.989 98.5176V98.5342C144.989 99.2204 145.095 99.8153 145.305 100.319C145.515 100.817 145.817 101.201 146.21 101.473C146.602 101.744 147.07 101.879 147.612 101.879ZM156.147 103.158C155.583 103.158 155.074 103.05 154.62 102.834C154.172 102.618 153.815 102.311 153.549 101.913C153.289 101.514 153.159 101.044 153.159 100.501V100.485C153.159 99.9536 153.286 99.4998 153.541 99.1235C153.795 98.7417 154.166 98.4429 154.653 98.2271C155.14 98.0112 155.729 97.884 156.421 97.8452L159.708 97.646V98.7998L156.596 98.999C155.915 99.0378 155.417 99.1789 155.101 99.4224C154.791 99.6659 154.637 100.009 154.637 100.452V100.468C154.637 100.922 154.808 101.276 155.151 101.531C155.494 101.78 155.926 101.904 156.446 101.904C156.939 101.904 157.376 101.807 157.758 101.614C158.139 101.415 158.438 101.146 158.654 100.809C158.875 100.471 158.986 100.089 158.986 99.6631V96.874C158.986 96.3206 158.817 95.9001 158.48 95.6123C158.148 95.319 157.647 95.1724 156.977 95.1724C156.441 95.1724 156.001 95.2692 155.658 95.4629C155.314 95.651 155.085 95.9194 154.969 96.2681L154.96 96.293H153.516L153.524 96.2432C153.602 95.7728 153.795 95.3633 154.105 95.0146C154.421 94.6605 154.827 94.3866 155.325 94.1929C155.824 93.9937 156.391 93.894 157.027 93.894C157.758 93.894 158.375 94.013 158.878 94.251C159.387 94.4889 159.772 94.832 160.032 95.2803C160.298 95.723 160.43 96.2542 160.43 96.874V103H158.986V101.68H158.853C158.665 101.996 158.436 102.264 158.164 102.485C157.899 102.707 157.597 102.875 157.26 102.992C156.922 103.102 156.551 103.158 156.147 103.158ZM166.525 103.166C165.612 103.166 164.845 102.961 164.226 102.552C163.606 102.137 163.138 101.525 162.823 100.717C162.513 99.9093 162.358 98.9077 162.358 97.7124V97.6958C162.358 96.506 162.444 95.485 162.615 94.6328C162.787 93.7751 163.052 93.0695 163.412 92.5161C163.777 91.9572 164.245 91.5366 164.815 91.2544C165.39 90.9722 166.077 90.8117 166.874 90.7729L167.77 90.7314C168.13 90.7148 168.512 90.6706 168.916 90.5986C169.319 90.5212 169.715 90.4049 170.103 90.25V91.5283C169.964 91.6611 169.682 91.7773 169.256 91.877C168.83 91.971 168.357 92.0319 167.836 92.0596L166.923 92.1011C166.232 92.1287 165.659 92.2643 165.205 92.5078C164.757 92.7513 164.405 93.1248 164.151 93.6284C163.896 94.132 163.714 94.7905 163.603 95.604L163.578 95.7866H163.711C163.916 95.4269 164.167 95.1253 164.466 94.8818C164.765 94.6383 165.105 94.453 165.487 94.3257C165.875 94.1984 166.292 94.1348 166.741 94.1348C167.543 94.1348 168.24 94.3174 168.832 94.6826C169.425 95.0423 169.881 95.5514 170.202 96.21C170.529 96.8685 170.692 97.6488 170.692 98.5508V98.5674C170.692 99.5137 170.523 100.333 170.186 101.024C169.853 101.711 169.375 102.239 168.749 102.61C168.13 102.981 167.388 103.166 166.525 103.166ZM166.525 101.888C167.095 101.888 167.579 101.758 167.978 101.498C168.381 101.232 168.689 100.853 168.899 100.36C169.109 99.8623 169.214 99.2646 169.214 98.5674V98.5508C169.214 97.8812 169.109 97.314 168.899 96.8491C168.689 96.3843 168.381 96.0301 167.978 95.7866C167.579 95.5376 167.095 95.4131 166.525 95.4131C165.955 95.4131 165.468 95.5376 165.064 95.7866C164.666 96.0301 164.361 96.3843 164.151 96.8491C163.941 97.314 163.835 97.8812 163.835 98.5508V98.5674C163.835 99.2646 163.941 99.8623 164.151 100.36C164.361 100.853 164.666 101.232 165.064 101.498C165.468 101.758 165.955 101.888 166.525 101.888ZM176.346 103.158C175.5 103.158 174.766 102.972 174.147 102.602C173.532 102.225 173.056 101.691 172.719 101C172.387 100.308 172.221 99.486 172.221 98.5342V98.5176C172.221 97.5602 172.387 96.7357 172.719 96.0439C173.056 95.3522 173.532 94.821 174.147 94.4502C174.766 94.0794 175.5 93.894 176.346 93.894C177.199 93.894 177.932 94.0794 178.546 94.4502C179.16 94.821 179.633 95.3522 179.965 96.0439C180.303 96.7357 180.472 97.5602 180.472 98.5176V98.5342C180.472 99.486 180.303 100.308 179.965 101C179.633 101.691 179.16 102.225 178.546 102.602C177.932 102.972 177.199 103.158 176.346 103.158ZM176.346 101.879C176.911 101.879 177.389 101.747 177.782 101.481C178.175 101.215 178.474 100.833 178.679 100.335C178.889 99.8374 178.994 99.237 178.994 98.5342V98.5176C178.994 97.8092 178.889 97.2061 178.679 96.708C178.474 96.21 178.175 95.8309 177.782 95.5708C177.389 95.3052 176.911 95.1724 176.346 95.1724C175.782 95.1724 175.303 95.3052 174.91 95.5708C174.517 95.8309 174.216 96.21 174.006 96.708C173.801 97.2061 173.698 97.8092 173.698 98.5176V98.5342C173.698 99.237 173.801 99.8374 174.006 100.335C174.216 100.833 174.517 101.215 174.91 101.481C175.303 101.747 175.782 101.879 176.346 101.879ZM189.098 103H187.654V99.2729H187.521C187.283 99.4445 186.987 99.5773 186.633 99.6714C186.284 99.7655 185.869 99.8125 185.388 99.8125C184.308 99.8125 183.492 99.5164 182.939 98.9243C182.385 98.3322 182.109 97.5602 182.109 96.6084V94.0518H183.553V96.6084C183.553 97.195 183.705 97.6626 184.01 98.0112C184.32 98.3599 184.779 98.5342 185.388 98.5342C185.764 98.5342 186.099 98.5037 186.392 98.4429C186.685 98.382 186.937 98.299 187.147 98.1938C187.363 98.0887 187.532 97.967 187.654 97.8286V94.0518H189.098V103ZM191.507 103V94.0518H192.951V100.726H193.715L192.735 101.257L197.508 94.0518H198.953V103H197.508V96.3262H196.745L197.724 95.7949L192.951 103H191.507ZM201.37 103V94.0518H202.814V100.726H203.578L202.598 101.257L207.371 94.0518H208.816V103H207.371V96.3262H206.608L207.587 95.7949L202.814 103H201.37ZM205.097 92.8066C204.527 92.8066 204.029 92.6877 203.603 92.4497C203.177 92.2062 202.845 91.8797 202.607 91.4702C202.369 91.0607 202.25 90.5986 202.25 90.084H203.545C203.545 90.5378 203.683 90.9417 203.96 91.2959C204.236 91.6501 204.615 91.8271 205.097 91.8271C205.589 91.8271 205.971 91.6501 206.242 91.2959C206.514 90.9417 206.649 90.5378 206.649 90.084H207.944C207.944 90.5986 207.825 91.0607 207.587 91.4702C207.349 91.8797 207.017 92.2062 206.591 92.4497C206.165 92.6877 205.667 92.8066 205.097 92.8066ZM219.253 103.158C218.417 103.158 217.692 102.967 217.078 102.585C216.464 102.203 215.988 101.664 215.65 100.966C215.313 100.269 215.144 99.4473 215.144 98.501V98.4844C215.144 97.5547 215.31 96.7467 215.642 96.0605C215.98 95.3743 216.456 94.8431 217.07 94.4668C217.684 94.085 218.409 93.894 219.245 93.894C219.97 93.894 220.595 94.0213 221.121 94.2759C221.646 94.5304 222.067 94.8735 222.382 95.3052C222.698 95.7313 222.9 96.21 222.988 96.7412L222.997 96.791H221.561L221.552 96.7661C221.442 96.3234 221.19 95.9471 220.797 95.6372C220.404 95.3273 219.887 95.1724 219.245 95.1724C218.708 95.1724 218.243 95.3079 217.85 95.5791C217.457 95.8503 217.153 96.2349 216.937 96.7329C216.727 97.2254 216.622 97.8092 216.622 98.4844V98.501C216.622 99.1872 216.73 99.7848 216.945 100.294C217.161 100.798 217.466 101.188 217.858 101.464C218.251 101.741 218.713 101.879 219.245 101.879C219.848 101.879 220.34 101.749 220.722 101.489C221.104 101.229 221.378 100.85 221.544 100.352L221.561 100.302L222.988 100.294L222.972 100.385C222.85 100.922 222.634 101.401 222.324 101.821C222.014 102.236 221.605 102.563 221.096 102.801C220.587 103.039 219.972 103.158 219.253 103.158ZM230.901 94.0518V95.2471H228.004V103H226.559V95.2471H223.662V94.0518H230.901ZM235.908 103.158C235.061 103.158 234.328 102.972 233.708 102.602C233.094 102.225 232.618 101.691 232.28 101C231.948 100.308 231.782 99.486 231.782 98.5342V98.5176C231.782 97.5602 231.948 96.7357 232.28 96.0439C232.618 95.3522 233.094 94.821 233.708 94.4502C234.328 94.0794 235.061 93.894 235.908 93.894C236.76 93.894 237.493 94.0794 238.107 94.4502C238.722 94.821 239.195 95.3522 239.527 96.0439C239.864 96.7357 240.033 97.5602 240.033 98.5176V98.5342C240.033 99.486 239.864 100.308 239.527 101C239.195 101.691 238.722 102.225 238.107 102.602C237.493 102.972 236.76 103.158 235.908 103.158ZM235.908 101.879C236.472 101.879 236.951 101.747 237.344 101.481C237.737 101.215 238.035 100.833 238.24 100.335C238.45 99.8374 238.556 99.237 238.556 98.5342V98.5176C238.556 97.8092 238.45 97.2061 238.24 96.708C238.035 96.21 237.737 95.8309 237.344 95.5708C236.951 95.3052 236.472 95.1724 235.908 95.1724C235.343 95.1724 234.865 95.3052 234.472 95.5708C234.079 95.8309 233.777 96.21 233.567 96.708C233.362 97.2061 233.26 97.8092 233.26 98.5176V98.5342C233.26 99.237 233.362 99.8374 233.567 100.335C233.777 100.833 234.079 101.215 234.472 101.481C234.865 101.747 235.343 101.879 235.908 101.879ZM244.019 99.4971C243.958 100.316 243.828 100.991 243.629 101.522C243.435 102.054 243.167 102.447 242.824 102.701C242.486 102.956 242.068 103.083 241.57 103.083C241.415 103.083 241.283 103.072 241.172 103.05C241.061 103.033 240.976 103.014 240.915 102.992V101.688C240.953 101.7 241.023 101.713 241.122 101.73C241.222 101.741 241.324 101.747 241.429 101.747C241.706 101.747 241.93 101.641 242.102 101.431C242.273 101.221 242.403 100.939 242.492 100.584C242.586 100.225 242.647 99.8236 242.674 99.3809L243.056 94.0518H248.908V103H247.464V95.2471H244.351L244.019 99.4971ZM258.134 103.158C257.569 103.158 257.06 103.05 256.606 102.834C256.158 102.618 255.801 102.311 255.536 101.913C255.276 101.514 255.145 101.044 255.145 100.501V100.485C255.145 99.9536 255.273 99.4998 255.527 99.1235C255.782 98.7417 256.153 98.4429 256.64 98.2271C257.127 98.0112 257.716 97.884 258.408 97.8452L261.695 97.646V98.7998L258.582 98.999C257.901 99.0378 257.403 99.1789 257.088 99.4224C256.778 99.6659 256.623 100.009 256.623 100.452V100.468C256.623 100.922 256.795 101.276 257.138 101.531C257.481 101.78 257.912 101.904 258.433 101.904C258.925 101.904 259.362 101.807 259.744 101.614C260.126 101.415 260.425 101.146 260.641 100.809C260.862 100.471 260.973 100.089 260.973 99.6631V96.874C260.973 96.3206 260.804 95.9001 260.466 95.6123C260.134 95.319 259.633 95.1724 258.964 95.1724C258.427 95.1724 257.987 95.2692 257.644 95.4629C257.301 95.651 257.071 95.9194 256.955 96.2681L256.947 96.293H255.502L255.511 96.2432C255.588 95.7728 255.782 95.3633 256.092 95.0146C256.407 94.6605 256.814 94.3866 257.312 94.1929C257.81 93.9937 258.377 93.894 259.014 93.894C259.744 93.894 260.361 94.013 260.865 94.251C261.374 94.4889 261.758 94.832 262.019 95.2803C262.284 95.723 262.417 96.2542 262.417 96.874V103H260.973V101.68H260.84C260.652 101.996 260.422 102.264 260.151 102.485C259.885 102.707 259.584 102.875 259.246 102.992C258.908 103.102 258.538 103.158 258.134 103.158ZM264.784 103V94.0518H266.229V100.726H266.992L266.013 101.257L270.786 94.0518H272.23V103H270.786V96.3262H270.022L271.002 95.7949L266.229 103H264.784ZM268.511 92.8066C267.941 92.8066 267.443 92.6877 267.017 92.4497C266.591 92.2062 266.259 91.8797 266.021 91.4702C265.783 91.0607 265.664 90.5986 265.664 90.084H266.959C266.959 90.5378 267.097 90.9417 267.374 91.2959C267.651 91.6501 268.03 91.8271 268.511 91.8271C269.004 91.8271 269.386 91.6501 269.657 91.2959C269.928 90.9417 270.064 90.5378 270.064 90.084H271.359C271.359 90.5986 271.24 91.0607 271.002 91.4702C270.764 91.8797 270.432 92.2062 270.006 92.4497C269.579 92.6877 269.081 92.8066 268.511 92.8066ZM278.823 105.988V103.108C277.898 103.091 277.09 102.895 276.399 102.519C275.707 102.137 275.167 101.605 274.78 100.925C274.398 100.244 274.207 99.4473 274.207 98.5342V98.5176C274.207 97.599 274.398 96.7993 274.78 96.1187C275.167 95.438 275.707 94.9095 276.399 94.5332C277.09 94.1514 277.898 93.9549 278.823 93.9438V91.022H280.217V93.9438C281.141 93.9604 281.946 94.1597 282.633 94.5415C283.324 94.9178 283.861 95.4463 284.243 96.127C284.63 96.8021 284.824 97.599 284.824 98.5176V98.5342C284.824 99.4528 284.63 100.252 284.243 100.933C283.861 101.614 283.324 102.142 282.633 102.519C281.946 102.895 281.141 103.091 280.217 103.108V105.988H278.823ZM278.823 101.871V95.1807C278.181 95.1917 277.622 95.3356 277.146 95.6123C276.67 95.8835 276.302 96.2653 276.042 96.7578C275.787 97.2503 275.66 97.8369 275.66 98.5176V98.5342C275.66 99.2093 275.787 99.7931 276.042 100.286C276.302 100.778 276.67 101.163 277.146 101.439C277.622 101.711 278.181 101.854 278.823 101.871ZM280.217 101.871C280.859 101.854 281.415 101.711 281.886 101.439C282.361 101.168 282.727 100.786 282.981 100.294C283.241 99.7959 283.371 99.2093 283.371 98.5342V98.5176C283.371 97.8424 283.241 97.2586 282.981 96.7661C282.727 96.2736 282.361 95.8918 281.886 95.6206C281.415 95.3439 280.859 95.1973 280.217 95.1807V101.871ZM290.487 103.158C289.64 103.158 288.907 102.972 288.287 102.602C287.673 102.225 287.197 101.691 286.859 101C286.527 100.308 286.361 99.486 286.361 98.5342V98.5176C286.361 97.5602 286.527 96.7357 286.859 96.0439C287.197 95.3522 287.673 94.821 288.287 94.4502C288.907 94.0794 289.64 93.894 290.487 93.894C291.339 93.894 292.072 94.0794 292.687 94.4502C293.301 94.821 293.774 95.3522 294.106 96.0439C294.444 96.7357 294.612 97.5602 294.612 98.5176V98.5342C294.612 99.486 294.444 100.308 294.106 101C293.774 101.691 293.301 102.225 292.687 102.602C292.072 102.972 291.339 103.158 290.487 103.158ZM290.487 101.879C291.051 101.879 291.53 101.747 291.923 101.481C292.316 101.215 292.615 100.833 292.819 100.335C293.03 99.8374 293.135 99.237 293.135 98.5342V98.5176C293.135 97.8092 293.03 97.2061 292.819 96.708C292.615 96.21 292.316 95.8309 291.923 95.5708C291.53 95.3052 291.051 95.1724 290.487 95.1724C289.922 95.1724 289.444 95.3052 289.051 95.5708C288.658 95.8309 288.356 96.21 288.146 96.708C287.941 97.2061 287.839 97.8092 287.839 98.5176V98.5342C287.839 99.237 287.941 99.8374 288.146 100.335C288.356 100.833 288.658 101.215 289.051 101.481C289.444 101.747 289.922 101.879 290.487 101.879ZM302.458 103V98.9492H298.026V103H296.581V94.0518H298.026V97.7539H302.458V94.0518H303.903V103H302.458ZM308.777 103.158C308.212 103.158 307.703 103.05 307.249 102.834C306.801 102.618 306.444 102.311 306.179 101.913C305.918 101.514 305.788 101.044 305.788 100.501V100.485C305.788 99.9536 305.916 99.4998 306.17 99.1235C306.425 98.7417 306.796 98.4429 307.283 98.2271C307.77 98.0112 308.359 97.884 309.051 97.8452L312.338 97.646V98.7998L309.225 98.999C308.544 99.0378 308.046 99.1789 307.731 99.4224C307.421 99.6659 307.266 100.009 307.266 100.452V100.468C307.266 100.922 307.438 101.276 307.781 101.531C308.124 101.78 308.555 101.904 309.076 101.904C309.568 101.904 310.005 101.807 310.387 101.614C310.769 101.415 311.068 101.146 311.284 100.809C311.505 100.471 311.616 100.089 311.616 99.6631V96.874C311.616 96.3206 311.447 95.9001 311.109 95.6123C310.777 95.319 310.276 95.1724 309.607 95.1724C309.07 95.1724 308.63 95.2692 308.287 95.4629C307.944 95.651 307.714 95.9194 307.598 96.2681L307.59 96.293H306.145L306.154 96.2432C306.231 95.7728 306.425 95.3633 306.735 95.0146C307.05 94.6605 307.457 94.3866 307.955 94.1929C308.453 93.9937 309.02 93.894 309.657 93.894C310.387 93.894 311.004 94.013 311.508 94.251C312.017 94.4889 312.401 94.832 312.661 95.2803C312.927 95.723 313.06 96.2542 313.06 96.874V103H311.616V101.68H311.483C311.295 101.996 311.065 102.264 310.794 102.485C310.528 102.707 310.227 102.875 309.889 102.992C309.551 103.102 309.181 103.158 308.777 103.158ZM314.987 106.046L315.71 101.323H317.361L316.058 106.046H314.987ZM330.272 103V98.9492H325.84V103H324.395V94.0518H325.84V97.7539H330.272V94.0518H331.717V103H330.272ZM336.591 103.158C336.026 103.158 335.517 103.05 335.064 102.834C334.615 102.618 334.258 102.311 333.993 101.913C333.733 101.514 333.603 101.044 333.603 100.501V100.485C333.603 99.9536 333.73 99.4998 333.984 99.1235C334.239 98.7417 334.61 98.4429 335.097 98.2271C335.584 98.0112 336.173 97.884 336.865 97.8452L340.152 97.646V98.7998L337.039 98.999C336.358 99.0378 335.86 99.1789 335.545 99.4224C335.235 99.6659 335.08 100.009 335.08 100.452V100.468C335.08 100.922 335.252 101.276 335.595 101.531C335.938 101.78 336.37 101.904 336.89 101.904C337.382 101.904 337.819 101.807 338.201 101.614C338.583 101.415 338.882 101.146 339.098 100.809C339.319 100.471 339.43 100.089 339.43 99.6631V96.874C339.43 96.3206 339.261 95.9001 338.923 95.6123C338.591 95.319 338.091 95.1724 337.421 95.1724C336.884 95.1724 336.444 95.2692 336.101 95.4629C335.758 95.651 335.528 95.9194 335.412 96.2681L335.404 96.293H333.96L333.968 96.2432C334.045 95.7728 334.239 95.3633 334.549 95.0146C334.864 94.6605 335.271 94.3866 335.769 94.1929C336.267 93.9937 336.834 93.894 337.471 93.894C338.201 93.894 338.818 94.013 339.322 94.251C339.831 94.4889 340.216 94.832 340.476 95.2803C340.741 95.723 340.874 96.2542 340.874 96.874V103H339.43V101.68H339.297C339.109 101.996 338.879 102.264 338.608 102.485C338.342 102.707 338.041 102.875 337.703 102.992C337.366 103.102 336.995 103.158 336.591 103.158ZM343.241 103V94.0518H344.686V100.726H345.449L344.47 101.257L349.243 94.0518H350.687V103H349.243V96.3262H348.479L349.459 95.7949L344.686 103H343.241ZM346.969 92.8066C346.399 92.8066 345.9 92.6877 345.474 92.4497C345.048 92.2062 344.716 91.8797 344.478 91.4702C344.24 91.0607 344.121 90.5986 344.121 90.084H345.416C345.416 90.5378 345.555 90.9417 345.831 91.2959C346.108 91.6501 346.487 91.8271 346.969 91.8271C347.461 91.8271 347.843 91.6501 348.114 91.2959C348.385 90.9417 348.521 90.5378 348.521 90.084H349.816C349.816 90.5986 349.697 91.0607 349.459 91.4702C349.221 91.8797 348.889 92.2062 348.463 92.4497C348.037 92.6877 347.538 92.8066 346.969 92.8066ZM353.312 105.366H351.967V101.805H352.714C353.041 101.589 353.29 101.226 353.461 100.717C353.633 100.203 353.738 99.6437 353.777 99.0405L354.125 94.0518H360.227V101.805H361.654V105.366H360.31V103H353.312V105.366ZM358.782 101.805V95.2471H355.404L355.122 99.0737C355.083 99.616 355.003 100.117 354.881 100.576C354.759 101.03 354.593 101.395 354.383 101.672V101.805H358.782ZM363.1 103V94.0518H364.545V100.726H365.308L364.329 101.257L369.102 94.0518H370.546V103H369.102V96.3262H368.338L369.318 95.7949L364.545 103H363.1ZM69.2964 125V120.949H64.8638V125H63.4194V116.052H64.8638V119.754H69.2964V116.052H70.7407V125H69.2964ZM76.8351 125.158C75.9885 125.158 75.2552 124.972 74.6354 124.602C74.0212 124.225 73.5453 123.691 73.2077 123C72.8757 122.308 72.7096 121.486 72.7096 120.534V120.518C72.7096 119.56 72.8757 118.736 73.2077 118.044C73.5453 117.352 74.0212 116.821 74.6354 116.45C75.2552 116.079 75.9885 115.894 76.8351 115.894C77.6873 115.894 78.4206 116.079 79.0348 116.45C79.6491 116.821 80.1222 117.352 80.4543 118.044C80.7918 118.736 80.9606 119.56 80.9606 120.518V120.534C80.9606 121.486 80.7918 122.308 80.4543 123C80.1222 123.691 79.6491 124.225 79.0348 124.602C78.4206 124.972 77.6873 125.158 76.8351 125.158ZM76.8351 123.879C77.3996 123.879 77.8783 123.747 78.2712 123.481C78.6641 123.215 78.9629 122.833 79.1677 122.335C79.3779 121.837 79.4831 121.237 79.4831 120.534V120.518C79.4831 119.809 79.3779 119.206 79.1677 118.708C78.9629 118.21 78.6641 117.831 78.2712 117.571C77.8783 117.305 77.3996 117.172 76.8351 117.172C76.2707 117.172 75.792 117.305 75.3991 117.571C75.0062 117.831 74.7046 118.21 74.4943 118.708C74.2896 119.206 74.1872 119.809 74.1872 120.518V120.534C74.1872 121.237 74.2896 121.837 74.4943 122.335C74.7046 122.833 75.0062 123.215 75.3991 123.481C75.792 123.747 76.2707 123.879 76.8351 123.879ZM82.9296 125V116.052H86.723C87.5697 116.052 88.2282 116.265 88.6986 116.691C89.169 117.111 89.4042 117.673 89.4042 118.376V118.393C89.4042 118.835 89.2658 119.242 88.9891 119.613C88.7124 119.978 88.3638 120.205 87.9432 120.293V120.426C88.3251 120.476 88.6543 120.595 88.931 120.783C89.2077 120.966 89.4208 121.198 89.5702 121.48C89.7251 121.757 89.8026 122.07 89.8026 122.418V122.435C89.8026 122.95 89.6809 123.401 89.4374 123.788C89.1939 124.17 88.8425 124.469 88.3832 124.685C87.9294 124.895 87.3815 125 86.7396 125H82.9296ZM84.3739 123.805H86.6815C87.2294 123.805 87.6416 123.686 87.9183 123.448C88.195 123.204 88.3334 122.858 88.3334 122.41V122.394C88.3334 121.918 88.1729 121.572 87.8519 121.356C87.5309 121.14 87.0495 121.032 86.4076 121.032H84.3739V123.805ZM84.3739 119.837H86.2831C86.8641 119.837 87.2902 119.726 87.5614 119.505C87.8325 119.284 87.9681 118.963 87.9681 118.542V118.525C87.9681 118.144 87.8519 117.836 87.6195 117.604C87.3871 117.366 87.0191 117.247 86.5155 117.247H84.3739V119.837ZM92.253 128.138C92.1589 128.138 92.0537 128.132 91.9375 128.121C91.8213 128.116 91.7134 128.104 91.6138 128.088V126.901C91.7023 126.917 91.7992 126.929 91.9043 126.934C92.0095 126.94 92.1119 126.942 92.2115 126.942C92.621 126.942 92.9558 126.837 93.2159 126.627C93.4815 126.417 93.6945 126.054 93.855 125.54L94.021 125.008L90.709 116.052H92.253L95.0088 124.319L94.4361 123.415H95.1167L94.544 124.319L97.2915 116.052H98.8106L95.316 125.548C95.0725 126.217 94.8151 126.74 94.544 127.117C94.2728 127.493 93.9546 127.756 93.5894 127.905C93.2297 128.06 92.7842 128.138 92.253 128.138ZM107.536 125.166C106.728 125.166 106.028 124.992 105.436 124.643C104.844 124.289 104.379 123.785 104.042 123.132C103.71 122.479 103.527 121.699 103.494 120.792L103.519 119.912C103.591 119.07 103.795 118.351 104.133 117.753C104.476 117.15 104.935 116.688 105.511 116.367C106.092 116.046 106.767 115.886 107.536 115.886C108.372 115.886 109.091 116.071 109.695 116.442C110.298 116.813 110.763 117.344 111.089 118.036C111.416 118.727 111.579 119.555 111.579 120.518V120.534C111.579 121.492 111.416 122.316 111.089 123.008C110.763 123.7 110.298 124.234 109.695 124.61C109.091 124.981 108.372 125.166 107.536 125.166ZM107.536 123.888C108.084 123.888 108.549 123.755 108.931 123.489C109.313 123.224 109.603 122.842 109.802 122.344C110.002 121.84 110.101 121.237 110.101 120.534V120.518C110.101 119.809 110.002 119.206 109.802 118.708C109.603 118.204 109.313 117.823 108.931 117.562C108.549 117.297 108.084 117.164 107.536 117.164C106.988 117.164 106.524 117.297 106.142 117.562C105.76 117.823 105.469 118.204 105.27 118.708C105.071 119.206 104.971 119.809 104.971 120.518V120.534C104.971 121.237 105.071 121.84 105.27 122.344C105.469 122.842 105.76 123.224 106.142 123.489C106.524 123.755 106.988 123.888 107.536 123.888ZM100.447 125V116.052H101.892V119.754H104.233V120.949H101.892V125H100.447ZM117.899 125V116.052H119.343V122.726H120.107L119.128 123.257L123.9 116.052H125.345V125H123.9V118.326H123.137L124.116 117.795L119.343 125H117.899ZM129.663 120.924H129.206V125H127.762V116.052H129.206V119.795H129.663L133.124 116.052H134.859L130.717 120.393V120.136L135.017 125H133.166L129.663 120.924ZM139.85 125.158C139.003 125.158 138.27 124.972 137.65 124.602C137.036 124.225 136.56 123.691 136.222 123C135.89 122.308 135.724 121.486 135.724 120.534V120.518C135.724 119.56 135.89 118.736 136.222 118.044C136.56 117.352 137.036 116.821 137.65 116.45C138.27 116.079 139.003 115.894 139.85 115.894C140.702 115.894 141.435 116.079 142.049 116.45C142.664 116.821 143.137 117.352 143.469 118.044C143.806 118.736 143.975 119.56 143.975 120.518V120.534C143.975 121.486 143.806 122.308 143.469 123C143.137 123.691 142.664 124.225 142.049 124.602C141.435 124.972 140.702 125.158 139.85 125.158ZM139.85 123.879C140.414 123.879 140.893 123.747 141.286 123.481C141.678 123.215 141.977 122.833 142.182 122.335C142.392 121.837 142.497 121.237 142.497 120.534V120.518C142.497 119.809 142.392 119.206 142.182 118.708C141.977 118.21 141.678 117.831 141.286 117.571C140.893 117.305 140.414 117.172 139.85 117.172C139.285 117.172 138.806 117.305 138.414 117.571C138.021 117.831 137.719 118.21 137.509 118.708C137.304 119.206 137.202 119.809 137.202 120.518V120.534C137.202 121.237 137.304 121.837 137.509 122.335C137.719 122.833 138.021 123.215 138.414 123.481C138.806 123.747 139.285 123.879 139.85 123.879ZM151.821 125V120.949H147.388V125H145.944V116.052H147.388V119.754H151.821V116.052H153.265V125H151.821ZM157.575 120.924H157.118V125H155.674V116.052H157.118V119.795H157.575L161.036 116.052H162.771L158.629 120.393V120.136L162.929 125H161.078L157.575 120.924ZM164.931 128.138C164.837 128.138 164.732 128.132 164.616 128.121C164.499 128.116 164.392 128.104 164.292 128.088V126.901C164.381 126.917 164.477 126.929 164.582 126.934C164.688 126.94 164.79 126.942 164.89 126.942C165.299 126.942 165.634 126.837 165.894 126.627C166.16 126.417 166.373 126.054 166.533 125.54L166.699 125.008L163.387 116.052H164.931L167.687 124.319L167.114 123.415H167.795L167.222 124.319L169.97 116.052H171.489L167.994 125.548C167.751 126.217 167.493 126.74 167.222 127.117C166.951 127.493 166.633 127.756 166.268 127.905C165.908 128.06 165.462 128.138 164.931 128.138ZM180.449 123.796L177.543 120.343V120.277C177.704 120.083 177.864 119.892 178.025 119.704C178.191 119.51 178.354 119.319 178.514 119.131C178.675 118.938 178.835 118.744 178.996 118.55C179.156 118.357 179.317 118.166 179.477 117.978C179.638 117.784 179.798 117.593 179.959 117.405C180.125 117.211 180.288 117.017 180.449 116.824H182.142L179.228 120.244V120.376L182.142 123.796H180.449ZM184.126 123.796L181.221 120.343V120.277C181.381 120.083 181.542 119.892 181.702 119.704C181.868 119.51 182.031 119.319 182.192 119.131C182.352 118.938 182.513 118.744 182.673 118.55C182.834 118.357 182.994 118.166 183.155 117.978C183.321 117.784 183.484 117.593 183.644 117.405C183.805 117.211 183.965 117.017 184.126 116.824H185.819L182.906 120.244V120.376L185.819 123.796H184.126ZM189.988 125H188.494V113.022H189.988V118.285H190.419L195.367 113.022H197.243L191.523 118.974V118.575L197.724 125H195.749L190.419 119.48H189.988V125ZM202.183 125.158C201.337 125.158 200.603 124.972 199.984 124.602C199.369 124.225 198.893 123.691 198.556 123C198.224 122.308 198.058 121.486 198.058 120.534V120.518C198.058 119.56 198.224 118.736 198.556 118.044C198.893 117.352 199.369 116.821 199.984 116.45C200.603 116.079 201.337 115.894 202.183 115.894C203.036 115.894 203.769 116.079 204.383 116.45C204.997 116.821 205.47 117.352 205.802 118.044C206.14 118.736 206.309 119.56 206.309 120.518V120.534C206.309 121.486 206.14 122.308 205.802 123C205.47 123.691 204.997 124.225 204.383 124.602C203.769 124.972 203.036 125.158 202.183 125.158ZM202.183 123.879C202.748 123.879 203.226 123.747 203.619 123.481C204.012 123.215 204.311 122.833 204.516 122.335C204.726 121.837 204.831 121.237 204.831 120.534V120.518C204.831 119.809 204.726 119.206 204.516 118.708C204.311 118.21 204.012 117.831 203.619 117.571C203.226 117.305 202.748 117.172 202.183 117.172C201.619 117.172 201.14 117.305 200.747 117.571C200.354 117.831 200.053 118.21 199.842 118.708C199.638 119.206 199.535 119.809 199.535 120.518V120.534C199.535 121.237 199.638 121.837 199.842 122.335C200.053 122.833 200.354 123.215 200.747 123.481C201.14 123.747 201.619 123.879 202.183 123.879ZM211.241 125.166C210.605 125.166 210.029 125.066 209.515 124.867C209.005 124.668 208.59 124.391 208.269 124.037C207.948 123.677 207.758 123.257 207.697 122.775L207.688 122.709H209.158L209.174 122.775C209.268 123.141 209.501 123.431 209.871 123.647C210.242 123.863 210.699 123.971 211.241 123.971C211.9 123.971 212.414 123.827 212.785 123.539C213.156 123.251 213.341 122.886 213.341 122.443V122.427C213.341 121.94 213.161 121.583 212.802 121.356C212.447 121.124 211.927 121.007 211.241 121.007H209.847V119.812H211.241C211.817 119.812 212.257 119.699 212.561 119.472C212.871 119.239 213.026 118.891 213.026 118.426V118.409C213.026 118.027 212.879 117.712 212.586 117.463C212.298 117.208 211.866 117.081 211.291 117.081C210.782 117.081 210.35 117.186 209.996 117.396C209.642 117.607 209.429 117.892 209.357 118.251L209.349 118.293H207.937L207.946 118.235C208.018 117.753 208.2 117.338 208.494 116.99C208.792 116.636 209.18 116.364 209.656 116.176C210.137 115.983 210.682 115.886 211.291 115.886C211.96 115.886 212.528 115.988 212.993 116.193C213.463 116.398 213.82 116.683 214.063 117.048C214.312 117.408 214.437 117.825 214.437 118.301V118.318C214.437 118.772 214.301 119.181 214.03 119.546C213.759 119.912 213.402 120.147 212.959 120.252V120.385C213.352 120.468 213.682 120.601 213.947 120.783C214.218 120.966 214.42 121.19 214.553 121.456C214.691 121.721 214.761 122.02 214.761 122.352V122.369C214.761 122.922 214.611 123.409 214.312 123.83C214.019 124.25 213.607 124.579 213.076 124.817C212.55 125.05 211.938 125.166 211.241 125.166ZM220.307 125.158C219.455 125.158 218.722 124.97 218.107 124.593C217.499 124.217 217.028 123.686 216.696 123C216.37 122.308 216.207 121.494 216.207 120.559V120.551C216.207 119.627 216.37 118.816 216.696 118.119C217.028 117.421 217.496 116.876 218.099 116.483C218.702 116.09 219.408 115.894 220.216 115.894C221.029 115.894 221.727 116.082 222.308 116.458C222.894 116.835 223.343 117.361 223.652 118.036C223.968 118.705 224.126 119.486 224.126 120.376V120.941H216.954V119.787H223.387L222.673 120.841V120.269C222.673 119.566 222.568 118.987 222.357 118.534C222.147 118.08 221.857 117.742 221.486 117.521C221.115 117.294 220.689 117.181 220.208 117.181C219.726 117.181 219.294 117.3 218.913 117.538C218.536 117.77 218.238 118.116 218.016 118.575C217.795 119.035 217.684 119.599 217.684 120.269V120.841C217.684 121.478 217.792 122.023 218.008 122.477C218.224 122.925 218.531 123.271 218.929 123.514C219.328 123.752 219.798 123.871 220.34 123.871C220.744 123.871 221.096 123.816 221.395 123.705C221.693 123.594 221.94 123.453 222.133 123.282C222.327 123.11 222.463 122.936 222.54 122.759L222.573 122.684H224.018L224.001 122.75C223.924 123.055 223.785 123.351 223.586 123.639C223.392 123.921 223.141 124.178 222.831 124.411C222.521 124.638 222.153 124.82 221.727 124.958C221.306 125.091 220.833 125.158 220.307 125.158ZM227.946 121.497C227.885 122.316 227.755 122.991 227.555 123.522C227.362 124.054 227.093 124.447 226.75 124.701C226.413 124.956 225.995 125.083 225.497 125.083C225.342 125.083 225.209 125.072 225.098 125.05C224.988 125.033 224.902 125.014 224.841 124.992V123.688C224.88 123.7 224.949 123.713 225.049 123.73C225.148 123.741 225.251 123.747 225.356 123.747C225.632 123.747 225.857 123.641 226.028 123.431C226.2 123.221 226.33 122.939 226.418 122.584C226.512 122.225 226.573 121.824 226.601 121.381L226.983 116.052H232.835V125H231.39V117.247H228.278L227.946 121.497ZM240.681 116.824L243.586 120.277V120.343C243.425 120.537 243.265 120.731 243.104 120.924C242.944 121.112 242.781 121.303 242.615 121.497C242.454 121.685 242.294 121.876 242.133 122.07C241.973 122.264 241.812 122.457 241.652 122.651C241.491 122.839 241.328 123.03 241.162 123.224C241.002 123.412 240.841 123.603 240.681 123.796H238.987L241.901 120.376V120.244L238.987 116.824H240.681ZM237.003 116.824L239.909 120.277V120.343C239.748 120.537 239.588 120.731 239.427 120.924C239.267 121.112 239.103 121.303 238.937 121.497C238.777 121.685 238.616 121.876 238.456 122.07C238.295 122.264 238.135 122.457 237.975 122.651C237.814 122.839 237.651 123.03 237.485 123.224C237.324 123.412 237.164 123.603 237.003 123.796H235.31L238.224 120.376V120.244L235.31 116.824H237.003ZM250.421 125V116.052H251.865V122.726H252.629L251.649 123.257L256.422 116.052H257.866V125H256.422V118.326H255.658L256.638 117.795L251.865 125H250.421ZM270.512 125V120.949H266.079V125H264.635V116.052H266.079V119.754H270.512V116.052H271.956V125H270.512ZM276.83 125.158C276.266 125.158 275.757 125.05 275.303 124.834C274.855 124.618 274.498 124.311 274.232 123.913C273.972 123.514 273.842 123.044 273.842 122.501V122.485C273.842 121.954 273.969 121.5 274.224 121.124C274.478 120.742 274.849 120.443 275.336 120.227C275.823 120.011 276.413 119.884 277.104 119.845L280.391 119.646V120.8L277.279 120.999C276.598 121.038 276.1 121.179 275.784 121.422C275.475 121.666 275.32 122.009 275.32 122.452V122.468C275.32 122.922 275.491 123.276 275.834 123.531C276.177 123.78 276.609 123.904 277.129 123.904C277.622 123.904 278.059 123.807 278.441 123.614C278.823 123.415 279.121 123.146 279.337 122.809C279.559 122.471 279.669 122.089 279.669 121.663V118.874C279.669 118.321 279.5 117.9 279.163 117.612C278.831 117.319 278.33 117.172 277.66 117.172C277.124 117.172 276.684 117.269 276.341 117.463C275.998 117.651 275.768 117.919 275.652 118.268L275.643 118.293H274.199L274.207 118.243C274.285 117.773 274.478 117.363 274.788 117.015C275.104 116.66 275.511 116.387 276.009 116.193C276.507 115.994 277.074 115.894 277.71 115.894C278.441 115.894 279.058 116.013 279.561 116.251C280.07 116.489 280.455 116.832 280.715 117.28C280.981 117.723 281.114 118.254 281.114 118.874V125H279.669V123.68H279.536C279.348 123.996 279.119 124.264 278.847 124.485C278.582 124.707 278.28 124.875 277.943 124.992C277.605 125.102 277.234 125.158 276.83 125.158ZM284.278 125H282.493L286.353 120.285L282.626 116.052H284.361L287.49 119.82H288.021V116.052H289.416V119.82H289.947L293.077 116.052H294.787L291.084 120.252L294.969 125H293.16L289.947 120.899H289.416V125H288.021V120.899H287.49L284.278 125ZM297.843 125H296.399V116.052H298.15L301.338 122.991H301.47L304.674 116.052H306.351V125H304.907V118.633H304.749L301.927 124.751H300.815L298.001 118.633H297.843V125ZM308.768 125V116.052H310.213V122.726H310.976L309.997 123.257L314.77 116.052H316.214V125H314.77V118.326H314.006L314.986 117.795L310.213 125H308.768ZM328.86 125V120.949H324.427V125H322.983V116.052H324.427V119.754H328.86V116.052H330.304V125H328.86ZM335.178 125.158C334.614 125.158 334.105 125.05 333.651 124.834C333.203 124.618 332.846 124.311 332.58 123.913C332.32 123.514 332.19 123.044 332.19 122.501V122.485C332.19 121.954 332.317 121.5 332.572 121.124C332.826 120.742 333.197 120.443 333.684 120.227C334.171 120.011 334.76 119.884 335.452 119.845L338.739 119.646V120.8L335.626 120.999C334.946 121.038 334.448 121.179 334.132 121.422C333.822 121.666 333.667 122.009 333.667 122.452V122.468C333.667 122.922 333.839 123.276 334.182 123.531C334.525 123.78 334.957 123.904 335.477 123.904C335.969 123.904 336.407 123.807 336.788 123.614C337.17 123.415 337.469 123.146 337.685 122.809C337.906 122.471 338.017 122.089 338.017 121.663V118.874C338.017 118.321 337.848 117.9 337.511 117.612C337.179 117.319 336.678 117.172 336.008 117.172C335.471 117.172 335.031 117.269 334.688 117.463C334.345 117.651 334.116 117.919 333.999 118.268L333.991 118.293H332.547L332.555 118.243C332.633 117.773 332.826 117.363 333.136 117.015C333.452 116.66 333.858 116.387 334.356 116.193C334.854 115.994 335.422 115.894 336.058 115.894C336.788 115.894 337.406 116.013 337.909 116.251C338.418 116.489 338.803 116.832 339.063 117.28C339.329 117.723 339.461 118.254 339.461 118.874V125H338.017V123.68H337.884C337.696 123.996 337.466 124.264 337.195 124.485C336.93 124.707 336.628 124.875 336.29 124.992C335.953 125.102 335.582 125.158 335.178 125.158ZM69.2964 147V142.949H64.8638V147H63.4194V138.052H64.8638V141.754H69.2964V138.052H70.7407V147H69.2964ZM76.8102 147.158C75.958 147.158 75.2248 146.97 74.6105 146.593C74.0018 146.217 73.5314 145.686 73.1994 145C72.8729 144.308 72.7096 143.494 72.7096 142.559V142.551C72.7096 141.627 72.8729 140.816 73.1994 140.119C73.5314 139.421 73.999 138.876 74.6022 138.483C75.2054 138.09 75.911 137.894 76.7189 137.894C77.5324 137.894 78.2297 138.082 78.8107 138.458C79.3973 138.835 79.8456 139.361 80.1554 140.036C80.4709 140.705 80.6286 141.486 80.6286 142.376V142.941H73.4567V141.787H79.8898L79.176 142.841V142.269C79.176 141.566 79.0708 140.987 78.8605 140.534C78.6502 140.08 78.3597 139.742 77.9889 139.521C77.6182 139.294 77.1921 139.181 76.7106 139.181C76.2292 139.181 75.7975 139.3 75.4157 139.538C75.0394 139.77 74.7406 140.116 74.5192 140.575C74.2979 141.035 74.1872 141.599 74.1872 142.269V142.841C74.1872 143.478 74.2951 144.023 74.5109 144.477C74.7267 144.925 75.0339 145.271 75.4323 145.514C75.8307 145.752 76.3011 145.871 76.8434 145.871C77.2474 145.871 77.5988 145.816 77.8976 145.705C78.1965 145.594 78.4427 145.453 78.6364 145.282C78.8301 145.11 78.9657 144.936 79.0431 144.759L79.0763 144.684H80.5207L80.5041 144.75C80.4266 145.055 80.2883 145.351 80.089 145.639C79.8954 145.921 79.6436 146.178 79.3337 146.411C79.0238 146.638 78.6558 146.82 78.2297 146.958C77.8091 147.091 77.336 147.158 76.8102 147.158ZM86.2582 147.158C85.4059 147.158 84.6727 146.97 84.0585 146.593C83.4497 146.217 82.9794 145.686 82.6473 145C82.3208 144.308 82.1576 143.494 82.1576 142.559V142.551C82.1576 141.627 82.3208 140.816 82.6473 140.119C82.9794 139.421 83.447 138.876 84.0502 138.483C84.6533 138.09 85.3589 137.894 86.1669 137.894C86.9803 137.894 87.6776 138.082 88.2587 138.458C88.8452 138.835 89.2935 139.361 89.6034 140.036C89.9188 140.705 90.0765 141.486 90.0765 142.376V142.941H82.9046V141.787H89.3378L88.6239 142.841V142.269C88.6239 141.566 88.5187 140.987 88.3085 140.534C88.0982 140.08 87.8076 139.742 87.4369 139.521C87.0661 139.294 86.64 139.181 86.1586 139.181C85.6771 139.181 85.2455 139.3 84.8636 139.538C84.4873 139.77 84.1885 140.116 83.9671 140.575C83.7458 141.035 83.6351 141.599 83.6351 142.269V142.841C83.6351 143.478 83.743 144.023 83.9588 144.477C84.1747 144.925 84.4818 145.271 84.8802 145.514C85.2787 145.752 85.749 145.871 86.2914 145.871C86.6953 145.871 87.0467 145.816 87.3456 145.705C87.6444 145.594 87.8907 145.453 88.0843 145.282C88.278 145.11 88.4136 144.936 88.4911 144.759L88.5243 144.684H89.9686L89.952 144.75C89.8745 145.055 89.7362 145.351 89.537 145.639C89.3433 145.921 89.0915 146.178 88.7816 146.411C88.4717 146.638 88.1037 146.82 87.6776 146.958C87.257 147.091 86.7839 147.158 86.2582 147.158ZM84.3573 136.259C84.1027 136.259 83.8841 136.17 83.7015 135.993C83.5244 135.811 83.4359 135.592 83.4359 135.337C83.4359 135.088 83.5244 134.875 83.7015 134.698C83.8841 134.516 84.1027 134.424 84.3573 134.424C84.6063 134.424 84.8194 134.516 84.9964 134.698C85.1791 134.875 85.2704 135.088 85.2704 135.337C85.2704 135.592 85.1791 135.811 84.9964 135.993C84.8194 136.17 84.6063 136.259 84.3573 136.259ZM88.0179 136.259C87.7689 136.259 87.5531 136.17 87.3705 135.993C87.1934 135.811 87.1048 135.592 87.1048 135.337C87.1048 135.088 87.1934 134.875 87.3705 134.698C87.5531 134.516 87.7689 134.424 88.0179 134.424C88.2725 134.424 88.4883 134.516 88.6654 134.698C88.848 134.875 88.9393 135.088 88.9393 135.337C88.9393 135.592 88.848 135.811 88.6654 135.993C88.4883 136.17 88.2725 136.259 88.0179 136.259ZM93.1495 147.083C92.8562 147.083 92.6016 146.978 92.3858 146.768C92.1755 146.552 92.0704 146.297 92.0704 146.004C92.0704 145.705 92.1755 145.451 92.3858 145.24C92.6016 145.03 92.8562 144.925 93.1495 144.925C93.4483 144.925 93.7028 145.03 93.9131 145.24C94.1234 145.451 94.2286 145.705 94.2286 146.004C94.2286 146.297 94.1234 146.552 93.9131 146.768C93.7028 146.978 93.4483 147.083 93.1495 147.083ZM110.601 147H109.107V136.367H102.699V147H101.204V135.022H110.601V147ZM113.209 149.988V138.052H114.653V139.479H114.786C114.969 139.147 115.198 138.865 115.475 138.633C115.752 138.395 116.067 138.212 116.421 138.085C116.776 137.958 117.16 137.894 117.575 137.894C118.333 137.894 118.992 138.088 119.551 138.475C120.115 138.857 120.552 139.394 120.862 140.085C121.172 140.777 121.327 141.588 121.327 142.518V142.534C121.327 143.469 121.172 144.283 120.862 144.975C120.552 145.666 120.115 146.203 119.551 146.585C118.992 146.967 118.333 147.158 117.575 147.158C117.166 147.158 116.778 147.094 116.413 146.967C116.053 146.834 115.732 146.651 115.45 146.419C115.174 146.187 114.952 145.91 114.786 145.589H114.653V149.988H113.209ZM117.243 145.879C117.791 145.879 118.259 145.747 118.646 145.481C119.033 145.21 119.33 144.825 119.534 144.327C119.745 143.824 119.85 143.226 119.85 142.534V142.518C119.85 141.82 119.745 141.223 119.534 140.725C119.33 140.227 119.033 139.845 118.646 139.579C118.259 139.308 117.791 139.172 117.243 139.172C116.701 139.172 116.233 139.308 115.84 139.579C115.448 139.85 115.146 140.235 114.936 140.733C114.725 141.231 114.62 141.826 114.62 142.518V142.534C114.62 143.22 114.725 143.815 114.936 144.319C115.146 144.817 115.448 145.201 115.84 145.473C116.233 145.744 116.701 145.879 117.243 145.879ZM123.313 147V138.052H124.757V144.726H125.521L124.541 145.257L129.314 138.052H130.759V147H129.314V140.326H128.551L129.53 139.795L124.757 147H123.313ZM137.527 147V138.052H144.765V147H143.321V139.247H138.971V147H137.527ZM150.835 147.158C149.983 147.158 149.249 146.97 148.635 146.593C148.026 146.217 147.556 145.686 147.224 145C146.897 144.308 146.734 143.494 146.734 142.559V142.551C146.734 141.627 146.897 140.816 147.224 140.119C147.556 139.421 148.024 138.876 148.627 138.483C149.23 138.09 149.936 137.894 150.743 137.894C151.557 137.894 152.254 138.082 152.835 138.458C153.422 138.835 153.87 139.361 154.18 140.036C154.495 140.705 154.653 141.486 154.653 142.376V142.941H147.481V141.787H153.914L153.2 142.841V142.269C153.2 141.566 153.095 140.987 152.885 140.534C152.675 140.08 152.384 139.742 152.013 139.521C151.643 139.294 151.217 139.181 150.735 139.181C150.254 139.181 149.822 139.3 149.44 139.538C149.064 139.77 148.765 140.116 148.544 140.575C148.322 141.035 148.212 141.599 148.212 142.269V142.841C148.212 143.478 148.32 144.023 148.535 144.477C148.751 144.925 149.058 145.271 149.457 145.514C149.855 145.752 150.326 145.871 150.868 145.871C151.272 145.871 151.623 145.816 151.922 145.705C152.221 145.594 152.467 145.453 152.661 145.282C152.855 145.11 152.99 144.936 153.068 144.759L153.101 144.684H154.545L154.529 144.75C154.451 145.055 154.313 145.351 154.114 145.639C153.92 145.921 153.668 146.178 153.358 146.411C153.048 146.638 152.68 146.82 152.254 146.958C151.834 147.091 151.36 147.158 150.835 147.158ZM156.63 149.988V138.052H158.075V139.479H158.207C158.39 139.147 158.62 138.865 158.896 138.633C159.173 138.395 159.489 138.212 159.843 138.085C160.197 137.958 160.582 137.894 160.997 137.894C161.755 137.894 162.413 138.088 162.972 138.475C163.537 138.857 163.974 139.394 164.284 140.085C164.594 140.777 164.749 141.588 164.749 142.518V142.534C164.749 143.469 164.594 144.283 164.284 144.975C163.974 145.666 163.537 146.203 162.972 146.585C162.413 146.967 161.755 147.158 160.997 147.158C160.587 147.158 160.2 147.094 159.834 146.967C159.475 146.834 159.154 146.651 158.872 146.419C158.595 146.187 158.374 145.91 158.207 145.589H158.075V149.988H156.63ZM160.665 145.879C161.212 145.879 161.68 145.747 162.067 145.481C162.455 145.21 162.751 144.825 162.956 144.327C163.166 143.824 163.271 143.226 163.271 142.534V142.518C163.271 141.82 163.166 141.223 162.956 140.725C162.751 140.227 162.455 139.845 162.067 139.579C161.68 139.308 161.212 139.172 160.665 139.172C160.122 139.172 159.655 139.308 159.262 139.579C158.869 139.85 158.567 140.235 158.357 140.733C158.147 141.231 158.041 141.826 158.041 142.518V142.534C158.041 143.22 158.147 143.815 158.357 144.319C158.567 144.817 158.869 145.201 159.262 145.473C159.655 145.744 160.122 145.879 160.665 145.879ZM166.734 147V138.052H170.527C171.374 138.052 172.033 138.265 172.503 138.691C172.973 139.111 173.209 139.673 173.209 140.376V140.393C173.209 140.835 173.07 141.242 172.794 141.613C172.517 141.978 172.168 142.205 171.748 142.293V142.426C172.13 142.476 172.459 142.595 172.736 142.783C173.012 142.966 173.225 143.198 173.375 143.48C173.53 143.757 173.607 144.07 173.607 144.418V144.435C173.607 144.95 173.485 145.401 173.242 145.788C172.998 146.17 172.647 146.469 172.188 146.685C171.734 146.895 171.186 147 170.544 147H166.734ZM168.178 145.805H170.486C171.034 145.805 171.446 145.686 171.723 145.448C172 145.204 172.138 144.858 172.138 144.41V144.394C172.138 143.918 171.977 143.572 171.656 143.356C171.335 143.14 170.854 143.032 170.212 143.032H168.178V145.805ZM168.178 141.837H170.088C170.669 141.837 171.095 141.726 171.366 141.505C171.637 141.284 171.773 140.963 171.773 140.542V140.525C171.773 140.144 171.656 139.836 171.424 139.604C171.192 139.366 170.824 139.247 170.32 139.247H168.178V141.837ZM179.22 147.158C178.373 147.158 177.64 146.972 177.02 146.602C176.406 146.225 175.93 145.691 175.593 145C175.261 144.308 175.095 143.486 175.095 142.534V142.518C175.095 141.56 175.261 140.736 175.593 140.044C175.93 139.352 176.406 138.821 177.02 138.45C177.64 138.079 178.373 137.894 179.22 137.894C180.072 137.894 180.806 138.079 181.42 138.45C182.034 138.821 182.507 139.352 182.839 140.044C183.177 140.736 183.346 141.56 183.346 142.518V142.534C183.346 143.486 183.177 144.308 182.839 145C182.507 145.691 182.034 146.225 181.42 146.602C180.806 146.972 180.072 147.158 179.22 147.158ZM179.22 145.879C179.785 145.879 180.263 145.747 180.656 145.481C181.049 145.215 181.348 144.833 181.553 144.335C181.763 143.837 181.868 143.237 181.868 142.534V142.518C181.868 141.809 181.763 141.206 181.553 140.708C181.348 140.21 181.049 139.831 180.656 139.571C180.263 139.305 179.785 139.172 179.22 139.172C178.656 139.172 178.177 139.305 177.784 139.571C177.391 139.831 177.09 140.21 176.879 140.708C176.674 141.206 176.572 141.809 176.572 142.518V142.534C176.572 143.237 176.674 143.837 176.879 144.335C177.09 144.833 177.391 145.215 177.784 145.481C178.177 145.747 178.656 145.879 179.22 145.879ZM186.759 147H185.314V138.052H187.066L190.253 144.991H190.386L193.59 138.052H195.267V147H193.823V140.633H193.665L190.843 146.751H189.73L186.917 140.633H186.759V147ZM205.082 147.166C204.446 147.166 203.87 147.066 203.355 146.867C202.846 146.668 202.431 146.391 202.11 146.037C201.789 145.677 201.598 145.257 201.537 144.775L201.529 144.709H202.998L203.015 144.775C203.109 145.141 203.342 145.431 203.712 145.647C204.083 145.863 204.54 145.971 205.082 145.971C205.74 145.971 206.255 145.827 206.626 145.539C206.997 145.251 207.182 144.886 207.182 144.443V144.427C207.182 143.94 207.002 143.583 206.642 143.356C206.288 143.124 205.768 143.007 205.082 143.007H203.687V141.812H205.082C205.657 141.812 206.097 141.699 206.402 141.472C206.712 141.239 206.867 140.891 206.867 140.426V140.409C206.867 140.027 206.72 139.712 206.427 139.463C206.139 139.208 205.707 139.081 205.132 139.081C204.623 139.081 204.191 139.186 203.837 139.396C203.483 139.607 203.27 139.892 203.198 140.251L203.189 140.293H201.778L201.786 140.235C201.858 139.753 202.041 139.338 202.334 138.99C202.633 138.636 203.021 138.364 203.496 138.176C203.978 137.983 204.523 137.886 205.132 137.886C205.801 137.886 206.369 137.988 206.833 138.193C207.304 138.398 207.661 138.683 207.904 139.048C208.153 139.408 208.278 139.825 208.278 140.301V140.318C208.278 140.772 208.142 141.181 207.871 141.546C207.6 141.912 207.243 142.147 206.8 142.252V142.385C207.193 142.468 207.522 142.601 207.788 142.783C208.059 142.966 208.261 143.19 208.394 143.456C208.532 143.721 208.601 144.02 208.601 144.352V144.369C208.601 144.922 208.452 145.409 208.153 145.83C207.86 146.25 207.448 146.579 206.916 146.817C206.391 147.05 205.779 147.166 205.082 147.166ZM213.036 147.158C212.471 147.158 211.962 147.05 211.508 146.834C211.06 146.618 210.703 146.311 210.438 145.913C210.177 145.514 210.047 145.044 210.047 144.501V144.485C210.047 143.954 210.175 143.5 210.429 143.124C210.684 142.742 211.055 142.443 211.542 142.227C212.029 142.011 212.618 141.884 213.31 141.845L216.597 141.646V142.8L213.484 142.999C212.803 143.038 212.305 143.179 211.99 143.422C211.68 143.666 211.525 144.009 211.525 144.452V144.468C211.525 144.922 211.697 145.276 212.04 145.531C212.383 145.78 212.814 145.904 213.335 145.904C213.827 145.904 214.264 145.807 214.646 145.614C215.028 145.415 215.327 145.146 215.543 144.809C215.764 144.471 215.875 144.089 215.875 143.663V140.874C215.875 140.321 215.706 139.9 215.368 139.612C215.036 139.319 214.535 139.172 213.866 139.172C213.329 139.172 212.889 139.269 212.546 139.463C212.203 139.651 211.973 139.919 211.857 140.268L211.849 140.293H210.404L210.413 140.243C210.49 139.773 210.684 139.363 210.994 139.015C211.309 138.66 211.716 138.387 212.214 138.193C212.712 137.994 213.279 137.894 213.916 137.894C214.646 137.894 215.263 138.013 215.767 138.251C216.276 138.489 216.66 138.832 216.92 139.28C217.186 139.723 217.319 140.254 217.319 140.874V147H215.875V145.68H215.742C215.554 145.996 215.324 146.264 215.053 146.485C214.787 146.707 214.486 146.875 214.148 146.992C213.81 147.102 213.44 147.158 213.036 147.158ZM219.686 147V138.052H226.925V147H225.48V139.247H221.131V147H219.686ZM230.105 150.138C230.011 150.138 229.906 150.132 229.79 150.121C229.674 150.116 229.566 150.104 229.466 150.088V148.901C229.555 148.917 229.652 148.929 229.757 148.934C229.862 148.94 229.964 148.942 230.064 148.942C230.473 148.942 230.808 148.837 231.068 148.627C231.334 148.417 231.547 148.054 231.707 147.54L231.873 147.008L228.561 138.052H230.105L232.861 146.319L232.288 145.415H232.969L232.396 146.319L235.144 138.052H236.663L233.168 147.548C232.925 148.217 232.668 148.74 232.396 149.117C232.125 149.493 231.807 149.756 231.442 149.905C231.082 150.06 230.637 150.138 230.105 150.138ZM241.637 147.158C240.801 147.158 240.076 146.967 239.462 146.585C238.848 146.203 238.372 145.664 238.034 144.966C237.697 144.269 237.528 143.447 237.528 142.501V142.484C237.528 141.555 237.694 140.747 238.026 140.061C238.364 139.374 238.839 138.843 239.454 138.467C240.068 138.085 240.793 137.894 241.629 137.894C242.353 137.894 242.979 138.021 243.504 138.276C244.03 138.53 244.451 138.874 244.766 139.305C245.082 139.731 245.284 140.21 245.372 140.741L245.38 140.791H243.944L243.936 140.766C243.825 140.323 243.574 139.947 243.181 139.637C242.788 139.327 242.27 139.172 241.629 139.172C241.092 139.172 240.627 139.308 240.234 139.579C239.841 139.85 239.537 140.235 239.321 140.733C239.111 141.225 239.005 141.809 239.005 142.484V142.501C239.005 143.187 239.113 143.785 239.329 144.294C239.545 144.798 239.849 145.188 240.242 145.464C240.635 145.741 241.097 145.879 241.629 145.879C242.232 145.879 242.724 145.749 243.106 145.489C243.488 145.229 243.762 144.85 243.928 144.352L243.944 144.302L245.372 144.294L245.356 144.385C245.234 144.922 245.018 145.401 244.708 145.821C244.398 146.236 243.989 146.563 243.48 146.801C242.97 147.039 242.356 147.158 241.637 147.158ZM249.117 142.924H248.661V147H247.217V138.052H248.661V141.795H249.117L252.579 138.052H254.314L250.172 142.393V142.136L254.471 147H252.62L249.117 142.924ZM259.279 147.158C258.427 147.158 257.694 146.97 257.08 146.593C256.471 146.217 256 145.686 255.668 145C255.342 144.308 255.179 143.494 255.179 142.559V142.551C255.179 141.627 255.342 140.816 255.668 140.119C256 139.421 256.468 138.876 257.071 138.483C257.674 138.09 258.38 137.894 259.188 137.894C260.001 137.894 260.699 138.082 261.28 138.458C261.866 138.835 262.315 139.361 262.624 140.036C262.94 140.705 263.098 141.486 263.098 142.376V142.941H255.926V141.787H262.359L261.645 142.841V142.269C261.645 141.566 261.54 140.987 261.33 140.534C261.119 140.08 260.829 139.742 260.458 139.521C260.087 139.294 259.661 139.181 259.18 139.181C258.698 139.181 258.267 139.3 257.885 139.538C257.508 139.77 257.21 140.116 256.988 140.575C256.767 141.035 256.656 141.599 256.656 142.269V142.841C256.656 143.478 256.764 144.023 256.98 144.477C257.196 144.925 257.503 145.271 257.901 145.514C258.3 145.752 258.77 145.871 259.312 145.871C259.716 145.871 260.068 145.816 260.367 145.705C260.665 145.594 260.912 145.453 261.105 145.282C261.299 145.11 261.435 144.936 261.512 144.759L261.545 144.684H262.99L262.973 144.75C262.896 145.055 262.757 145.351 262.558 145.639C262.364 145.921 262.113 146.178 261.803 146.411C261.493 146.638 261.125 146.82 260.699 146.958C260.278 147.091 259.805 147.158 259.279 147.158ZM69.2964 169V164.949H64.8638V169H63.4194V160.052H64.8638V163.754H69.2964V160.052H70.7407V169H69.2964ZM75.6149 169.158C75.0505 169.158 74.5414 169.05 74.0876 168.834C73.6393 168.618 73.2824 168.311 73.0168 167.913C72.7567 167.514 72.6266 167.044 72.6266 166.501V166.485C72.6266 165.954 72.7539 165.5 73.0085 165.124C73.263 164.742 73.6338 164.443 74.1208 164.227C74.6078 164.011 75.1971 163.884 75.8888 163.845L79.176 163.646V164.8L76.0632 164.999C75.3825 165.038 74.8845 165.179 74.569 165.422C74.2591 165.666 74.1042 166.009 74.1042 166.452V166.468C74.1042 166.922 74.2757 167.276 74.6188 167.531C74.9619 167.78 75.3936 167.904 75.9137 167.904C76.4063 167.904 76.8434 167.807 77.2253 167.614C77.6071 167.415 77.9059 167.146 78.1218 166.809C78.3431 166.471 78.4538 166.089 78.4538 165.663V162.874C78.4538 162.321 78.285 161.9 77.9474 161.612C77.6154 161.319 77.1146 161.172 76.445 161.172C75.9082 161.172 75.4683 161.269 75.1252 161.463C74.7821 161.651 74.5524 161.919 74.4362 162.268L74.4279 162.293H72.9836L72.9919 162.243C73.0693 161.773 73.263 161.363 73.5729 161.015C73.8884 160.66 74.2951 160.387 74.7931 160.193C75.2912 159.994 75.8584 159.894 76.4948 159.894C77.2253 159.894 77.8423 160.013 78.3459 160.251C78.855 160.489 79.2396 160.832 79.4997 161.28C79.7653 161.723 79.8981 162.254 79.8981 162.874V169H78.4538V167.68H78.321C78.1328 167.996 77.9032 168.264 77.632 168.485C77.3664 168.707 77.0648 168.875 76.7272 168.992C76.3897 169.102 76.0189 169.158 75.6149 169.158ZM83.0624 169H81.2777L85.1376 164.285L81.4105 160.052H83.1454L86.2748 163.82H86.806V160.052H88.2005V163.82H88.7318L91.8612 160.052H93.5712L89.869 164.252L93.7538 169H91.9442L88.7318 164.899H88.2005V169H86.806V164.899H86.2748L83.0624 169ZM96.6275 169H95.1831V160.052H96.9346L100.122 166.991H100.255L103.459 160.052H105.136V169H103.691V162.633H103.534L100.711 168.751H99.5992L96.7852 162.633H96.6275V169ZM107.553 169V160.052H108.997V166.726H109.761L108.781 167.257L113.554 160.052H114.999V169H113.554V162.326H112.791L113.77 161.795L108.997 169H107.553ZM124.739 167.796L121.834 164.343V164.277C121.994 164.083 122.155 163.892 122.315 163.704C122.481 163.51 122.644 163.319 122.805 163.131C122.965 162.938 123.126 162.744 123.286 162.55C123.447 162.357 123.607 162.166 123.768 161.978C123.928 161.784 124.089 161.593 124.249 161.405C124.415 161.211 124.578 161.017 124.739 160.824H126.432L123.519 164.244V164.376L126.432 167.796H124.739ZM128.416 167.796L125.511 164.343V164.277C125.671 164.083 125.832 163.892 125.992 163.704C126.158 163.51 126.322 163.319 126.482 163.131C126.642 162.938 126.803 162.744 126.963 162.55C127.124 162.357 127.284 162.166 127.445 161.978C127.611 161.784 127.774 161.593 127.935 161.405C128.095 161.211 128.256 161.017 128.416 160.824H130.109L127.196 164.244V164.376L130.109 167.796H128.416ZM133.531 164.725V163.397H136.918C137.775 163.397 138.44 163.176 138.91 162.733C139.38 162.285 139.615 161.668 139.615 160.882V160.865C139.615 160.074 139.38 159.457 138.91 159.014C138.44 158.571 137.775 158.35 136.918 158.35H133.531V157.022H137.3C138.052 157.022 138.716 157.182 139.292 157.503C139.867 157.824 140.318 158.273 140.645 158.848C140.977 159.424 141.143 160.09 141.143 160.849V160.865C141.143 161.623 140.977 162.293 140.645 162.874C140.318 163.455 139.867 163.909 139.292 164.235C138.716 164.562 138.052 164.725 137.3 164.725H133.531ZM132.784 169V157.022H134.278V169H132.784ZM145.519 169.158C144.955 169.158 144.445 169.05 143.992 168.834C143.543 168.618 143.186 168.311 142.921 167.913C142.661 167.514 142.531 167.044 142.531 166.501V166.485C142.531 165.954 142.658 165.5 142.913 165.124C143.167 164.742 143.538 164.443 144.025 164.227C144.512 164.011 145.101 163.884 145.793 163.845L149.08 163.646V164.8L145.967 164.999C145.287 165.038 144.789 165.179 144.473 165.422C144.163 165.666 144.008 166.009 144.008 166.452V166.468C144.008 166.922 144.18 167.276 144.523 167.531C144.866 167.78 145.298 167.904 145.818 167.904C146.31 167.904 146.747 167.807 147.129 167.614C147.511 167.415 147.81 167.146 148.026 166.809C148.247 166.471 148.358 166.089 148.358 165.663V162.874C148.358 162.321 148.189 161.9 147.852 161.612C147.519 161.319 147.019 161.172 146.349 161.172C145.812 161.172 145.372 161.269 145.029 161.463C144.686 161.651 144.456 161.919 144.34 162.268L144.332 162.293H142.888L142.896 162.243C142.973 161.773 143.167 161.363 143.477 161.015C143.792 160.66 144.199 160.387 144.697 160.193C145.195 159.994 145.762 159.894 146.399 159.894C147.129 159.894 147.746 160.013 148.25 160.251C148.759 160.489 149.144 160.832 149.404 161.28C149.669 161.723 149.802 162.254 149.802 162.874V169H148.358V167.68H148.225C148.037 167.996 147.807 168.264 147.536 168.485C147.27 168.707 146.969 168.875 146.631 168.992C146.294 169.102 145.923 169.158 145.519 169.158ZM155.216 169.166C154.58 169.166 154.004 169.066 153.489 168.867C152.98 168.668 152.565 168.391 152.244 168.037C151.923 167.677 151.732 167.257 151.672 166.775L151.663 166.709H153.132L153.149 166.775C153.243 167.141 153.476 167.431 153.846 167.647C154.217 167.863 154.674 167.971 155.216 167.971C155.874 167.971 156.389 167.827 156.76 167.539C157.131 167.251 157.316 166.886 157.316 166.443V166.427C157.316 165.94 157.136 165.583 156.776 165.356C156.422 165.124 155.902 165.007 155.216 165.007H153.821V163.812H155.216C155.791 163.812 156.231 163.699 156.536 163.472C156.846 163.239 157.001 162.891 157.001 162.426V162.409C157.001 162.027 156.854 161.712 156.561 161.463C156.273 161.208 155.841 161.081 155.266 161.081C154.757 161.081 154.325 161.186 153.971 161.396C153.617 161.607 153.404 161.892 153.332 162.251L153.323 162.293H151.912L151.921 162.235C151.992 161.753 152.175 161.338 152.468 160.99C152.767 160.636 153.155 160.364 153.63 160.176C154.112 159.983 154.657 159.886 155.266 159.886C155.935 159.886 156.503 159.988 156.967 160.193C157.438 160.398 157.795 160.683 158.038 161.048C158.287 161.408 158.412 161.825 158.412 162.301V162.318C158.412 162.772 158.276 163.181 158.005 163.546C157.734 163.912 157.377 164.147 156.934 164.252V164.385C157.327 164.468 157.656 164.601 157.922 164.783C158.193 164.966 158.395 165.19 158.528 165.456C158.666 165.721 158.735 166.02 158.735 166.352V166.369C158.735 166.922 158.586 167.409 158.287 167.83C157.994 168.25 157.582 168.579 157.05 168.817C156.525 169.05 155.913 169.166 155.216 169.166ZM160.713 171.988V160.052H162.157V161.479H162.29C162.472 161.147 162.702 160.865 162.979 160.633C163.255 160.395 163.571 160.212 163.925 160.085C164.279 159.958 164.664 159.894 165.079 159.894C165.837 159.894 166.496 160.088 167.054 160.475C167.619 160.857 168.056 161.394 168.366 162.085C168.676 162.777 168.831 163.588 168.831 164.518V164.534C168.831 165.469 168.676 166.283 168.366 166.975C168.056 167.666 167.619 168.203 167.054 168.585C166.496 168.967 165.837 169.158 165.079 169.158C164.669 169.158 164.282 169.094 163.917 168.967C163.557 168.834 163.236 168.651 162.954 168.419C162.677 168.187 162.456 167.91 162.29 167.589H162.157V171.988H160.713ZM164.747 167.879C165.295 167.879 165.762 167.747 166.15 167.481C166.537 167.21 166.833 166.825 167.038 166.327C167.248 165.824 167.353 165.226 167.353 164.534V164.518C167.353 163.82 167.248 163.223 167.038 162.725C166.833 162.227 166.537 161.845 166.15 161.579C165.762 161.308 165.295 161.172 164.747 161.172C164.205 161.172 163.737 161.308 163.344 161.579C162.951 161.85 162.65 162.235 162.439 162.733C162.229 163.231 162.124 163.826 162.124 164.518V164.534C162.124 165.22 162.229 165.815 162.439 166.319C162.65 166.817 162.951 167.201 163.344 167.473C163.737 167.744 164.205 167.879 164.747 167.879ZM174.477 169.158C173.625 169.158 172.892 168.97 172.277 168.593C171.669 168.217 171.198 167.686 170.866 167C170.54 166.308 170.376 165.494 170.376 164.559V164.551C170.376 163.627 170.54 162.816 170.866 162.119C171.198 161.421 171.666 160.876 172.269 160.483C172.872 160.09 173.578 159.894 174.386 159.894C175.199 159.894 175.896 160.082 176.478 160.458C177.064 160.835 177.512 161.361 177.822 162.036C178.138 162.705 178.295 163.486 178.295 164.376V164.941H171.124V163.787H177.557L176.843 164.841V164.269C176.843 163.566 176.738 162.987 176.527 162.534C176.317 162.08 176.027 161.742 175.656 161.521C175.285 161.294 174.859 161.181 174.377 161.181C173.896 161.181 173.464 161.3 173.082 161.538C172.706 161.77 172.407 162.116 172.186 162.575C171.965 163.035 171.854 163.599 171.854 164.269V164.841C171.854 165.478 171.962 166.023 172.178 166.477C172.394 166.925 172.701 167.271 173.099 167.514C173.498 167.752 173.968 167.871 174.51 167.871C174.914 167.871 175.266 167.816 175.564 167.705C175.863 167.594 176.11 167.453 176.303 167.282C176.497 167.11 176.632 166.936 176.71 166.759L176.743 166.684H178.187L178.171 166.75C178.093 167.055 177.955 167.351 177.756 167.639C177.562 167.921 177.31 168.178 177 168.411C176.691 168.638 176.323 168.82 175.896 168.958C175.476 169.091 175.003 169.158 174.477 169.158ZM180.264 169V160.052H181.709V167.805H185.07V160.052H186.515V167.805H189.877V160.052H191.321V169H180.264ZM193.73 169V160.052H195.174V166.726H195.938L194.958 167.257L199.731 160.052H201.176V169H199.731V162.326H198.968L199.947 161.795L195.174 169H193.73ZM210.076 160.052V161.247H207.179V169H205.734V161.247H202.837V160.052H210.076ZM211.729 169V160.052H213.174V162.924H214.925C215.949 162.924 216.765 163.198 217.374 163.746C217.982 164.293 218.287 165.029 218.287 165.954V165.97C218.287 166.894 217.982 167.63 217.374 168.178C216.765 168.726 215.949 169 214.925 169H211.729ZM214.925 164.119H213.174V167.805H214.925C215.517 167.805 215.985 167.639 216.328 167.307C216.671 166.969 216.842 166.524 216.842 165.97V165.954C216.842 165.395 216.668 164.949 216.32 164.617C215.976 164.285 215.512 164.119 214.925 164.119ZM224.433 169V160.052H228.226C229.073 160.052 229.731 160.265 230.202 160.691C230.672 161.111 230.907 161.673 230.907 162.376V162.393C230.907 162.835 230.769 163.242 230.492 163.613C230.216 163.978 229.867 164.205 229.446 164.293V164.426C229.828 164.476 230.157 164.595 230.434 164.783C230.711 164.966 230.924 165.198 231.073 165.48C231.228 165.757 231.306 166.07 231.306 166.418V166.435C231.306 166.95 231.184 167.401 230.94 167.788C230.697 168.17 230.346 168.469 229.886 168.685C229.433 168.895 228.885 169 228.243 169H224.433ZM225.877 167.805H228.185C228.732 167.805 229.145 167.686 229.421 167.448C229.698 167.204 229.836 166.858 229.836 166.41V166.394C229.836 165.918 229.676 165.572 229.355 165.356C229.034 165.14 228.553 165.032 227.911 165.032H225.877V167.805ZM225.877 163.837H227.786C228.367 163.837 228.793 163.726 229.065 163.505C229.336 163.284 229.471 162.963 229.471 162.542V162.525C229.471 162.144 229.355 161.836 229.123 161.604C228.89 161.366 228.522 161.247 228.019 161.247H225.877V163.837ZM236.902 169.158C236.066 169.158 235.342 168.967 234.727 168.585C234.113 168.203 233.637 167.664 233.3 166.966C232.962 166.269 232.793 165.447 232.793 164.501V164.484C232.793 163.555 232.959 162.747 233.291 162.061C233.629 161.374 234.105 160.843 234.719 160.467C235.333 160.085 236.058 159.894 236.894 159.894C237.619 159.894 238.244 160.021 238.77 160.276C239.295 160.53 239.716 160.874 240.031 161.305C240.347 161.731 240.549 162.21 240.637 162.741L240.646 162.791H239.21L239.201 162.766C239.091 162.323 238.839 161.947 238.446 161.637C238.053 161.327 237.536 161.172 236.894 161.172C236.357 161.172 235.892 161.308 235.499 161.579C235.106 161.85 234.802 162.235 234.586 162.733C234.376 163.225 234.271 163.809 234.271 164.484V164.501C234.271 165.187 234.379 165.785 234.594 166.294C234.81 166.798 235.115 167.188 235.508 167.464C235.9 167.741 236.363 167.879 236.894 167.879C237.497 167.879 237.989 167.749 238.371 167.489C238.753 167.229 239.027 166.85 239.193 166.352L239.21 166.302L240.637 166.294L240.621 166.385C240.499 166.922 240.283 167.401 239.973 167.821C239.663 168.236 239.254 168.563 238.745 168.801C238.236 169.039 237.621 169.158 236.902 169.158ZM246.143 169.158C245.29 169.158 244.557 168.97 243.943 168.593C243.334 168.217 242.864 167.686 242.532 167C242.205 166.308 242.042 165.494 242.042 164.559V164.551C242.042 163.627 242.205 162.816 242.532 162.119C242.864 161.421 243.331 160.876 243.934 160.483C244.538 160.09 245.243 159.894 246.051 159.894C246.865 159.894 247.562 160.082 248.143 160.458C248.73 160.835 249.178 161.361 249.488 162.036C249.803 162.705 249.961 163.486 249.961 164.376V164.941H242.789V163.787H249.222L248.508 164.841V164.269C248.508 163.566 248.403 162.987 248.193 162.534C247.983 162.08 247.692 161.742 247.321 161.521C246.95 161.294 246.524 161.181 246.043 161.181C245.561 161.181 245.13 161.3 244.748 161.538C244.372 161.77 244.073 162.116 243.851 162.575C243.63 163.035 243.519 163.599 243.519 164.269V164.841C243.519 165.478 243.627 166.023 243.843 166.477C244.059 166.925 244.366 167.271 244.765 167.514C245.163 167.752 245.633 167.871 246.176 167.871C246.58 167.871 246.931 167.816 247.23 167.705C247.529 167.594 247.775 167.453 247.969 167.282C248.162 167.11 248.298 166.936 248.375 166.759L248.409 166.684H249.853L249.836 166.75C249.759 167.055 249.621 167.351 249.421 167.639C249.228 167.921 248.976 168.178 248.666 168.411C248.356 168.638 247.988 168.82 247.562 168.958C247.141 169.091 246.668 169.158 246.143 169.158ZM257.657 161.247H253.374V169H251.93V160.052H257.657V161.247ZM259.112 171.366H257.767V167.805H258.514C258.84 167.589 259.089 167.226 259.261 166.717C259.433 166.203 259.538 165.644 259.576 165.041L259.925 160.052H266.026V167.805H267.454V171.366H266.109V169H259.112V171.366ZM264.582 167.805V161.247H261.203L260.921 165.074C260.882 165.616 260.802 166.117 260.68 166.576C260.559 167.03 260.393 167.395 260.182 167.672V167.805H264.582ZM271.365 169.158C270.801 169.158 270.292 169.05 269.838 168.834C269.39 168.618 269.033 168.311 268.767 167.913C268.507 167.514 268.377 167.044 268.377 166.501V166.485C268.377 165.954 268.504 165.5 268.759 165.124C269.013 164.742 269.384 164.443 269.871 164.227C270.358 164.011 270.947 163.884 271.639 163.845L274.926 163.646V164.8L271.813 164.999C271.133 165.038 270.635 165.179 270.319 165.422C270.009 165.666 269.854 166.009 269.854 166.452V166.468C269.854 166.922 270.026 167.276 270.369 167.531C270.712 167.78 271.144 167.904 271.664 167.904C272.157 167.904 272.594 167.807 272.976 167.614C273.357 167.415 273.656 167.146 273.872 166.809C274.093 166.471 274.204 166.089 274.204 165.663V162.874C274.204 162.321 274.035 161.9 273.698 161.612C273.366 161.319 272.865 161.172 272.195 161.172C271.658 161.172 271.219 161.269 270.875 161.463C270.532 161.651 270.303 161.919 270.186 162.268L270.178 162.293H268.734L268.742 162.243C268.82 161.773 269.013 161.363 269.323 161.015C269.639 160.66 270.045 160.387 270.543 160.193C271.041 159.994 271.609 159.894 272.245 159.894C272.976 159.894 273.593 160.013 274.096 160.251C274.605 160.489 274.99 160.832 275.25 161.28C275.516 161.723 275.648 162.254 275.648 162.874V169H274.204V167.68H274.071C273.883 167.996 273.653 168.264 273.382 168.485C273.117 168.707 272.815 168.875 272.477 168.992C272.14 169.102 271.769 169.158 271.365 169.158ZM283.453 160.824L286.358 164.277V164.343C286.198 164.537 286.037 164.731 285.877 164.924C285.716 165.112 285.553 165.303 285.387 165.497C285.226 165.685 285.066 165.876 284.905 166.07C284.745 166.264 284.584 166.457 284.424 166.651C284.263 166.839 284.1 167.03 283.934 167.224C283.774 167.412 283.613 167.603 283.453 167.796H281.759L284.673 164.376V164.244L281.759 160.824H283.453ZM279.776 160.824L282.681 164.277V164.343C282.52 164.537 282.36 164.731 282.199 164.924C282.039 165.112 281.876 165.303 281.71 165.497C281.549 165.685 281.389 165.876 281.228 166.07C281.068 166.264 280.907 166.457 280.747 166.651C280.586 166.839 280.423 167.03 280.257 167.224C280.096 167.412 279.936 167.603 279.776 167.796H278.082L280.996 164.376V164.244L278.082 160.824H279.776ZM289.946 169.083C289.652 169.083 289.398 168.978 289.182 168.768C288.972 168.552 288.867 168.297 288.867 168.004C288.867 167.705 288.972 167.451 289.182 167.24C289.398 167.03 289.652 166.925 289.946 166.925C290.244 166.925 290.499 167.03 290.709 167.24C290.92 167.451 291.025 167.705 291.025 168.004C291.025 168.297 290.92 168.552 290.709 168.768C290.499 168.978 290.244 169.083 289.946 169.083Z" fill="black"/>
<defs>
<filter id="filter0_d_1925_2252" x="0" y="0" width="435" height="260" filterUnits="userSpaceOnUse" color-interpolation-filters="sRGB">
<feFlood flood-opacity="0" result="BackgroundImageFix"/>
<feColorMatrix in="SourceAlpha" type="matrix" values="0 0 0 0 0 0 0 0 0 0 0 0 0 0 0 0 0 0 127 0" result="hardAlpha"/>
<feOffset dy="8"/>
<feGaussianBlur stdDeviation="20"/>
<feComposite in2="hardAlpha" operator="out"/>
<feColorMatrix type="matrix" values="0 0 0 0 0 0 0 0 0 0 0 0 0 0 0 0 0 0 0.12 0"/>
<feBlend mode="normal" in2="BackgroundImageFix" result="effect1_dropShadow_1925_2252"/>
<feBlend mode="normal" in="SourceGraphic" in2="effect1_dropShadow_1925_2252" result="shape"/>
</filter>
</defs>
</svg>
