<svg width="1013" height="279" viewBox="0 0 1013 279" fill="none" xmlns="http://www.w3.org/2000/svg">
<path d="M90 121C90 93.6619 112.162 71.5 139.5 71.5V71.5C166.838 71.5 189 93.6619 189 121V121C189 148.338 166.838 170.5 139.5 170.5V170.5C112.162 170.5 90 148.338 90 121V121Z" fill="white" style="mix-blend-mode:multiply"/>
<g filter="url(#filter0_d_1928_2276)">
<path d="M90 121.5C90 94.1619 112.162 72 139.5 72V72C166.838 72 189 94.1619 189 121.5V121.5C189 148.838 166.838 171 139.5 171V171C112.162 171 90 148.838 90 121.5V121.5Z" fill="white" fill-opacity="0.65" shape-rendering="crispEdges"/>
<path d="M90 121.5C90 94.1619 112.162 72 139.5 72V72C166.838 72 189 94.1619 189 121.5V121.5C189 148.838 166.838 171 139.5 171V171C112.162 171 90 148.838 90 121.5V121.5Z" fill="#DDDDDD" style="mix-blend-mode:color-burn" shape-rendering="crispEdges"/>
<path d="M90 121.5C90 94.1619 112.162 72 139.5 72V72C166.838 72 189 94.1619 189 121.5V121.5C189 148.838 166.838 171 139.5 171V171C112.162 171 90 148.838 90 121.5V121.5Z" fill="#F7F7F7" style="mix-blend-mode:darken" shape-rendering="crispEdges"/>
</g>
<path d="M90 121.5C90 94.1619 112.162 72 139.5 72V72C166.838 72 189 94.1619 189 121.5V121.5C189 148.838 166.838 171 139.5 171V171C112.162 171 90 148.838 90 121.5V121.5Z" fill="black" fill-opacity="0.01"/>
<g style="mix-blend-mode:plus-darker">
<path d="M124.409 121.515C124.409 121.142 124.471 120.806 124.596 120.507C124.733 120.208 124.945 119.922 125.231 119.648L144.151 101.363C144.611 100.902 145.178 100.672 145.85 100.672C146.298 100.672 146.703 100.784 147.064 101.008C147.438 101.22 147.73 101.506 147.942 101.867C148.166 102.229 148.278 102.633 148.278 103.081C148.278 103.741 148.035 104.32 147.55 104.818L130.218 121.515L147.55 138.194C148.035 138.692 148.278 139.271 148.278 139.931C148.278 140.391 148.166 140.802 147.942 141.163C147.73 141.537 147.438 141.829 147.064 142.041C146.703 142.253 146.298 142.359 145.85 142.359C145.178 142.359 144.611 142.128 144.151 141.668L125.231 123.383C124.945 123.109 124.733 122.823 124.596 122.524C124.471 122.213 124.409 121.876 124.409 121.515Z" fill="#1A1A1A" style="mix-blend-mode:plus-darker"/>
</g>
<path d="M823.5 121C823.5 93.6619 845.662 71.5 873 71.5V71.5C900.338 71.5 922.5 93.6619 922.5 121V121C922.5 148.338 900.338 170.5 873 170.5V170.5C845.662 170.5 823.5 148.338 823.5 121V121Z" fill="white" style="mix-blend-mode:multiply"/>
<g filter="url(#filter2_d_1928_2276)">
<path d="M823.5 121.5C823.5 94.1619 845.662 72 873 72V72C900.338 72 922.5 94.1619 922.5 121.5V121.5C922.5 148.838 900.338 171 873 171V171C845.662 171 823.5 148.838 823.5 121.5V121.5Z" fill="white" fill-opacity="0.65" shape-rendering="crispEdges"/>
<path d="M823.5 121.5C823.5 94.1619 845.662 72 873 72V72C900.338 72 922.5 94.1619 922.5 121.5V121.5C922.5 148.838 900.338 171 873 171V171C845.662 171 823.5 148.838 823.5 121.5V121.5Z" fill="#DDDDDD" style="mix-blend-mode:color-burn" shape-rendering="crispEdges"/>
<path d="M823.5 121.5C823.5 94.1619 845.662 72 873 72V72C900.338 72 922.5 94.1619 922.5 121.5V121.5C922.5 148.838 900.338 171 873 171V171C845.662 171 823.5 148.838 823.5 121.5V121.5Z" fill="#F7F7F7" style="mix-blend-mode:darken" shape-rendering="crispEdges"/>
</g>
<path d="M823.5 121.5C823.5 94.1619 845.662 72 873 72V72C900.338 72 922.5 94.1619 922.5 121.5V121.5C922.5 148.838 900.338 171 873 171V171C845.662 171 823.5 148.838 823.5 121.5V121.5Z" fill="black" fill-opacity="0.01"/>
<g style="mix-blend-mode:plus-darker">
<path d="M850.737 111.528V106.335C850.737 103.858 851.379 101.984 852.661 100.714C853.956 99.4437 855.855 98.8087 858.357 98.8087H863.419V102.918H858.6C857.38 102.918 856.452 103.235 855.817 103.87C855.182 104.493 854.865 105.433 854.865 106.69V111.528H850.737ZM866.65 102.918V98.8087H879.331V102.918H866.65ZM891.135 111.528V106.69C891.135 105.433 890.805 104.493 890.145 103.87C889.498 103.235 888.576 102.918 887.381 102.918H882.562V98.8087H887.624C890.127 98.8087 892.019 99.45 893.302 100.732C894.597 102.002 895.244 103.87 895.244 106.335V111.528H891.135ZM891.135 127.328V114.777H895.244V127.328H891.135ZM882.562 143.297V139.188H887.381C888.576 139.188 889.498 138.87 890.145 138.235C890.805 137.6 891.135 136.66 891.135 135.415V130.559H895.244V135.751C895.244 138.229 894.597 140.103 893.302 141.373C892.019 142.656 890.127 143.297 887.624 143.297H882.562ZM866.65 143.297V139.188H879.331V143.297H866.65ZM858.357 143.297C855.855 143.297 853.956 142.662 852.661 141.392C851.379 140.122 850.737 138.242 850.737 135.751V130.559H854.865V135.415C854.865 136.66 855.182 137.6 855.817 138.235C856.452 138.87 857.38 139.188 858.6 139.188H863.419V143.297H858.357ZM850.737 127.328V114.777H854.865V127.328H850.737Z" fill="#1A1A1A" style="mix-blend-mode:plus-darker"/>
</g>
<defs>
<filter id="filter0_d_1928_2276" x="0" y="0" width="279" height="279" filterUnits="userSpaceOnUse" color-interpolation-filters="sRGB">
<feFlood flood-opacity="0" result="BackgroundImageFix"/>
<feColorMatrix in="SourceAlpha" type="matrix" values="0 0 0 0 0 0 0 0 0 0 0 0 0 0 0 0 0 0 127 0" result="hardAlpha"/>
<feOffset dy="18"/>
<feGaussianBlur stdDeviation="45"/>
<feComposite in2="hardAlpha" operator="out"/>
<feColorMatrix type="matrix" values="0 0 0 0 0 0 0 0 0 0 0 0 0 0 0 0 0 0 0.12 0"/>
<feBlend mode="normal" in2="BackgroundImageFix" result="effect1_dropShadow_1928_2276"/>
<feBlend mode="normal" in="SourceGraphic" in2="effect1_dropShadow_1928_2276" result="shape"/>
</filter>
<filter id="filter2_d_1928_2276" x="733.5" y="0" width="279" height="279" filterUnits="userSpaceOnUse" color-interpolation-filters="sRGB">
<feFlood flood-opacity="0" result="BackgroundImageFix"/>
<feColorMatrix in="SourceAlpha" type="matrix" values="0 0 0 0 0 0 0 0 0 0 0 0 0 0 0 0 0 0 127 0" result="hardAlpha"/>
<feOffset dy="18"/>
<feGaussianBlur stdDeviation="45"/>
<feComposite in2="hardAlpha" operator="out"/>
<feColorMatrix type="matrix" values="0 0 0 0 0 0 0 0 0 0 0 0 0 0 0 0 0 0 0.12 0"/>
<feBlend mode="normal" in2="BackgroundImageFix" result="effect1_dropShadow_1928_2276"/>
<feBlend mode="normal" in="SourceGraphic" in2="effect1_dropShadow_1928_2276" result="shape"/>
</filter>
</defs>
</svg>
