<svg width="450" height="124" viewBox="0 0 450 124" fill="none" xmlns="http://www.w3.org/2000/svg">
<path d="M40 54C40 41.8497 49.8497 32 62 32V32C74.1503 32 84 41.8497 84 54V54C84 66.1503 74.1503 76 62 76V76C49.8497 76 40 66.1503 40 54V54Z" fill="white" style="mix-blend-mode:multiply"/>
<g filter="url(#filter0_d_1922_2156)">
<path d="M40 54C40 41.8497 49.8497 32 62 32V32C74.1503 32 84 41.8497 84 54V54C84 66.1503 74.1503 76 62 76V76C49.8497 76 40 66.1503 40 54V54Z" fill="white" fill-opacity="0.65" shape-rendering="crispEdges"/>
<path d="M40 54C40 41.8497 49.8497 32 62 32V32C74.1503 32 84 41.8497 84 54V54C84 66.1503 74.1503 76 62 76V76C49.8497 76 40 66.1503 40 54V54Z" fill="#DDDDDD" style="mix-blend-mode:color-burn" shape-rendering="crispEdges"/>
<path d="M40 54C40 41.8497 49.8497 32 62 32V32C74.1503 32 84 41.8497 84 54V54C84 66.1503 74.1503 76 62 76V76C49.8497 76 40 66.1503 40 54V54Z" fill="#F7F7F7" style="mix-blend-mode:darken" shape-rendering="crispEdges"/>
</g>
<path d="M40 54C40 41.8497 49.8497 32 62 32V32C74.1503 32 84 41.8497 84 54V54C84 66.1503 74.1503 76 62 76V76C49.8497 76 40 66.1503 40 54V54Z" fill="black" fill-opacity="0.01"/>
<g style="mix-blend-mode:plus-darker">
<path d="M55.293 54.0068C55.293 53.8408 55.3206 53.6914 55.376 53.5586C55.4368 53.4258 55.5309 53.2985 55.6582 53.1768L64.0669 45.0503C64.2716 44.8455 64.5234 44.7432 64.8223 44.7432C65.0215 44.7432 65.2013 44.793 65.3618 44.8926C65.5278 44.9867 65.6579 45.1139 65.752 45.2744C65.8516 45.4349 65.9014 45.6147 65.9014 45.814C65.9014 46.1073 65.7935 46.3646 65.5776 46.5859L57.8745 54.0068L65.5776 61.4194C65.7935 61.6408 65.9014 61.8981 65.9014 62.1914C65.9014 62.3962 65.8516 62.5788 65.752 62.7393C65.6579 62.9053 65.5278 63.0353 65.3618 63.1294C65.2013 63.2235 65.0215 63.2705 64.8223 63.2705C64.5234 63.2705 64.2716 63.1681 64.0669 62.9634L55.6582 54.8369C55.5309 54.7152 55.4368 54.5879 55.376 54.4551C55.3206 54.3167 55.293 54.1673 55.293 54.0068Z" fill="#1A1A1A" style="mix-blend-mode:plus-darker"/>
</g>
<path d="M366 54C366 41.8497 375.85 32 388 32V32C400.15 32 410 41.8497 410 54V54C410 66.1503 400.15 76 388 76V76C375.85 76 366 66.1503 366 54V54Z" fill="white" style="mix-blend-mode:multiply"/>
<g filter="url(#filter2_d_1922_2156)">
<path d="M366 54C366 41.8497 375.85 32 388 32V32C400.15 32 410 41.8497 410 54V54C410 66.1503 400.15 76 388 76V76C375.85 76 366 66.1503 366 54V54Z" fill="white" fill-opacity="0.65" shape-rendering="crispEdges"/>
<path d="M366 54C366 41.8497 375.85 32 388 32V32C400.15 32 410 41.8497 410 54V54C410 66.1503 400.15 76 388 76V76C375.85 76 366 66.1503 366 54V54Z" fill="#DDDDDD" style="mix-blend-mode:color-burn" shape-rendering="crispEdges"/>
<path d="M366 54C366 41.8497 375.85 32 388 32V32C400.15 32 410 41.8497 410 54V54C410 66.1503 400.15 76 388 76V76C375.85 76 366 66.1503 366 54V54Z" fill="#F7F7F7" style="mix-blend-mode:darken" shape-rendering="crispEdges"/>
</g>
<path d="M366 54C366 41.8497 375.85 32 388 32V32C400.15 32 410 41.8497 410 54V54C410 66.1503 400.15 76 388 76V76C375.85 76 366 66.1503 366 54V54Z" fill="black" fill-opacity="0.01"/>
<g style="mix-blend-mode:plus-darker">
<path d="M378.105 49.79V47.4824C378.105 46.3812 378.39 45.5483 378.96 44.9839C379.536 44.4194 380.38 44.1372 381.492 44.1372H383.742V45.9634H381.6C381.058 45.9634 380.646 46.1045 380.363 46.3867C380.081 46.6634 379.94 47.0812 379.94 47.6401V49.79H378.105ZM385.178 45.9634V44.1372H390.814V45.9634H385.178ZM396.06 49.79V47.6401C396.06 47.0812 395.913 46.6634 395.62 46.3867C395.332 46.1045 394.923 45.9634 394.392 45.9634H392.25V44.1372H394.5C395.612 44.1372 396.453 44.4222 397.023 44.9922C397.598 45.5566 397.886 46.3867 397.886 47.4824V49.79H396.06ZM396.06 56.8125V51.2344H397.886V56.8125H396.06ZM392.25 63.9097V62.0835H394.392C394.923 62.0835 395.332 61.9424 395.62 61.6602C395.913 61.3779 396.06 60.9601 396.06 60.4067V58.2485H397.886V60.5562C397.886 61.6574 397.598 62.4902 397.023 63.0547C396.453 63.6247 395.612 63.9097 394.5 63.9097H392.25ZM385.178 63.9097V62.0835H390.814V63.9097H385.178ZM381.492 63.9097C380.38 63.9097 379.536 63.6274 378.96 63.063C378.39 62.4985 378.105 61.6629 378.105 60.5562V58.2485H379.94V60.4067C379.94 60.9601 380.081 61.3779 380.363 61.6602C380.646 61.9424 381.058 62.0835 381.6 62.0835H383.742V63.9097H381.492ZM378.105 56.8125V51.2344H379.94V56.8125H378.105Z" fill="#1A1A1A" style="mix-blend-mode:plus-darker"/>
</g>
<defs>
<filter id="filter0_d_1922_2156" x="0" y="0" width="124" height="124" filterUnits="userSpaceOnUse" color-interpolation-filters="sRGB">
<feFlood flood-opacity="0" result="BackgroundImageFix"/>
<feColorMatrix in="SourceAlpha" type="matrix" values="0 0 0 0 0 0 0 0 0 0 0 0 0 0 0 0 0 0 127 0" result="hardAlpha"/>
<feOffset dy="8"/>
<feGaussianBlur stdDeviation="20"/>
<feComposite in2="hardAlpha" operator="out"/>
<feColorMatrix type="matrix" values="0 0 0 0 0 0 0 0 0 0 0 0 0 0 0 0 0 0 0.12 0"/>
<feBlend mode="normal" in2="BackgroundImageFix" result="effect1_dropShadow_1922_2156"/>
<feBlend mode="normal" in="SourceGraphic" in2="effect1_dropShadow_1922_2156" result="shape"/>
</filter>
<filter id="filter2_d_1922_2156" x="326" y="0" width="124" height="124" filterUnits="userSpaceOnUse" color-interpolation-filters="sRGB">
<feFlood flood-opacity="0" result="BackgroundImageFix"/>
<feColorMatrix in="SourceAlpha" type="matrix" values="0 0 0 0 0 0 0 0 0 0 0 0 0 0 0 0 0 0 127 0" result="hardAlpha"/>
<feOffset dy="8"/>
<feGaussianBlur stdDeviation="20"/>
<feComposite in2="hardAlpha" operator="out"/>
<feColorMatrix type="matrix" values="0 0 0 0 0 0 0 0 0 0 0 0 0 0 0 0 0 0 0.12 0"/>
<feBlend mode="normal" in2="BackgroundImageFix" result="effect1_dropShadow_1922_2156"/>
<feBlend mode="normal" in="SourceGraphic" in2="effect1_dropShadow_1922_2156" result="shape"/>
</filter>
</defs>
</svg>
