<svg width="402" height="41" viewBox="0 0 402 41" fill="none" xmlns="http://www.w3.org/2000/svg">
<path d="M23.1719 33H18.1582V9.04395H23.1719V18.9385H24.002L32.2861 9.04395H37.9473L27.9199 20.7812L27.9365 20.0176L38.7275 33H32.502L24.002 22.7734H23.1719V33ZM48.1588 33.3652C46.3548 33.3652 44.7942 32.9945 43.4771 32.2529C42.1601 31.5114 41.1419 30.4489 40.4225 29.0654C39.7031 27.682 39.3434 26.0273 39.3434 24.1016V24.0684C39.3434 22.1536 39.7086 20.5101 40.4391 19.1377C41.1695 17.7542 42.1933 16.6917 43.5104 15.9502C44.8274 15.2087 46.3714 14.8379 48.1422 14.8379C49.9241 14.8379 51.4736 15.2087 52.7906 15.9502C54.1187 16.6807 55.148 17.7376 55.8785 19.1211C56.609 20.4935 56.9742 22.1426 56.9742 24.0684V24.1016C56.9742 26.0384 56.609 27.6986 55.8785 29.082C55.1591 30.4655 54.1409 31.528 52.8238 32.2695C51.5068 33 49.9518 33.3652 48.1588 33.3652ZM48.1754 29.5635C48.9612 29.5635 49.6419 29.3532 50.2174 28.9326C50.804 28.501 51.2522 27.8812 51.5621 27.0732C51.8831 26.2542 52.0436 25.2637 52.0436 24.1016V24.0684C52.0436 22.9173 51.8831 21.9378 51.5621 21.1299C51.2411 20.3219 50.7874 19.7077 50.2008 19.2871C49.6142 18.8555 48.928 18.6396 48.1422 18.6396C47.3674 18.6396 46.6868 18.8555 46.1002 19.2871C45.5247 19.7077 45.0764 20.3219 44.7555 21.1299C44.4345 21.9378 44.274 22.9173 44.274 24.0684V24.1016C44.274 25.2637 44.429 26.2542 44.7389 27.0732C45.0598 27.8812 45.5136 28.501 46.1002 28.9326C46.6868 29.3532 47.3785 29.5635 48.1754 29.5635ZM67.385 33.3652C65.8244 33.3652 64.4686 33.1383 63.3176 32.6846C62.1665 32.2308 61.2534 31.5833 60.5783 30.7422C59.9032 29.89 59.5048 28.8662 59.383 27.6709L59.3664 27.5049H63.965L64.0148 27.6875C64.203 28.3516 64.5793 28.8551 65.1437 29.1982C65.7082 29.5303 66.4442 29.6963 67.3518 29.6963C68.2925 29.6963 69.023 29.5137 69.5432 29.1484C70.0744 28.7721 70.34 28.252 70.34 27.5879V27.5547C70.34 26.8685 70.0855 26.3594 69.5764 26.0273C69.0673 25.6842 68.3036 25.5127 67.2854 25.5127H64.8781V22.4912H67.2521C68.1597 22.4912 68.8404 22.3252 69.2941 21.9932C69.7479 21.6611 69.9748 21.1686 69.9748 20.5156V20.4824C69.9748 19.8516 69.7479 19.3646 69.2941 19.0215C68.8404 18.6784 68.204 18.5068 67.385 18.5068C66.5327 18.5068 65.8465 18.6784 65.3264 19.0215C64.8173 19.3535 64.4963 19.846 64.3635 20.499L64.3469 20.6318H59.8146L59.8312 20.499C59.9862 19.2705 60.3791 18.2357 61.01 17.3945C61.6519 16.5534 62.5207 15.917 63.6164 15.4854C64.7121 15.0537 66.0126 14.8379 67.5178 14.8379C69.0119 14.8379 70.2902 15.0426 71.3527 15.4521C72.4263 15.8506 73.2508 16.4261 73.8264 17.1787C74.4019 17.9202 74.6896 18.8112 74.6896 19.8516V19.8848C74.6896 20.8477 74.4019 21.6611 73.8264 22.3252C73.2619 22.9893 72.4595 23.4375 71.4191 23.6699V23.8027C72.2382 23.9466 72.9243 24.2012 73.4777 24.5664C74.0422 24.9206 74.4628 25.3688 74.7395 25.9111C75.0272 26.4424 75.1711 27.0622 75.1711 27.7705V27.8037C75.1711 28.9215 74.8501 29.901 74.2082 30.7422C73.5663 31.5723 72.6587 32.2197 71.4855 32.6846C70.3234 33.1383 68.9566 33.3652 67.385 33.3652ZM86.5779 33.3652C84.7628 33.3652 83.2023 32.9945 81.8963 32.2529C80.5903 31.5003 79.5831 30.4323 78.8748 29.0488C78.1775 27.6654 77.8289 26.0273 77.8289 24.1348V24.1182C77.8289 22.2256 78.1775 20.5876 78.8748 19.2041C79.5831 17.8096 80.5737 16.736 81.8465 15.9834C83.1303 15.2197 84.6411 14.8379 86.3787 14.8379C88.1163 14.8379 89.616 15.2087 90.8777 15.9502C92.1505 16.6807 93.13 17.7155 93.8162 19.0547C94.5135 20.3939 94.8621 21.96 94.8621 23.7529V25.2471H80.2029V22.1924H92.5711L90.2635 25.0479V23.1885C90.2635 22.1481 90.103 21.2793 89.782 20.582C89.4611 19.8737 89.0128 19.3424 88.4373 18.9883C87.8729 18.6341 87.2143 18.457 86.4617 18.457C85.7091 18.457 85.0395 18.6396 84.4529 19.0049C83.8774 19.3701 83.4236 19.9069 83.0916 20.6152C82.7706 21.3125 82.6102 22.1702 82.6102 23.1885V25.0645C82.6102 26.0495 82.7706 26.8906 83.0916 27.5879C83.4236 28.2852 83.894 28.8219 84.5027 29.1982C85.1115 29.5635 85.8364 29.7461 86.6775 29.7461C87.3416 29.7461 87.9171 29.641 88.4041 29.4307C88.8911 29.2204 89.2895 28.9548 89.5994 28.6338C89.9093 28.3128 90.1196 27.9863 90.2303 27.6543L90.2635 27.5547H94.7127L94.6629 27.7373C94.5301 28.3903 94.27 29.0488 93.8826 29.7129C93.4952 30.377 92.9695 30.9857 92.3055 31.5391C91.6525 32.0924 90.8501 32.5352 89.8982 32.8672C88.9575 33.1992 87.8507 33.3652 86.5779 33.3652ZM104.044 24.749C103.945 26.4645 103.701 27.9531 103.314 29.2148C102.926 30.4766 102.318 31.4505 101.488 32.1367C100.658 32.8229 99.5121 33.166 98.0512 33.166C97.6085 33.166 97.2322 33.1383 96.9223 33.083C96.6124 33.0387 96.3855 32.9945 96.2416 32.9502V28.8828C96.3412 28.9049 96.474 28.9271 96.64 28.9492C96.8061 28.9714 96.9997 28.9824 97.2211 28.9824C97.7966 28.9824 98.2559 28.8219 98.599 28.501C98.9421 28.1689 99.1967 27.6598 99.3627 26.9736C99.5398 26.2874 99.656 25.4131 99.7113 24.3506L100.243 15.2031H114.155V33H109.307V18.8721H104.41L104.044 24.749Z" fill="#1A1A1A"/>
</svg>
